<mxfile host="Electron" agent="Mozilla/5.0 (Windows NT 10.0; Win64; x64) AppleWebKit/537.36 (KHTML, like Gecko) draw.io/26.0.16 Chrome/132.0.6834.196 Electron/34.2.0 Safari/537.36" version="26.0.16" pages="13">
  <diagram id="c0Wt2qi2HpK1jK3Tzn77" name="restaurant_r()">
    <mxGraphModel dx="2693" dy="1024" grid="1" gridSize="10" guides="1" tooltips="1" connect="1" arrows="1" fold="1" page="1" pageScale="1" pageWidth="850" pageHeight="1100" math="0" shadow="0">
      <root>
        <mxCell id="0" />
        <mxCell id="1" parent="0" />
        <mxCell id="ql7CWzJJGpKEFdzfzVDt-4" style="edgeStyle=orthogonalEdgeStyle;rounded=0;orthogonalLoop=1;jettySize=auto;html=1;exitX=0.5;exitY=1;exitDx=0;exitDy=0;entryX=0.5;entryY=0;entryDx=0;entryDy=0;" parent="1" source="zE3RO6d23XKrtRcSZ_yg-1" target="zE3RO6d23XKrtRcSZ_yg-2" edge="1">
          <mxGeometry relative="1" as="geometry" />
        </mxCell>
        <mxCell id="zE3RO6d23XKrtRcSZ_yg-1" value="restaurant_r()" style="rounded=1;whiteSpace=wrap;html=1;" parent="1" vertex="1">
          <mxGeometry x="365.5" y="102" width="120" height="60" as="geometry" />
        </mxCell>
        <mxCell id="24bJMsIbZHKL8V4Ek45Y-1" style="edgeStyle=orthogonalEdgeStyle;rounded=0;orthogonalLoop=1;jettySize=auto;html=1;exitX=0;exitY=0.5;exitDx=0;exitDy=0;entryX=0.5;entryY=0;entryDx=0;entryDy=0;" parent="1" source="zE3RO6d23XKrtRcSZ_yg-2" target="K5774stSFQ0jFmWjRaQ3-1" edge="1">
          <mxGeometry relative="1" as="geometry" />
        </mxCell>
        <mxCell id="qtjjOCtEA6eHz1-91Akj-15" style="edgeStyle=orthogonalEdgeStyle;rounded=0;orthogonalLoop=1;jettySize=auto;html=1;exitX=1;exitY=0.5;exitDx=0;exitDy=0;entryX=1;entryY=0.5;entryDx=0;entryDy=0;" parent="1" source="zE3RO6d23XKrtRcSZ_yg-2" target="qtjjOCtEA6eHz1-91Akj-13" edge="1">
          <mxGeometry relative="1" as="geometry">
            <Array as="points">
              <mxPoint x="1200" y="222" />
              <mxPoint x="1200" y="1565" />
            </Array>
          </mxGeometry>
        </mxCell>
        <mxCell id="zE3RO6d23XKrtRcSZ_yg-2" value="true" style="rhombus;whiteSpace=wrap;html=1;" parent="1" vertex="1">
          <mxGeometry x="368.5" y="182" width="115" height="80" as="geometry" />
        </mxCell>
        <mxCell id="ql7CWzJJGpKEFdzfzVDt-13" style="edgeStyle=orthogonalEdgeStyle;rounded=0;orthogonalLoop=1;jettySize=auto;html=1;exitX=0.5;exitY=1;exitDx=0;exitDy=0;entryX=0.5;entryY=0;entryDx=0;entryDy=0;" parent="1" source="zE3RO6d23XKrtRcSZ_yg-5" target="ql7CWzJJGpKEFdzfzVDt-11" edge="1">
          <mxGeometry relative="1" as="geometry" />
        </mxCell>
        <mxCell id="zE3RO6d23XKrtRcSZ_yg-5" value="ifstream in_file(&quot;restaurant_data.txt&quot;), ios::in)&lt;div&gt;string line&lt;/div&gt;&lt;div&gt;char ch&lt;/div&gt;" style="rounded=0;whiteSpace=wrap;html=1;" parent="1" vertex="1">
          <mxGeometry x="215" y="458" width="250" height="70" as="geometry" />
        </mxCell>
        <mxCell id="ql7CWzJJGpKEFdzfzVDt-9" style="edgeStyle=orthogonalEdgeStyle;rounded=0;orthogonalLoop=1;jettySize=auto;html=1;exitX=0.5;exitY=1;exitDx=0;exitDy=0;" parent="1" source="ql7CWzJJGpKEFdzfzVDt-1" edge="1">
          <mxGeometry relative="1" as="geometry">
            <mxPoint x="340.47368421052624" y="718" as="targetPoint" />
          </mxGeometry>
        </mxCell>
        <mxCell id="ql7CWzJJGpKEFdzfzVDt-19" style="edgeStyle=orthogonalEdgeStyle;rounded=0;orthogonalLoop=1;jettySize=auto;html=1;exitX=1;exitY=0.5;exitDx=0;exitDy=0;entryX=0.5;entryY=0;entryDx=0;entryDy=0;" parent="1" source="ql7CWzJJGpKEFdzfzVDt-1" target="ql7CWzJJGpKEFdzfzVDt-18" edge="1">
          <mxGeometry relative="1" as="geometry" />
        </mxCell>
        <mxCell id="ql7CWzJJGpKEFdzfzVDt-1" value="getline(in_file, line)" style="rhombus;whiteSpace=wrap;html=1;" parent="1" vertex="1">
          <mxGeometry x="264" y="618" width="152" height="80" as="geometry" />
        </mxCell>
        <mxCell id="ql7CWzJJGpKEFdzfzVDt-17" style="edgeStyle=orthogonalEdgeStyle;rounded=0;orthogonalLoop=1;jettySize=auto;html=1;exitX=0.5;exitY=0;exitDx=0;exitDy=0;entryX=0;entryY=0.5;entryDx=0;entryDy=0;" parent="1" source="ql7CWzJJGpKEFdzfzVDt-3" target="ql7CWzJJGpKEFdzfzVDt-11" edge="1">
          <mxGeometry relative="1" as="geometry" />
        </mxCell>
        <mxCell id="ql7CWzJJGpKEFdzfzVDt-3" value="i++" style="rounded=0;whiteSpace=wrap;html=1;" parent="1" vertex="1">
          <mxGeometry x="85" y="643" width="120" height="30" as="geometry" />
        </mxCell>
        <mxCell id="ql7CWzJJGpKEFdzfzVDt-7" style="edgeStyle=orthogonalEdgeStyle;rounded=0;orthogonalLoop=1;jettySize=auto;html=1;exitX=0.5;exitY=1;exitDx=0;exitDy=0;entryX=0.466;entryY=0.017;entryDx=0;entryDy=0;entryPerimeter=0;" parent="1" target="zE3RO6d23XKrtRcSZ_yg-5" edge="1">
          <mxGeometry relative="1" as="geometry">
            <mxPoint x="330.5" y="428" as="sourcePoint" />
          </mxGeometry>
        </mxCell>
        <mxCell id="ql7CWzJJGpKEFdzfzVDt-14" style="edgeStyle=orthogonalEdgeStyle;rounded=0;orthogonalLoop=1;jettySize=auto;html=1;exitX=0.5;exitY=1;exitDx=0;exitDy=0;entryX=0.5;entryY=0;entryDx=0;entryDy=0;" parent="1" source="ql7CWzJJGpKEFdzfzVDt-11" target="ql7CWzJJGpKEFdzfzVDt-1" edge="1">
          <mxGeometry relative="1" as="geometry" />
        </mxCell>
        <mxCell id="ql7CWzJJGpKEFdzfzVDt-11" value="int i=1" style="rounded=0;whiteSpace=wrap;html=1;" parent="1" vertex="1">
          <mxGeometry x="280" y="558" width="120" height="30" as="geometry" />
        </mxCell>
        <mxCell id="ql7CWzJJGpKEFdzfzVDt-15" value="true" style="text;html=1;align=center;verticalAlign=middle;resizable=0;points=[];autosize=1;strokeColor=none;fillColor=none;" parent="1" vertex="1">
          <mxGeometry x="345" y="686" width="40" height="30" as="geometry" />
        </mxCell>
        <mxCell id="ql7CWzJJGpKEFdzfzVDt-23" style="edgeStyle=orthogonalEdgeStyle;rounded=0;orthogonalLoop=1;jettySize=auto;html=1;exitX=0.5;exitY=1;exitDx=0;exitDy=0;entryX=0.5;entryY=0;entryDx=0;entryDy=0;" parent="1" source="ql7CWzJJGpKEFdzfzVDt-18" target="ql7CWzJJGpKEFdzfzVDt-21" edge="1">
          <mxGeometry relative="1" as="geometry" />
        </mxCell>
        <mxCell id="ql7CWzJJGpKEFdzfzVDt-18" value="Close File&lt;div&gt;in_file.close()&lt;/div&gt;" style="rounded=0;whiteSpace=wrap;html=1;" parent="1" vertex="1">
          <mxGeometry x="515" y="718" width="120" height="60" as="geometry" />
        </mxCell>
        <mxCell id="ql7CWzJJGpKEFdzfzVDt-20" value="false" style="text;html=1;align=center;verticalAlign=middle;resizable=0;points=[];autosize=1;strokeColor=none;fillColor=none;" parent="1" vertex="1">
          <mxGeometry x="400" y="626" width="50" height="30" as="geometry" />
        </mxCell>
        <mxCell id="HSPjcGRcXyanLEP2bZyv-2" style="edgeStyle=orthogonalEdgeStyle;rounded=0;orthogonalLoop=1;jettySize=auto;html=1;exitX=0.5;exitY=1;exitDx=0;exitDy=0;entryX=0.5;entryY=0;entryDx=0;entryDy=0;" parent="1" source="ql7CWzJJGpKEFdzfzVDt-21" target="HSPjcGRcXyanLEP2bZyv-1" edge="1">
          <mxGeometry relative="1" as="geometry" />
        </mxCell>
        <mxCell id="ql7CWzJJGpKEFdzfzVDt-21" value="PRINT&lt;div&gt;&quot;Enter Number of Restaurant&amp;nbsp; &amp;lt;Q&amp;gt;uit&quot;&lt;/div&gt;" style="rounded=0;whiteSpace=wrap;html=1;" parent="1" vertex="1">
          <mxGeometry x="467.5" y="808" width="215" height="60" as="geometry" />
        </mxCell>
        <mxCell id="ql7CWzJJGpKEFdzfzVDt-26" style="edgeStyle=orthogonalEdgeStyle;rounded=0;orthogonalLoop=1;jettySize=auto;html=1;exitX=0.5;exitY=1;exitDx=0;exitDy=0;entryX=0.5;entryY=0;entryDx=0;entryDy=0;" parent="1" target="ql7CWzJJGpKEFdzfzVDt-25" edge="1">
          <mxGeometry relative="1" as="geometry">
            <mxPoint x="575" y="928" as="sourcePoint" />
          </mxGeometry>
        </mxCell>
        <mxCell id="ql7CWzJJGpKEFdzfzVDt-80" style="edgeStyle=orthogonalEdgeStyle;rounded=0;orthogonalLoop=1;jettySize=auto;html=1;exitX=1;exitY=0.5;exitDx=0;exitDy=0;entryX=0;entryY=0.5;entryDx=0;entryDy=0;" parent="1" source="ql7CWzJJGpKEFdzfzVDt-25" target="ql7CWzJJGpKEFdzfzVDt-79" edge="1">
          <mxGeometry relative="1" as="geometry" />
        </mxCell>
        <mxCell id="24bJMsIbZHKL8V4Ek45Y-5" style="edgeStyle=orthogonalEdgeStyle;rounded=0;orthogonalLoop=1;jettySize=auto;html=1;exitX=0;exitY=0.5;exitDx=0;exitDy=0;entryX=0.5;entryY=0;entryDx=0;entryDy=0;" parent="1" source="ql7CWzJJGpKEFdzfzVDt-25" target="ql7CWzJJGpKEFdzfzVDt-27" edge="1">
          <mxGeometry relative="1" as="geometry" />
        </mxCell>
        <mxCell id="ql7CWzJJGpKEFdzfzVDt-25" value="ch&amp;gt;=&#39;1&#39; &amp;amp;&amp;amp; ch&amp;lt;= &#39;8&#39;" style="rhombus;whiteSpace=wrap;html=1;" parent="1" vertex="1">
          <mxGeometry x="510" y="958" width="130" height="80" as="geometry" />
        </mxCell>
        <mxCell id="ql7CWzJJGpKEFdzfzVDt-30" style="edgeStyle=orthogonalEdgeStyle;rounded=0;orthogonalLoop=1;jettySize=auto;html=1;exitX=0.5;exitY=1;exitDx=0;exitDy=0;entryX=0.5;entryY=0;entryDx=0;entryDy=0;" parent="1" source="ql7CWzJJGpKEFdzfzVDt-27" target="ql7CWzJJGpKEFdzfzVDt-29" edge="1">
          <mxGeometry relative="1" as="geometry" />
        </mxCell>
        <mxCell id="ql7CWzJJGpKEFdzfzVDt-41" style="edgeStyle=orthogonalEdgeStyle;rounded=0;orthogonalLoop=1;jettySize=auto;html=1;exitX=0.5;exitY=1;exitDx=0;exitDy=0;" parent="1" source="ql7CWzJJGpKEFdzfzVDt-27" target="ql7CWzJJGpKEFdzfzVDt-32" edge="1">
          <mxGeometry relative="1" as="geometry" />
        </mxCell>
        <mxCell id="ql7CWzJJGpKEFdzfzVDt-42" style="edgeStyle=orthogonalEdgeStyle;rounded=0;orthogonalLoop=1;jettySize=auto;html=1;exitX=0.5;exitY=1;exitDx=0;exitDy=0;entryX=0.5;entryY=0;entryDx=0;entryDy=0;" parent="1" source="ql7CWzJJGpKEFdzfzVDt-27" target="ql7CWzJJGpKEFdzfzVDt-36" edge="1">
          <mxGeometry relative="1" as="geometry">
            <Array as="points">
              <mxPoint x="435" y="1158" />
              <mxPoint x="218" y="1158" />
            </Array>
          </mxGeometry>
        </mxCell>
        <mxCell id="ql7CWzJJGpKEFdzfzVDt-44" style="edgeStyle=orthogonalEdgeStyle;rounded=0;orthogonalLoop=1;jettySize=auto;html=1;exitX=0.5;exitY=1;exitDx=0;exitDy=0;" parent="1" source="ql7CWzJJGpKEFdzfzVDt-27" target="ql7CWzJJGpKEFdzfzVDt-34" edge="1">
          <mxGeometry relative="1" as="geometry" />
        </mxCell>
        <mxCell id="ql7CWzJJGpKEFdzfzVDt-45" style="edgeStyle=orthogonalEdgeStyle;rounded=0;orthogonalLoop=1;jettySize=auto;html=1;exitX=0.5;exitY=1;exitDx=0;exitDy=0;entryX=0.5;entryY=0;entryDx=0;entryDy=0;" parent="1" source="ql7CWzJJGpKEFdzfzVDt-27" target="ql7CWzJJGpKEFdzfzVDt-35" edge="1">
          <mxGeometry relative="1" as="geometry" />
        </mxCell>
        <mxCell id="ql7CWzJJGpKEFdzfzVDt-47" style="edgeStyle=orthogonalEdgeStyle;rounded=0;orthogonalLoop=1;jettySize=auto;html=1;exitX=0.5;exitY=1;exitDx=0;exitDy=0;" parent="1" source="ql7CWzJJGpKEFdzfzVDt-27" edge="1">
          <mxGeometry relative="1" as="geometry">
            <mxPoint x="675" y="1338" as="targetPoint" />
            <Array as="points">
              <mxPoint x="435" y="1158" />
              <mxPoint x="675" y="1158" />
            </Array>
          </mxGeometry>
        </mxCell>
        <mxCell id="ql7CWzJJGpKEFdzfzVDt-48" style="edgeStyle=orthogonalEdgeStyle;rounded=0;orthogonalLoop=1;jettySize=auto;html=1;exitX=0.5;exitY=1;exitDx=0;exitDy=0;" parent="1" source="ql7CWzJJGpKEFdzfzVDt-27" target="ql7CWzJJGpKEFdzfzVDt-37" edge="1">
          <mxGeometry relative="1" as="geometry">
            <Array as="points">
              <mxPoint x="435" y="1238" />
              <mxPoint x="435" y="1238" />
            </Array>
          </mxGeometry>
        </mxCell>
        <mxCell id="ql7CWzJJGpKEFdzfzVDt-27" value="switch(ch)" style="rhombus;whiteSpace=wrap;html=1;" parent="1" vertex="1">
          <mxGeometry x="370" y="1058" width="130" height="80" as="geometry" />
        </mxCell>
        <mxCell id="ql7CWzJJGpKEFdzfzVDt-67" style="edgeStyle=orthogonalEdgeStyle;rounded=0;orthogonalLoop=1;jettySize=auto;html=1;exitX=0.5;exitY=1;exitDx=0;exitDy=0;entryX=0.5;entryY=0;entryDx=0;entryDy=0;" parent="1" source="ql7CWzJJGpKEFdzfzVDt-29" target="ql7CWzJJGpKEFdzfzVDt-49" edge="1">
          <mxGeometry relative="1" as="geometry" />
        </mxCell>
        <mxCell id="ql7CWzJJGpKEFdzfzVDt-29" value="track(&quot;ah_ma_review.txt&quot;)" style="shape=process;whiteSpace=wrap;html=1;backgroundOutline=1;" parent="1" vertex="1">
          <mxGeometry x="-215" y="1178" width="200" height="60" as="geometry" />
        </mxCell>
        <mxCell id="ql7CWzJJGpKEFdzfzVDt-69" style="edgeStyle=orthogonalEdgeStyle;rounded=0;orthogonalLoop=1;jettySize=auto;html=1;exitX=0.5;exitY=1;exitDx=0;exitDy=0;entryX=0.5;entryY=0;entryDx=0;entryDy=0;" parent="1" source="ql7CWzJJGpKEFdzfzVDt-31" target="ql7CWzJJGpKEFdzfzVDt-52" edge="1">
          <mxGeometry relative="1" as="geometry" />
        </mxCell>
        <mxCell id="ql7CWzJJGpKEFdzfzVDt-31" value="track(&quot;desa_review.txt&quot;)" style="shape=process;whiteSpace=wrap;html=1;backgroundOutline=1;" parent="1" vertex="1">
          <mxGeometry x="5" y="1178" width="200" height="60" as="geometry" />
        </mxCell>
        <mxCell id="ql7CWzJJGpKEFdzfzVDt-70" style="edgeStyle=orthogonalEdgeStyle;rounded=0;orthogonalLoop=1;jettySize=auto;html=1;exitX=0.5;exitY=1;exitDx=0;exitDy=0;entryX=0.5;entryY=0;entryDx=0;entryDy=0;" parent="1" source="ql7CWzJJGpKEFdzfzVDt-32" target="ql7CWzJJGpKEFdzfzVDt-51" edge="1">
          <mxGeometry relative="1" as="geometry" />
        </mxCell>
        <mxCell id="ql7CWzJJGpKEFdzfzVDt-32" value="track(&quot;fun_review.txt&quot;)" style="shape=process;whiteSpace=wrap;html=1;backgroundOutline=1;" parent="1" vertex="1">
          <mxGeometry x="225" y="1178" width="200" height="60" as="geometry" />
        </mxCell>
        <mxCell id="ql7CWzJJGpKEFdzfzVDt-71" style="edgeStyle=orthogonalEdgeStyle;rounded=0;orthogonalLoop=1;jettySize=auto;html=1;exitX=0.5;exitY=1;exitDx=0;exitDy=0;entryX=0.5;entryY=0;entryDx=0;entryDy=0;" parent="1" source="ql7CWzJJGpKEFdzfzVDt-33" target="ql7CWzJJGpKEFdzfzVDt-50" edge="1">
          <mxGeometry relative="1" as="geometry" />
        </mxCell>
        <mxCell id="ql7CWzJJGpKEFdzfzVDt-33" value="track(&quot;happy_thai_review.txt&quot;)" style="shape=process;whiteSpace=wrap;html=1;backgroundOutline=1;" parent="1" vertex="1">
          <mxGeometry x="445" y="1178" width="220" height="60" as="geometry" />
        </mxCell>
        <mxCell id="ql7CWzJJGpKEFdzfzVDt-72" style="edgeStyle=orthogonalEdgeStyle;rounded=0;orthogonalLoop=1;jettySize=auto;html=1;exitX=0.5;exitY=1;exitDx=0;exitDy=0;entryX=0.5;entryY=0;entryDx=0;entryDy=0;" parent="1" source="ql7CWzJJGpKEFdzfzVDt-34" target="ql7CWzJJGpKEFdzfzVDt-55" edge="1">
          <mxGeometry relative="1" as="geometry" />
        </mxCell>
        <mxCell id="ql7CWzJJGpKEFdzfzVDt-34" value="track(&quot;mrs_yau&lt;span style=&quot;color: rgba(0, 0, 0, 0); font-family: monospace; font-size: 0px; text-align: start; text-wrap-mode: nowrap;&quot;&gt;%3CmxGraphModel%3E%3Croot%3E%3CmxCell%20id%3D%220%22%2F%3E%3CmxCell%20id%3D%221%22%20parent%3D%220%22%2F%3E%3CmxCell%20id%3D%222%22%20value%3D%22track(%26quot%3Bhappy_thai_review.txt%26quot%3B)%22%20style%3D%22shape%3Dprocess%3BwhiteSpace%3Dwrap%3Bhtml%3D1%3BbackgroundOutline%3D1%3B%22%20vertex%3D%221%22%20parent%3D%221%22%3E%3CmxGeometry%20x%3D%22660%22%20y%3D%221270%22%20width%3D%22220%22%20height%3D%2260%22%20as%3D%22geometry%22%2F%3E%3C%2FmxCell%3E%3C%2Froot%3E%3C%2FmxGraphModel%3E&lt;/span&gt;_review.txt&quot;)" style="shape=process;whiteSpace=wrap;html=1;backgroundOutline=1;" parent="1" vertex="1">
          <mxGeometry x="685" y="1178" width="220" height="60" as="geometry" />
        </mxCell>
        <mxCell id="ql7CWzJJGpKEFdzfzVDt-73" style="edgeStyle=orthogonalEdgeStyle;rounded=0;orthogonalLoop=1;jettySize=auto;html=1;exitX=0.5;exitY=1;exitDx=0;exitDy=0;entryX=0.5;entryY=0;entryDx=0;entryDy=0;" parent="1" source="ql7CWzJJGpKEFdzfzVDt-35" target="ql7CWzJJGpKEFdzfzVDt-54" edge="1">
          <mxGeometry relative="1" as="geometry" />
        </mxCell>
        <mxCell id="ql7CWzJJGpKEFdzfzVDt-35" value="track(&quot;mye&lt;span style=&quot;color: rgba(0, 0, 0, 0); font-family: monospace; font-size: 0px; text-align: start; text-wrap-mode: nowrap;&quot;&gt;%3CmxGraphModel%3E%3Croot%3E%3CmxCell%20id%3D%220%22%2F%3E%3CmxCell%20id%3D%221%22%20parent%3D%220%22%2F%3E%3CmxCell%20id%3D%222%22%20value%3D%22track(%26quot%3Bhappy_thai_review.txt%26quot%3B)%22%20style%3D%22shape%3Dprocess%3BwhiteSpace%3Dwrap%3Bhtml%3D1%3BbackgroundOutline%3D1%3B%22%20vertex%3D%221%22%20parent%3D%221%22%3E%3CmxGeometry%20x%3D%22660%22%20y%3D%221270%22%20width%3D%22220%22%20height%3D%2260%22%20as%3D%22geometry%22%2F%3E%3C%2FmxCell%3E%3C%2Froot%3E%3C%2FmxGraphModel%3E&lt;/span&gt;_review.txt&quot;)" style="shape=process;whiteSpace=wrap;html=1;backgroundOutline=1;" parent="1" vertex="1">
          <mxGeometry x="915" y="1178" width="220" height="60" as="geometry" />
        </mxCell>
        <mxCell id="ql7CWzJJGpKEFdzfzVDt-76" style="edgeStyle=orthogonalEdgeStyle;rounded=0;orthogonalLoop=1;jettySize=auto;html=1;exitX=0.5;exitY=1;exitDx=0;exitDy=0;entryX=0.5;entryY=0;entryDx=0;entryDy=0;" parent="1" source="ql7CWzJJGpKEFdzfzVDt-36" target="ql7CWzJJGpKEFdzfzVDt-53" edge="1">
          <mxGeometry relative="1" as="geometry" />
        </mxCell>
        <mxCell id="ql7CWzJJGpKEFdzfzVDt-36" value="track(&quot;taiwan&lt;span style=&quot;color: rgba(0, 0, 0, 0); font-family: monospace; font-size: 0px; text-align: start; text-wrap-mode: nowrap;&quot;&gt;%3CmxGraphModel%3E%3Croot%3E%3CmxCell%20id%3D%220%22%2F%3E%3CmxCell%20id%3D%221%22%20parent%3D%220%22%2F%3E%3CmxCell%20id%3D%222%22%20value%3D%22track(%26quot%3Bhappy_thai_review.txt%26quot%3B)%22%20style%3D%22shape%3Dprocess%3BwhiteSpace%3Dwrap%3Bhtml%3D1%3BbackgroundOutline%3D1%3B%22%20vertex%3D%221%22%20parent%3D%221%22%3E%3CmxGeometry%20x%3D%22660%22%20y%3D%221270%22%20width%3D%22220%22%20height%3D%2260%22%20as%3D%22geometry%22%2F%3E%3C%2FmxCell%3E%3C%2Froot%3E%3C%2FmxGraphModel%3E&lt;/span&gt;_review.txt&quot;)" style="shape=process;whiteSpace=wrap;html=1;backgroundOutline=1;" parent="1" vertex="1">
          <mxGeometry x="107.5" y="1338" width="220" height="60" as="geometry" />
        </mxCell>
        <mxCell id="ql7CWzJJGpKEFdzfzVDt-75" style="edgeStyle=orthogonalEdgeStyle;rounded=0;orthogonalLoop=1;jettySize=auto;html=1;exitX=0.5;exitY=1;exitDx=0;exitDy=0;entryX=0.5;entryY=0;entryDx=0;entryDy=0;" parent="1" source="ql7CWzJJGpKEFdzfzVDt-37" target="ql7CWzJJGpKEFdzfzVDt-57" edge="1">
          <mxGeometry relative="1" as="geometry" />
        </mxCell>
        <mxCell id="ql7CWzJJGpKEFdzfzVDt-37" value="track(&quot;wei_duo&lt;span style=&quot;color: rgba(0, 0, 0, 0); font-family: monospace; font-size: 0px; text-align: start; text-wrap-mode: nowrap;&quot;&gt;%3CmxGraphModel%3E%3Croot%3E%3CmxCell%20id%3D%220%22%2F%3E%3CmxCell%20id%3D%221%22%20parent%3D%220%22%2F%3E%3CmxCell%20id%3D%222%22%20value%3D%22track(%26quot%3Bhappy_thai_review.txt%26quot%3B)%22%20style%3D%22shape%3Dprocess%3BwhiteSpace%3Dwrap%3Bhtml%3D1%3BbackgroundOutline%3D1%3B%22%20vertex%3D%221%22%20parent%3D%221%22%3E%3CmxGeometry%20x%3D%22660%22%20y%3D%221270%22%20width%3D%22220%22%20height%3D%2260%22%20as%3D%22geometry%22%2F%3E%3C%2FmxCell%3E%3C%2Froot%3E%3C%2FmxGraphModel%3E&lt;/span&gt;_review.txt&quot;)" style="shape=process;whiteSpace=wrap;html=1;backgroundOutline=1;" parent="1" vertex="1">
          <mxGeometry x="356.25" y="1338" width="220" height="60" as="geometry" />
        </mxCell>
        <mxCell id="ql7CWzJJGpKEFdzfzVDt-74" style="edgeStyle=orthogonalEdgeStyle;rounded=0;orthogonalLoop=1;jettySize=auto;html=1;exitX=0.5;exitY=1;exitDx=0;exitDy=0;entryX=0.5;entryY=0;entryDx=0;entryDy=0;" parent="1" target="ql7CWzJJGpKEFdzfzVDt-56" edge="1">
          <mxGeometry relative="1" as="geometry">
            <mxPoint x="710" y="1398" as="sourcePoint" />
          </mxGeometry>
        </mxCell>
        <mxCell id="ql7CWzJJGpKEFdzfzVDt-40" style="edgeStyle=orthogonalEdgeStyle;rounded=0;orthogonalLoop=1;jettySize=auto;html=1;exitX=0.5;exitY=1;exitDx=0;exitDy=0;entryX=0.616;entryY=0.013;entryDx=0;entryDy=0;entryPerimeter=0;" parent="1" source="ql7CWzJJGpKEFdzfzVDt-27" target="ql7CWzJJGpKEFdzfzVDt-31" edge="1">
          <mxGeometry relative="1" as="geometry" />
        </mxCell>
        <mxCell id="ql7CWzJJGpKEFdzfzVDt-43" style="edgeStyle=orthogonalEdgeStyle;rounded=0;orthogonalLoop=1;jettySize=auto;html=1;exitX=0.5;exitY=1;exitDx=0;exitDy=0;entryX=0.54;entryY=0.079;entryDx=0;entryDy=0;entryPerimeter=0;" parent="1" source="ql7CWzJJGpKEFdzfzVDt-27" target="ql7CWzJJGpKEFdzfzVDt-33" edge="1">
          <mxGeometry relative="1" as="geometry" />
        </mxCell>
        <mxCell id="qtjjOCtEA6eHz1-91Akj-1" style="edgeStyle=orthogonalEdgeStyle;rounded=0;orthogonalLoop=1;jettySize=auto;html=1;exitX=0.5;exitY=1;exitDx=0;exitDy=0;entryX=0;entryY=0.5;entryDx=0;entryDy=0;" parent="1" source="ql7CWzJJGpKEFdzfzVDt-49" target="bmjPGpbgoSxlEVjbY4-F-1" edge="1">
          <mxGeometry relative="1" as="geometry" />
        </mxCell>
        <mxCell id="ql7CWzJJGpKEFdzfzVDt-49" value="break" style="rounded=0;whiteSpace=wrap;html=1;" parent="1" vertex="1">
          <mxGeometry x="-185" y="1258" width="140" height="30" as="geometry" />
        </mxCell>
        <mxCell id="qtjjOCtEA6eHz1-91Akj-7" style="edgeStyle=orthogonalEdgeStyle;rounded=0;orthogonalLoop=1;jettySize=auto;html=1;exitX=0.75;exitY=1;exitDx=0;exitDy=0;entryX=1;entryY=0.5;entryDx=0;entryDy=0;" parent="1" source="ql7CWzJJGpKEFdzfzVDt-50" target="bmjPGpbgoSxlEVjbY4-F-1" edge="1">
          <mxGeometry relative="1" as="geometry">
            <Array as="points">
              <mxPoint x="590" y="1288" />
              <mxPoint x="590" y="1505" />
            </Array>
          </mxGeometry>
        </mxCell>
        <mxCell id="ql7CWzJJGpKEFdzfzVDt-50" value="break" style="rounded=0;whiteSpace=wrap;html=1;" parent="1" vertex="1">
          <mxGeometry x="475" y="1258" width="140" height="30" as="geometry" />
        </mxCell>
        <mxCell id="qtjjOCtEA6eHz1-91Akj-5" style="edgeStyle=orthogonalEdgeStyle;rounded=0;orthogonalLoop=1;jettySize=auto;html=1;exitX=0.5;exitY=1;exitDx=0;exitDy=0;entryX=0;entryY=0.5;entryDx=0;entryDy=0;" parent="1" source="ql7CWzJJGpKEFdzfzVDt-51" target="bmjPGpbgoSxlEVjbY4-F-1" edge="1">
          <mxGeometry relative="1" as="geometry">
            <Array as="points">
              <mxPoint x="340" y="1288" />
              <mxPoint x="340" y="1505" />
            </Array>
          </mxGeometry>
        </mxCell>
        <mxCell id="ql7CWzJJGpKEFdzfzVDt-51" value="break" style="rounded=0;whiteSpace=wrap;html=1;" parent="1" vertex="1">
          <mxGeometry x="260" y="1258" width="140" height="30" as="geometry" />
        </mxCell>
        <mxCell id="qtjjOCtEA6eHz1-91Akj-3" style="edgeStyle=orthogonalEdgeStyle;rounded=0;orthogonalLoop=1;jettySize=auto;html=1;exitX=0.25;exitY=1;exitDx=0;exitDy=0;entryX=0;entryY=0.5;entryDx=0;entryDy=0;" parent="1" source="ql7CWzJJGpKEFdzfzVDt-52" target="bmjPGpbgoSxlEVjbY4-F-1" edge="1">
          <mxGeometry relative="1" as="geometry" />
        </mxCell>
        <mxCell id="ql7CWzJJGpKEFdzfzVDt-52" value="break" style="rounded=0;whiteSpace=wrap;html=1;" parent="1" vertex="1">
          <mxGeometry x="35" y="1258" width="140" height="30" as="geometry" />
        </mxCell>
        <mxCell id="qtjjOCtEA6eHz1-91Akj-4" style="edgeStyle=orthogonalEdgeStyle;rounded=0;orthogonalLoop=1;jettySize=auto;html=1;exitX=0.5;exitY=1;exitDx=0;exitDy=0;entryX=0;entryY=0.5;entryDx=0;entryDy=0;" parent="1" source="ql7CWzJJGpKEFdzfzVDt-53" target="bmjPGpbgoSxlEVjbY4-F-1" edge="1">
          <mxGeometry relative="1" as="geometry" />
        </mxCell>
        <mxCell id="ql7CWzJJGpKEFdzfzVDt-53" value="break" style="rounded=0;whiteSpace=wrap;html=1;" parent="1" vertex="1">
          <mxGeometry x="147.5" y="1418" width="140" height="30" as="geometry" />
        </mxCell>
        <mxCell id="qtjjOCtEA6eHz1-91Akj-10" style="edgeStyle=orthogonalEdgeStyle;rounded=0;orthogonalLoop=1;jettySize=auto;html=1;exitX=0.5;exitY=1;exitDx=0;exitDy=0;entryX=1;entryY=0.5;entryDx=0;entryDy=0;" parent="1" source="ql7CWzJJGpKEFdzfzVDt-54" target="bmjPGpbgoSxlEVjbY4-F-1" edge="1">
          <mxGeometry relative="1" as="geometry" />
        </mxCell>
        <mxCell id="ql7CWzJJGpKEFdzfzVDt-54" value="break" style="rounded=0;whiteSpace=wrap;html=1;" parent="1" vertex="1">
          <mxGeometry x="955" y="1258" width="140" height="30" as="geometry" />
        </mxCell>
        <mxCell id="qtjjOCtEA6eHz1-91Akj-9" style="edgeStyle=orthogonalEdgeStyle;rounded=0;orthogonalLoop=1;jettySize=auto;html=1;exitX=0.75;exitY=1;exitDx=0;exitDy=0;entryX=1;entryY=0.5;entryDx=0;entryDy=0;" parent="1" source="ql7CWzJJGpKEFdzfzVDt-55" target="bmjPGpbgoSxlEVjbY4-F-1" edge="1">
          <mxGeometry relative="1" as="geometry" />
        </mxCell>
        <mxCell id="ql7CWzJJGpKEFdzfzVDt-55" value="break" style="rounded=0;whiteSpace=wrap;html=1;" parent="1" vertex="1">
          <mxGeometry x="725" y="1258" width="140" height="30" as="geometry" />
        </mxCell>
        <mxCell id="qtjjOCtEA6eHz1-91Akj-8" style="edgeStyle=orthogonalEdgeStyle;rounded=0;orthogonalLoop=1;jettySize=auto;html=1;exitX=0.5;exitY=1;exitDx=0;exitDy=0;entryX=1;entryY=0.5;entryDx=0;entryDy=0;" parent="1" source="ql7CWzJJGpKEFdzfzVDt-56" target="bmjPGpbgoSxlEVjbY4-F-1" edge="1">
          <mxGeometry relative="1" as="geometry" />
        </mxCell>
        <mxCell id="ql7CWzJJGpKEFdzfzVDt-56" value="break" style="rounded=0;whiteSpace=wrap;html=1;" parent="1" vertex="1">
          <mxGeometry x="640" y="1418" width="140" height="30" as="geometry" />
        </mxCell>
        <mxCell id="qtjjOCtEA6eHz1-91Akj-6" style="edgeStyle=orthogonalEdgeStyle;rounded=0;orthogonalLoop=1;jettySize=auto;html=1;exitX=0.5;exitY=1;exitDx=0;exitDy=0;entryX=0.5;entryY=0;entryDx=0;entryDy=0;" parent="1" source="ql7CWzJJGpKEFdzfzVDt-57" target="bmjPGpbgoSxlEVjbY4-F-1" edge="1">
          <mxGeometry relative="1" as="geometry" />
        </mxCell>
        <mxCell id="ql7CWzJJGpKEFdzfzVDt-57" value="break" style="rounded=0;whiteSpace=wrap;html=1;" parent="1" vertex="1">
          <mxGeometry x="396.25" y="1428" width="140" height="30" as="geometry" />
        </mxCell>
        <mxCell id="ql7CWzJJGpKEFdzfzVDt-58" value="1" style="text;html=1;align=center;verticalAlign=middle;resizable=0;points=[];autosize=1;strokeColor=none;fillColor=none;" parent="1" vertex="1">
          <mxGeometry x="-150" y="1138" width="30" height="30" as="geometry" />
        </mxCell>
        <mxCell id="ql7CWzJJGpKEFdzfzVDt-59" value="2" style="text;html=1;align=center;verticalAlign=middle;resizable=0;points=[];autosize=1;strokeColor=none;fillColor=none;" parent="1" vertex="1">
          <mxGeometry x="100" y="1126" width="30" height="30" as="geometry" />
        </mxCell>
        <mxCell id="ql7CWzJJGpKEFdzfzVDt-60" value="3" style="text;html=1;align=center;verticalAlign=middle;resizable=0;points=[];autosize=1;strokeColor=none;fillColor=none;" parent="1" vertex="1">
          <mxGeometry x="290" y="1126" width="30" height="30" as="geometry" />
        </mxCell>
        <mxCell id="ql7CWzJJGpKEFdzfzVDt-61" value="4" style="text;html=1;align=center;verticalAlign=middle;resizable=0;points=[];autosize=1;strokeColor=none;fillColor=none;" parent="1" vertex="1">
          <mxGeometry x="580" y="1126" width="30" height="30" as="geometry" />
        </mxCell>
        <mxCell id="ql7CWzJJGpKEFdzfzVDt-62" value="5" style="text;html=1;align=center;verticalAlign=middle;resizable=0;points=[];autosize=1;strokeColor=none;fillColor=none;" parent="1" vertex="1">
          <mxGeometry x="800" y="1126" width="30" height="30" as="geometry" />
        </mxCell>
        <mxCell id="ql7CWzJJGpKEFdzfzVDt-63" value="6" style="text;html=1;align=center;verticalAlign=middle;resizable=0;points=[];autosize=1;strokeColor=none;fillColor=none;" parent="1" vertex="1">
          <mxGeometry x="1030" y="1136" width="30" height="30" as="geometry" />
        </mxCell>
        <mxCell id="ql7CWzJJGpKEFdzfzVDt-64" value="7" style="text;html=1;align=center;verticalAlign=middle;resizable=0;points=[];autosize=1;strokeColor=none;fillColor=none;" parent="1" vertex="1">
          <mxGeometry x="180" y="1306" width="30" height="30" as="geometry" />
        </mxCell>
        <mxCell id="ql7CWzJJGpKEFdzfzVDt-65" value="8" style="text;html=1;align=center;verticalAlign=middle;resizable=0;points=[];autosize=1;strokeColor=none;fillColor=none;" parent="1" vertex="1">
          <mxGeometry x="440" y="1306" width="30" height="30" as="geometry" />
        </mxCell>
        <mxCell id="ql7CWzJJGpKEFdzfzVDt-66" value="default" style="text;html=1;align=center;verticalAlign=middle;resizable=0;points=[];autosize=1;strokeColor=none;fillColor=none;" parent="1" vertex="1">
          <mxGeometry x="685" y="1308" width="60" height="30" as="geometry" />
        </mxCell>
        <mxCell id="ql7CWzJJGpKEFdzfzVDt-77" value="true" style="text;html=1;align=center;verticalAlign=middle;resizable=0;points=[];autosize=1;strokeColor=none;fillColor=none;" parent="1" vertex="1">
          <mxGeometry x="470" y="958" width="40" height="30" as="geometry" />
        </mxCell>
        <mxCell id="ql7CWzJJGpKEFdzfzVDt-84" style="edgeStyle=orthogonalEdgeStyle;rounded=0;orthogonalLoop=1;jettySize=auto;html=1;exitX=1;exitY=0.5;exitDx=0;exitDy=0;entryX=0;entryY=0.5;entryDx=0;entryDy=0;" parent="1" source="ql7CWzJJGpKEFdzfzVDt-79" edge="1">
          <mxGeometry relative="1" as="geometry">
            <mxPoint x="985" y="768" as="targetPoint" />
          </mxGeometry>
        </mxCell>
        <mxCell id="ql7CWzJJGpKEFdzfzVDt-88" style="edgeStyle=orthogonalEdgeStyle;rounded=0;orthogonalLoop=1;jettySize=auto;html=1;exitX=0.5;exitY=1;exitDx=0;exitDy=0;entryX=0.5;entryY=0;entryDx=0;entryDy=0;" parent="1" source="ql7CWzJJGpKEFdzfzVDt-79" edge="1">
          <mxGeometry relative="1" as="geometry">
            <mxPoint x="870" y="848" as="targetPoint" />
          </mxGeometry>
        </mxCell>
        <mxCell id="ql7CWzJJGpKEFdzfzVDt-79" value="ch&amp;gt;=&#39;q&#39; &amp;amp;&amp;amp; ch&amp;lt;= &#39;q&#39;" style="rhombus;whiteSpace=wrap;html=1;" parent="1" vertex="1">
          <mxGeometry x="805" y="728" width="130" height="80" as="geometry" />
        </mxCell>
        <mxCell id="ql7CWzJJGpKEFdzfzVDt-81" value="false" style="text;html=1;align=center;verticalAlign=middle;resizable=0;points=[];autosize=1;strokeColor=none;fillColor=none;" parent="1" vertex="1">
          <mxGeometry x="632.5" y="966" width="50" height="30" as="geometry" />
        </mxCell>
        <mxCell id="ql7CWzJJGpKEFdzfzVDt-85" style="edgeStyle=orthogonalEdgeStyle;rounded=0;orthogonalLoop=1;jettySize=auto;html=1;exitX=1;exitY=0.5;exitDx=0;exitDy=0;entryX=0;entryY=0.5;entryDx=0;entryDy=0;" parent="1" target="ql7CWzJJGpKEFdzfzVDt-83" edge="1">
          <mxGeometry relative="1" as="geometry">
            <mxPoint x="1105" y="768" as="sourcePoint" />
          </mxGeometry>
        </mxCell>
        <mxCell id="ql7CWzJJGpKEFdzfzVDt-83" value="break" style="rounded=0;whiteSpace=wrap;html=1;" parent="1" vertex="1">
          <mxGeometry x="1165" y="753" width="140" height="30" as="geometry" />
        </mxCell>
        <mxCell id="ql7CWzJJGpKEFdzfzVDt-86" value="true" style="text;html=1;align=center;verticalAlign=middle;resizable=0;points=[];autosize=1;strokeColor=none;fillColor=none;" parent="1" vertex="1">
          <mxGeometry x="925" y="736" width="40" height="30" as="geometry" />
        </mxCell>
        <mxCell id="ql7CWzJJGpKEFdzfzVDt-89" value="false" style="text;html=1;align=center;verticalAlign=middle;resizable=0;points=[];autosize=1;strokeColor=none;fillColor=none;" parent="1" vertex="1">
          <mxGeometry x="870" y="816" width="50" height="30" as="geometry" />
        </mxCell>
        <mxCell id="ql7CWzJJGpKEFdzfzVDt-92" value="RETURN" style="rounded=1;whiteSpace=wrap;html=1;" parent="1" vertex="1">
          <mxGeometry x="406.25" y="1610" width="120" height="60" as="geometry" />
        </mxCell>
        <mxCell id="nWIDdSdpa0BpGGge7pNB-1" value="/* restaurant_r() */" style="text;html=1;align=center;verticalAlign=middle;resizable=0;points=[];autosize=1;strokeColor=none;fillColor=none;" parent="1" vertex="1">
          <mxGeometry x="220.5" y="100" width="120" height="30" as="geometry" />
        </mxCell>
        <mxCell id="hU4EYATAlaHzF3y5Fv2T-5" style="edgeStyle=orthogonalEdgeStyle;rounded=0;orthogonalLoop=1;jettySize=auto;html=1;exitX=0.5;exitY=1;exitDx=0;exitDy=0;entryX=0.5;entryY=0;entryDx=0;entryDy=0;" parent="1" edge="1">
          <mxGeometry relative="1" as="geometry">
            <mxPoint x="331" y="348" as="sourcePoint" />
            <mxPoint x="330.5" y="368" as="targetPoint" />
          </mxGeometry>
        </mxCell>
        <mxCell id="K5774stSFQ0jFmWjRaQ3-1" value="clear_screen()" style="shape=process;whiteSpace=wrap;html=1;backgroundOutline=1;" parent="1" vertex="1">
          <mxGeometry x="270" y="288" width="120" height="60" as="geometry" />
        </mxCell>
        <mxCell id="O6a55Z9--6ghcSCVjN5X-1" value="PRINT&lt;div&gt;&quot;Restaurant Details&quot;&lt;/div&gt;" style="shape=parallelogram;perimeter=parallelogramPerimeter;whiteSpace=wrap;html=1;fixedSize=1;" parent="1" vertex="1">
          <mxGeometry x="228.5" y="368" width="205" height="60" as="geometry" />
        </mxCell>
        <mxCell id="4lO0qZEtBhO2oGdohG31-2" style="edgeStyle=orthogonalEdgeStyle;rounded=0;orthogonalLoop=1;jettySize=auto;html=1;exitX=0.5;exitY=1;exitDx=0;exitDy=0;entryX=0.5;entryY=1;entryDx=0;entryDy=0;" parent="1" source="4lO0qZEtBhO2oGdohG31-1" target="ql7CWzJJGpKEFdzfzVDt-3" edge="1">
          <mxGeometry relative="1" as="geometry" />
        </mxCell>
        <mxCell id="4lO0qZEtBhO2oGdohG31-1" value="DISPLAY&lt;div&gt;i and line&lt;/div&gt;" style="shape=parallelogram;perimeter=parallelogramPerimeter;whiteSpace=wrap;html=1;fixedSize=1;" parent="1" vertex="1">
          <mxGeometry x="258.5" y="718" width="157.5" height="60" as="geometry" />
        </mxCell>
        <mxCell id="HSPjcGRcXyanLEP2bZyv-1" value="Read&amp;nbsp;&lt;div&gt;ch&lt;/div&gt;" style="shape=parallelogram;perimeter=parallelogramPerimeter;whiteSpace=wrap;html=1;fixedSize=1;" parent="1" vertex="1">
          <mxGeometry x="496.25" y="896" width="157.5" height="40" as="geometry" />
        </mxCell>
        <mxCell id="PkEiSF8MKMLQaYP-K6UT-1" value="PRINT&lt;div&gt;&quot;Successfully Quit&quot;&lt;/div&gt;" style="shape=parallelogram;perimeter=parallelogramPerimeter;whiteSpace=wrap;html=1;fixedSize=1;" parent="1" vertex="1">
          <mxGeometry x="980" y="738" width="145" height="60" as="geometry" />
        </mxCell>
        <mxCell id="PlFTRJRv9IN62184QUOf-1" value="PRINT&lt;div&gt;&quot;Invalid Input! Please try Again!&quot;&lt;/div&gt;" style="shape=parallelogram;perimeter=parallelogramPerimeter;whiteSpace=wrap;html=1;fixedSize=1;" parent="1" vertex="1">
          <mxGeometry x="770" y="848" width="230" height="60" as="geometry" />
        </mxCell>
        <mxCell id="PlFTRJRv9IN62184QUOf-2" value="PRINT&lt;div&gt;&quot;Invalid Input! Please try Again!&quot;&lt;/div&gt;" style="shape=parallelogram;perimeter=parallelogramPerimeter;whiteSpace=wrap;html=1;fixedSize=1;" parent="1" vertex="1">
          <mxGeometry x="595" y="1338" width="230" height="60" as="geometry" />
        </mxCell>
        <mxCell id="24bJMsIbZHKL8V4Ek45Y-2" value="true" style="text;html=1;align=center;verticalAlign=middle;resizable=0;points=[];autosize=1;strokeColor=none;fillColor=none;" parent="1" vertex="1">
          <mxGeometry x="320" y="188" width="40" height="30" as="geometry" />
        </mxCell>
        <mxCell id="qtjjOCtEA6eHz1-91Akj-11" style="edgeStyle=orthogonalEdgeStyle;rounded=0;orthogonalLoop=1;jettySize=auto;html=1;exitX=1;exitY=0.5;exitDx=0;exitDy=0;entryX=1;entryY=0.5;entryDx=0;entryDy=0;" parent="1" source="5piHnjezMMcuTHqB77Nm-2" target="bmjPGpbgoSxlEVjbY4-F-1" edge="1">
          <mxGeometry relative="1" as="geometry">
            <Array as="points">
              <mxPoint x="1160" y="967" />
              <mxPoint x="1160" y="1505" />
            </Array>
          </mxGeometry>
        </mxCell>
        <mxCell id="5piHnjezMMcuTHqB77Nm-2" value="cin.ignore(numeric_limits&amp;lt;streamsize&amp;gt;::max(), &#39;\n&#39;)&lt;div&gt;cin.get()&lt;/div&gt;" style="rounded=0;whiteSpace=wrap;html=1;" parent="1" vertex="1">
          <mxGeometry x="755" y="934" width="275" height="66" as="geometry" />
        </mxCell>
        <mxCell id="5piHnjezMMcuTHqB77Nm-3" style="edgeStyle=orthogonalEdgeStyle;rounded=0;orthogonalLoop=1;jettySize=auto;html=1;exitX=0.5;exitY=1;exitDx=0;exitDy=0;entryX=0.467;entryY=0.051;entryDx=0;entryDy=0;entryPerimeter=0;" parent="1" source="PlFTRJRv9IN62184QUOf-1" target="5piHnjezMMcuTHqB77Nm-2" edge="1">
          <mxGeometry relative="1" as="geometry" />
        </mxCell>
        <mxCell id="qtjjOCtEA6eHz1-91Akj-14" style="edgeStyle=orthogonalEdgeStyle;rounded=0;orthogonalLoop=1;jettySize=auto;html=1;exitX=0.5;exitY=1;exitDx=0;exitDy=0;entryX=0.5;entryY=0;entryDx=0;entryDy=0;" parent="1" source="bmjPGpbgoSxlEVjbY4-F-1" target="qtjjOCtEA6eHz1-91Akj-13" edge="1">
          <mxGeometry relative="1" as="geometry" />
        </mxCell>
        <mxCell id="bmjPGpbgoSxlEVjbY4-F-1" value="" style="ellipse;whiteSpace=wrap;html=1;aspect=fixed;" parent="1" vertex="1">
          <mxGeometry x="453.5" y="1490" width="30" height="30" as="geometry" />
        </mxCell>
        <mxCell id="qtjjOCtEA6eHz1-91Akj-17" style="edgeStyle=orthogonalEdgeStyle;rounded=0;orthogonalLoop=1;jettySize=auto;html=1;exitX=0.5;exitY=1;exitDx=0;exitDy=0;entryX=0.5;entryY=0;entryDx=0;entryDy=0;" parent="1" source="qtjjOCtEA6eHz1-91Akj-13" target="ql7CWzJJGpKEFdzfzVDt-92" edge="1">
          <mxGeometry relative="1" as="geometry" />
        </mxCell>
        <mxCell id="qtjjOCtEA6eHz1-91Akj-13" value="" style="ellipse;whiteSpace=wrap;html=1;aspect=fixed;" parent="1" vertex="1">
          <mxGeometry x="451.25" y="1550" width="30" height="30" as="geometry" />
        </mxCell>
        <mxCell id="qtjjOCtEA6eHz1-91Akj-16" value="false" style="text;html=1;align=center;verticalAlign=middle;resizable=0;points=[];autosize=1;strokeColor=none;fillColor=none;" parent="1" vertex="1">
          <mxGeometry x="486.25" y="188" width="50" height="30" as="geometry" />
        </mxCell>
        <mxCell id="3nwxSU4rH0FLnIn5IbML-1" value="true" style="text;html=1;align=center;verticalAlign=middle;resizable=0;points=[];autosize=1;strokeColor=none;fillColor=none;" vertex="1" parent="1">
          <mxGeometry x="460" y="1118" width="40" height="30" as="geometry" />
        </mxCell>
      </root>
    </mxGraphModel>
  </diagram>
  <diagram id="rI81QtXG8NJ7A3_zGTqU" name="cafe_r()">
    <mxGraphModel dx="2140" dy="717" grid="1" gridSize="10" guides="1" tooltips="1" connect="1" arrows="1" fold="1" page="1" pageScale="1" pageWidth="850" pageHeight="1100" math="0" shadow="0">
      <root>
        <mxCell id="0" />
        <mxCell id="1" parent="0" />
        <mxCell id="zYdmQ36wMeJWl_JqHBU3-1" style="edgeStyle=orthogonalEdgeStyle;rounded=0;orthogonalLoop=1;jettySize=auto;html=1;exitX=0.5;exitY=1;exitDx=0;exitDy=0;entryX=0.5;entryY=0;entryDx=0;entryDy=0;" parent="1" source="zYdmQ36wMeJWl_JqHBU3-2" target="zYdmQ36wMeJWl_JqHBU3-4" edge="1">
          <mxGeometry relative="1" as="geometry" />
        </mxCell>
        <mxCell id="zYdmQ36wMeJWl_JqHBU3-2" value="cafe_r()" style="rounded=1;whiteSpace=wrap;html=1;" parent="1" vertex="1">
          <mxGeometry x="365" y="80" width="120" height="60" as="geometry" />
        </mxCell>
        <mxCell id="h4vBs8fQNBsW38mPwqKE-1" style="edgeStyle=orthogonalEdgeStyle;rounded=0;orthogonalLoop=1;jettySize=auto;html=1;exitX=0;exitY=0.5;exitDx=0;exitDy=0;entryX=0.5;entryY=0;entryDx=0;entryDy=0;" parent="1" source="zYdmQ36wMeJWl_JqHBU3-4" target="zYdmQ36wMeJWl_JqHBU3-6" edge="1">
          <mxGeometry relative="1" as="geometry" />
        </mxCell>
        <mxCell id="dD2bhuuPcfpmtTwa5rBQ-5" style="edgeStyle=orthogonalEdgeStyle;rounded=0;orthogonalLoop=1;jettySize=auto;html=1;exitX=1;exitY=0.5;exitDx=0;exitDy=0;entryX=1;entryY=0.5;entryDx=0;entryDy=0;" parent="1" source="zYdmQ36wMeJWl_JqHBU3-4" target="dD2bhuuPcfpmtTwa5rBQ-1" edge="1">
          <mxGeometry relative="1" as="geometry">
            <Array as="points">
              <mxPoint x="1220" y="200" />
              <mxPoint x="1220" y="1625" />
            </Array>
          </mxGeometry>
        </mxCell>
        <mxCell id="zYdmQ36wMeJWl_JqHBU3-4" value="true" style="rhombus;whiteSpace=wrap;html=1;" parent="1" vertex="1">
          <mxGeometry x="368" y="160" width="115" height="80" as="geometry" />
        </mxCell>
        <mxCell id="zYdmQ36wMeJWl_JqHBU3-5" style="edgeStyle=orthogonalEdgeStyle;rounded=0;orthogonalLoop=1;jettySize=auto;html=1;exitX=0.5;exitY=1;exitDx=0;exitDy=0;entryX=0.5;entryY=0;entryDx=0;entryDy=0;" parent="1" source="zYdmQ36wMeJWl_JqHBU3-6" edge="1">
          <mxGeometry relative="1" as="geometry">
            <mxPoint x="305.5" y="350" as="targetPoint" />
          </mxGeometry>
        </mxCell>
        <mxCell id="zYdmQ36wMeJWl_JqHBU3-6" value="clear_screen()" style="shape=process;whiteSpace=wrap;html=1;backgroundOutline=1;" parent="1" vertex="1">
          <mxGeometry x="245.5" y="270" width="120" height="60" as="geometry" />
        </mxCell>
        <mxCell id="zYdmQ36wMeJWl_JqHBU3-8" style="edgeStyle=orthogonalEdgeStyle;rounded=0;orthogonalLoop=1;jettySize=auto;html=1;exitX=0.5;exitY=1;exitDx=0;exitDy=0;entryX=0.5;entryY=0;entryDx=0;entryDy=0;" parent="1" source="zYdmQ36wMeJWl_JqHBU3-9" target="zYdmQ36wMeJWl_JqHBU3-19" edge="1">
          <mxGeometry relative="1" as="geometry" />
        </mxCell>
        <mxCell id="zYdmQ36wMeJWl_JqHBU3-9" value="ifstream in_file(&quot;restaurant_data.txt&quot;), ios::in)&lt;div&gt;string line&lt;/div&gt;&lt;div&gt;char ch&lt;/div&gt;" style="rounded=0;whiteSpace=wrap;html=1;" parent="1" vertex="1">
          <mxGeometry x="190" y="440" width="250" height="70" as="geometry" />
        </mxCell>
        <mxCell id="zYdmQ36wMeJWl_JqHBU3-10" style="edgeStyle=orthogonalEdgeStyle;rounded=0;orthogonalLoop=1;jettySize=auto;html=1;exitX=0.5;exitY=1;exitDx=0;exitDy=0;" parent="1" source="zYdmQ36wMeJWl_JqHBU3-12" edge="1">
          <mxGeometry relative="1" as="geometry">
            <mxPoint x="315.47619047619037" y="700" as="targetPoint" />
          </mxGeometry>
        </mxCell>
        <mxCell id="zYdmQ36wMeJWl_JqHBU3-11" style="edgeStyle=orthogonalEdgeStyle;rounded=0;orthogonalLoop=1;jettySize=auto;html=1;exitX=1;exitY=0.5;exitDx=0;exitDy=0;entryX=0.5;entryY=0;entryDx=0;entryDy=0;" parent="1" source="zYdmQ36wMeJWl_JqHBU3-12" target="zYdmQ36wMeJWl_JqHBU3-22" edge="1">
          <mxGeometry relative="1" as="geometry" />
        </mxCell>
        <mxCell id="zYdmQ36wMeJWl_JqHBU3-12" value="getline(in_file, line)" style="rhombus;whiteSpace=wrap;html=1;" parent="1" vertex="1">
          <mxGeometry x="239" y="600" width="152" height="80" as="geometry" />
        </mxCell>
        <mxCell id="zYdmQ36wMeJWl_JqHBU3-15" style="edgeStyle=orthogonalEdgeStyle;rounded=0;orthogonalLoop=1;jettySize=auto;html=1;exitX=0.5;exitY=0;exitDx=0;exitDy=0;entryX=0;entryY=0.5;entryDx=0;entryDy=0;" parent="1" source="zYdmQ36wMeJWl_JqHBU3-16" target="zYdmQ36wMeJWl_JqHBU3-19" edge="1">
          <mxGeometry relative="1" as="geometry" />
        </mxCell>
        <mxCell id="zYdmQ36wMeJWl_JqHBU3-16" value="i++" style="rounded=0;whiteSpace=wrap;html=1;" parent="1" vertex="1">
          <mxGeometry x="60" y="625" width="120" height="30" as="geometry" />
        </mxCell>
        <mxCell id="zYdmQ36wMeJWl_JqHBU3-18" style="edgeStyle=orthogonalEdgeStyle;rounded=0;orthogonalLoop=1;jettySize=auto;html=1;exitX=0.5;exitY=1;exitDx=0;exitDy=0;entryX=0.5;entryY=0;entryDx=0;entryDy=0;" parent="1" source="zYdmQ36wMeJWl_JqHBU3-19" target="zYdmQ36wMeJWl_JqHBU3-12" edge="1">
          <mxGeometry relative="1" as="geometry" />
        </mxCell>
        <mxCell id="zYdmQ36wMeJWl_JqHBU3-19" value="int i=1" style="rounded=0;whiteSpace=wrap;html=1;" parent="1" vertex="1">
          <mxGeometry x="255" y="540" width="120" height="30" as="geometry" />
        </mxCell>
        <mxCell id="zYdmQ36wMeJWl_JqHBU3-20" value="true" style="text;html=1;align=center;verticalAlign=middle;resizable=0;points=[];autosize=1;strokeColor=none;fillColor=none;" parent="1" vertex="1">
          <mxGeometry x="320" y="668" width="40" height="30" as="geometry" />
        </mxCell>
        <mxCell id="zYdmQ36wMeJWl_JqHBU3-21" style="edgeStyle=orthogonalEdgeStyle;rounded=0;orthogonalLoop=1;jettySize=auto;html=1;exitX=0.5;exitY=1;exitDx=0;exitDy=0;entryX=0.5;entryY=0;entryDx=0;entryDy=0;" parent="1" source="zYdmQ36wMeJWl_JqHBU3-22" edge="1">
          <mxGeometry relative="1" as="geometry">
            <mxPoint x="550" y="790" as="targetPoint" />
          </mxGeometry>
        </mxCell>
        <mxCell id="zYdmQ36wMeJWl_JqHBU3-22" value="Close File&lt;div&gt;in_file.close()&lt;/div&gt;" style="rounded=0;whiteSpace=wrap;html=1;" parent="1" vertex="1">
          <mxGeometry x="490" y="700" width="120" height="60" as="geometry" />
        </mxCell>
        <mxCell id="zYdmQ36wMeJWl_JqHBU3-23" value="false" style="text;html=1;align=center;verticalAlign=middle;resizable=0;points=[];autosize=1;strokeColor=none;fillColor=none;" parent="1" vertex="1">
          <mxGeometry x="375" y="608" width="50" height="30" as="geometry" />
        </mxCell>
        <mxCell id="zYdmQ36wMeJWl_JqHBU3-26" style="edgeStyle=orthogonalEdgeStyle;rounded=0;orthogonalLoop=1;jettySize=auto;html=1;exitX=0.5;exitY=1;exitDx=0;exitDy=0;entryX=0.5;entryY=0;entryDx=0;entryDy=0;" parent="1" target="zYdmQ36wMeJWl_JqHBU3-30" edge="1">
          <mxGeometry relative="1" as="geometry">
            <mxPoint x="550" y="910" as="sourcePoint" />
          </mxGeometry>
        </mxCell>
        <mxCell id="zYdmQ36wMeJWl_JqHBU3-29" style="edgeStyle=orthogonalEdgeStyle;rounded=0;orthogonalLoop=1;jettySize=auto;html=1;exitX=1;exitY=0.5;exitDx=0;exitDy=0;entryX=0;entryY=0.5;entryDx=0;entryDy=0;" parent="1" source="zYdmQ36wMeJWl_JqHBU3-30" target="zYdmQ36wMeJWl_JqHBU3-80" edge="1">
          <mxGeometry relative="1" as="geometry" />
        </mxCell>
        <mxCell id="h4vBs8fQNBsW38mPwqKE-3" style="edgeStyle=orthogonalEdgeStyle;rounded=0;orthogonalLoop=1;jettySize=auto;html=1;exitX=0;exitY=0.5;exitDx=0;exitDy=0;entryX=0.5;entryY=0;entryDx=0;entryDy=0;" parent="1" source="zYdmQ36wMeJWl_JqHBU3-30" target="zYdmQ36wMeJWl_JqHBU3-38" edge="1">
          <mxGeometry relative="1" as="geometry" />
        </mxCell>
        <mxCell id="zYdmQ36wMeJWl_JqHBU3-30" value="ch&amp;gt;=&#39;1&#39; &amp;amp;&amp;amp; ch&amp;lt;= &#39;7&#39;" style="rhombus;whiteSpace=wrap;html=1;" parent="1" vertex="1">
          <mxGeometry x="485" y="940" width="130" height="80" as="geometry" />
        </mxCell>
        <mxCell id="zYdmQ36wMeJWl_JqHBU3-31" style="edgeStyle=orthogonalEdgeStyle;rounded=0;orthogonalLoop=1;jettySize=auto;html=1;exitX=0.5;exitY=1;exitDx=0;exitDy=0;entryX=0.5;entryY=0;entryDx=0;entryDy=0;" parent="1" source="zYdmQ36wMeJWl_JqHBU3-38" target="zYdmQ36wMeJWl_JqHBU3-40" edge="1">
          <mxGeometry relative="1" as="geometry" />
        </mxCell>
        <mxCell id="zYdmQ36wMeJWl_JqHBU3-32" style="edgeStyle=orthogonalEdgeStyle;rounded=0;orthogonalLoop=1;jettySize=auto;html=1;exitX=0.5;exitY=1;exitDx=0;exitDy=0;" parent="1" source="zYdmQ36wMeJWl_JqHBU3-38" target="zYdmQ36wMeJWl_JqHBU3-44" edge="1">
          <mxGeometry relative="1" as="geometry" />
        </mxCell>
        <mxCell id="zYdmQ36wMeJWl_JqHBU3-33" style="edgeStyle=orthogonalEdgeStyle;rounded=0;orthogonalLoop=1;jettySize=auto;html=1;exitX=0.5;exitY=1;exitDx=0;exitDy=0;entryX=0.5;entryY=0;entryDx=0;entryDy=0;" parent="1" source="zYdmQ36wMeJWl_JqHBU3-38" target="zYdmQ36wMeJWl_JqHBU3-52" edge="1">
          <mxGeometry relative="1" as="geometry">
            <Array as="points">
              <mxPoint x="390" y="1140" />
              <mxPoint x="173" y="1140" />
            </Array>
          </mxGeometry>
        </mxCell>
        <mxCell id="zYdmQ36wMeJWl_JqHBU3-34" style="edgeStyle=orthogonalEdgeStyle;rounded=0;orthogonalLoop=1;jettySize=auto;html=1;exitX=0.5;exitY=1;exitDx=0;exitDy=0;" parent="1" source="zYdmQ36wMeJWl_JqHBU3-38" target="zYdmQ36wMeJWl_JqHBU3-48" edge="1">
          <mxGeometry relative="1" as="geometry" />
        </mxCell>
        <mxCell id="zYdmQ36wMeJWl_JqHBU3-35" style="edgeStyle=orthogonalEdgeStyle;rounded=0;orthogonalLoop=1;jettySize=auto;html=1;exitX=0.5;exitY=1;exitDx=0;exitDy=0;entryX=0.5;entryY=0;entryDx=0;entryDy=0;" parent="1" source="zYdmQ36wMeJWl_JqHBU3-38" target="zYdmQ36wMeJWl_JqHBU3-50" edge="1">
          <mxGeometry relative="1" as="geometry" />
        </mxCell>
        <mxCell id="zYdmQ36wMeJWl_JqHBU3-36" style="edgeStyle=orthogonalEdgeStyle;rounded=0;orthogonalLoop=1;jettySize=auto;html=1;exitX=0.5;exitY=1;exitDx=0;exitDy=0;" parent="1" source="zYdmQ36wMeJWl_JqHBU3-38" edge="1">
          <mxGeometry relative="1" as="geometry">
            <Array as="points">
              <mxPoint x="390" y="1140" />
              <mxPoint x="630" y="1140" />
            </Array>
            <mxPoint x="630.0476190476188" y="1320" as="targetPoint" />
          </mxGeometry>
        </mxCell>
        <mxCell id="zYdmQ36wMeJWl_JqHBU3-38" value="switch(ch)" style="rhombus;whiteSpace=wrap;html=1;" parent="1" vertex="1">
          <mxGeometry x="325" y="1040" width="130" height="80" as="geometry" />
        </mxCell>
        <mxCell id="zYdmQ36wMeJWl_JqHBU3-39" style="edgeStyle=orthogonalEdgeStyle;rounded=0;orthogonalLoop=1;jettySize=auto;html=1;exitX=0.5;exitY=1;exitDx=0;exitDy=0;entryX=0.5;entryY=0;entryDx=0;entryDy=0;" parent="1" source="zYdmQ36wMeJWl_JqHBU3-40" target="zYdmQ36wMeJWl_JqHBU3-59" edge="1">
          <mxGeometry relative="1" as="geometry" />
        </mxCell>
        <mxCell id="zYdmQ36wMeJWl_JqHBU3-40" value="track(&quot;bingxue_review.txt&quot;)" style="shape=process;whiteSpace=wrap;html=1;backgroundOutline=1;" parent="1" vertex="1">
          <mxGeometry x="-260" y="1160" width="200" height="60" as="geometry" />
        </mxCell>
        <mxCell id="zYdmQ36wMeJWl_JqHBU3-41" style="edgeStyle=orthogonalEdgeStyle;rounded=0;orthogonalLoop=1;jettySize=auto;html=1;exitX=0.5;exitY=1;exitDx=0;exitDy=0;entryX=0.5;entryY=0;entryDx=0;entryDy=0;" parent="1" source="zYdmQ36wMeJWl_JqHBU3-42" target="zYdmQ36wMeJWl_JqHBU3-62" edge="1">
          <mxGeometry relative="1" as="geometry" />
        </mxCell>
        <mxCell id="zYdmQ36wMeJWl_JqHBU3-42" value="track(&quot;blackboard_review.txt&quot;)" style="shape=process;whiteSpace=wrap;html=1;backgroundOutline=1;" parent="1" vertex="1">
          <mxGeometry x="-40" y="1160" width="200" height="60" as="geometry" />
        </mxCell>
        <mxCell id="zYdmQ36wMeJWl_JqHBU3-43" style="edgeStyle=orthogonalEdgeStyle;rounded=0;orthogonalLoop=1;jettySize=auto;html=1;exitX=0.5;exitY=1;exitDx=0;exitDy=0;entryX=0.5;entryY=0;entryDx=0;entryDy=0;" parent="1" source="zYdmQ36wMeJWl_JqHBU3-44" target="zYdmQ36wMeJWl_JqHBU3-61" edge="1">
          <mxGeometry relative="1" as="geometry" />
        </mxCell>
        <mxCell id="zYdmQ36wMeJWl_JqHBU3-44" value="track(&quot;mixue_review.txt&quot;)" style="shape=process;whiteSpace=wrap;html=1;backgroundOutline=1;" parent="1" vertex="1">
          <mxGeometry x="180" y="1160" width="200" height="60" as="geometry" />
        </mxCell>
        <mxCell id="zYdmQ36wMeJWl_JqHBU3-45" style="edgeStyle=orthogonalEdgeStyle;rounded=0;orthogonalLoop=1;jettySize=auto;html=1;exitX=0.5;exitY=1;exitDx=0;exitDy=0;entryX=0.5;entryY=0;entryDx=0;entryDy=0;" parent="1" source="zYdmQ36wMeJWl_JqHBU3-46" target="zYdmQ36wMeJWl_JqHBU3-60" edge="1">
          <mxGeometry relative="1" as="geometry" />
        </mxCell>
        <mxCell id="zYdmQ36wMeJWl_JqHBU3-46" value="track(&quot;secret_review.txt&quot;)" style="shape=process;whiteSpace=wrap;html=1;backgroundOutline=1;" parent="1" vertex="1">
          <mxGeometry x="400" y="1160" width="220" height="60" as="geometry" />
        </mxCell>
        <mxCell id="zYdmQ36wMeJWl_JqHBU3-47" style="edgeStyle=orthogonalEdgeStyle;rounded=0;orthogonalLoop=1;jettySize=auto;html=1;exitX=0.5;exitY=1;exitDx=0;exitDy=0;entryX=0.5;entryY=0;entryDx=0;entryDy=0;" parent="1" source="zYdmQ36wMeJWl_JqHBU3-48" target="zYdmQ36wMeJWl_JqHBU3-65" edge="1">
          <mxGeometry relative="1" as="geometry" />
        </mxCell>
        <mxCell id="zYdmQ36wMeJWl_JqHBU3-48" value="track(&quot;snowy&lt;span style=&quot;color: rgba(0, 0, 0, 0); font-family: monospace; font-size: 0px; text-align: start; text-wrap-mode: nowrap;&quot;&gt;%3CmxGraphModel%3E%3Croot%3E%3CmxCell%20id%3D%220%22%2F%3E%3CmxCell%20id%3D%221%22%20parent%3D%220%22%2F%3E%3CmxCell%20id%3D%222%22%20value%3D%22track(%26quot%3Bhappy_thai_review.txt%26quot%3B)%22%20style%3D%22shape%3Dprocess%3BwhiteSpace%3Dwrap%3Bhtml%3D1%3BbackgroundOutline%3D1%3B%22%20vertex%3D%221%22%20parent%3D%221%22%3E%3CmxGeometry%20x%3D%22660%22%20y%3D%221270%22%20width%3D%22220%22%20height%3D%2260%22%20as%3D%22geometry%22%2F%3E%3C%2FmxCell%3E%3C%2Froot%3E%3C%2FmxGraphModel%3E&lt;/span&gt;_review.txt&quot;)" style="shape=process;whiteSpace=wrap;html=1;backgroundOutline=1;" parent="1" vertex="1">
          <mxGeometry x="640" y="1160" width="220" height="60" as="geometry" />
        </mxCell>
        <mxCell id="zYdmQ36wMeJWl_JqHBU3-49" style="edgeStyle=orthogonalEdgeStyle;rounded=0;orthogonalLoop=1;jettySize=auto;html=1;exitX=0.5;exitY=1;exitDx=0;exitDy=0;entryX=0.5;entryY=0;entryDx=0;entryDy=0;" parent="1" source="zYdmQ36wMeJWl_JqHBU3-50" target="zYdmQ36wMeJWl_JqHBU3-64" edge="1">
          <mxGeometry relative="1" as="geometry" />
        </mxCell>
        <mxCell id="zYdmQ36wMeJWl_JqHBU3-50" value="track(&quot;zaba&lt;span style=&quot;color: rgba(0, 0, 0, 0); font-family: monospace; font-size: 0px; text-align: start; text-wrap-mode: nowrap;&quot;&gt;%3CmxGraphModel%3E%3Croot%3E%3CmxCell%20id%3D%220%22%2F%3E%3CmxCell%20id%3D%221%22%20parent%3D%220%22%2F%3E%3CmxCell%20id%3D%222%22%20value%3D%22track(%26quot%3Bhappy_thai_review.txt%26quot%3B)%22%20style%3D%22shape%3Dprocess%3BwhiteSpace%3Dwrap%3Bhtml%3D1%3BbackgroundOutline%3D1%3B%22%20vertex%3D%221%22%20parent%3D%221%22%3E%3CmxGeometry%20x%3D%22660%22%20y%3D%221270%22%20width%3D%22220%22%20height%3D%2260%22%20as%3D%22geometry%22%2F%3E%3C%2FmxCell%3E%3C%2Froot%3E%3C%2FmxGraphModel%3E&lt;/span&gt;_review.txt&quot;)" style="shape=process;whiteSpace=wrap;html=1;backgroundOutline=1;" parent="1" vertex="1">
          <mxGeometry x="870" y="1160" width="220" height="60" as="geometry" />
        </mxCell>
        <mxCell id="zYdmQ36wMeJWl_JqHBU3-51" style="edgeStyle=orthogonalEdgeStyle;rounded=0;orthogonalLoop=1;jettySize=auto;html=1;exitX=0.5;exitY=1;exitDx=0;exitDy=0;entryX=0.5;entryY=0;entryDx=0;entryDy=0;" parent="1" source="zYdmQ36wMeJWl_JqHBU3-52" target="zYdmQ36wMeJWl_JqHBU3-63" edge="1">
          <mxGeometry relative="1" as="geometry" />
        </mxCell>
        <mxCell id="zYdmQ36wMeJWl_JqHBU3-52" value="track(&quot;zus&lt;span style=&quot;color: rgba(0, 0, 0, 0); font-family: monospace; font-size: 0px; text-align: start; text-wrap-mode: nowrap;&quot;&gt;%3CmxGraphModel%3E%3Croot%3E%3CmxCell%20id%3D%220%22%2F%3E%3CmxCell%20id%3D%221%22%20parent%3D%220%22%2F%3E%3CmxCell%20id%3D%222%22%20value%3D%22track(%26quot%3Bhappy_thai_review.txt%26quot%3B)%22%20style%3D%22shape%3Dprocess%3BwhiteSpace%3Dwrap%3Bhtml%3D1%3BbackgroundOutline%3D1%3B%22%20vertex%3D%221%22%20parent%3D%221%22%3E%3CmxGeometry%20x%3D%22660%22%20y%3D%221270%22%20width%3D%22220%22%20height%3D%2260%22%20as%3D%22geometry%22%2F%3E%3C%2FmxCell%3E%3C%2Froot%3E%3C%2FmxGraphModel%3E&lt;/span&gt;_review.txt&quot;)" style="shape=process;whiteSpace=wrap;html=1;backgroundOutline=1;" parent="1" vertex="1">
          <mxGeometry x="62.5" y="1320" width="220" height="60" as="geometry" />
        </mxCell>
        <mxCell id="zYdmQ36wMeJWl_JqHBU3-57" style="edgeStyle=orthogonalEdgeStyle;rounded=0;orthogonalLoop=1;jettySize=auto;html=1;exitX=0.5;exitY=1;exitDx=0;exitDy=0;entryX=0.616;entryY=0.013;entryDx=0;entryDy=0;entryPerimeter=0;" parent="1" source="zYdmQ36wMeJWl_JqHBU3-38" target="zYdmQ36wMeJWl_JqHBU3-42" edge="1">
          <mxGeometry relative="1" as="geometry" />
        </mxCell>
        <mxCell id="zYdmQ36wMeJWl_JqHBU3-58" style="edgeStyle=orthogonalEdgeStyle;rounded=0;orthogonalLoop=1;jettySize=auto;html=1;exitX=0.5;exitY=1;exitDx=0;exitDy=0;entryX=0.54;entryY=0.079;entryDx=0;entryDy=0;entryPerimeter=0;" parent="1" source="zYdmQ36wMeJWl_JqHBU3-38" target="zYdmQ36wMeJWl_JqHBU3-46" edge="1">
          <mxGeometry relative="1" as="geometry" />
        </mxCell>
        <mxCell id="hZtsCGlgcbPB9vxBS3Bp-2" style="edgeStyle=orthogonalEdgeStyle;rounded=0;orthogonalLoop=1;jettySize=auto;html=1;exitX=0.5;exitY=1;exitDx=0;exitDy=0;entryX=0;entryY=0.5;entryDx=0;entryDy=0;" parent="1" source="zYdmQ36wMeJWl_JqHBU3-59" target="hZtsCGlgcbPB9vxBS3Bp-1" edge="1">
          <mxGeometry relative="1" as="geometry" />
        </mxCell>
        <mxCell id="zYdmQ36wMeJWl_JqHBU3-59" value="break" style="rounded=0;whiteSpace=wrap;html=1;" parent="1" vertex="1">
          <mxGeometry x="-230" y="1240" width="140" height="30" as="geometry" />
        </mxCell>
        <mxCell id="hZtsCGlgcbPB9vxBS3Bp-7" style="edgeStyle=orthogonalEdgeStyle;rounded=0;orthogonalLoop=1;jettySize=auto;html=1;exitX=0.5;exitY=1;exitDx=0;exitDy=0;entryX=1;entryY=0.5;entryDx=0;entryDy=0;" parent="1" source="zYdmQ36wMeJWl_JqHBU3-60" target="hZtsCGlgcbPB9vxBS3Bp-1" edge="1">
          <mxGeometry relative="1" as="geometry">
            <Array as="points">
              <mxPoint x="540" y="1270" />
              <mxPoint x="540" y="1575" />
            </Array>
          </mxGeometry>
        </mxCell>
        <mxCell id="zYdmQ36wMeJWl_JqHBU3-60" value="break" style="rounded=0;whiteSpace=wrap;html=1;" parent="1" vertex="1">
          <mxGeometry x="430" y="1240" width="140" height="30" as="geometry" />
        </mxCell>
        <mxCell id="hZtsCGlgcbPB9vxBS3Bp-5" style="edgeStyle=orthogonalEdgeStyle;rounded=0;orthogonalLoop=1;jettySize=auto;html=1;exitX=0.5;exitY=1;exitDx=0;exitDy=0;entryX=0;entryY=0.5;entryDx=0;entryDy=0;" parent="1" source="zYdmQ36wMeJWl_JqHBU3-61" target="hZtsCGlgcbPB9vxBS3Bp-1" edge="1">
          <mxGeometry relative="1" as="geometry">
            <Array as="points">
              <mxPoint x="300" y="1270" />
              <mxPoint x="300" y="1575" />
            </Array>
          </mxGeometry>
        </mxCell>
        <mxCell id="zYdmQ36wMeJWl_JqHBU3-61" value="break" style="rounded=0;whiteSpace=wrap;html=1;" parent="1" vertex="1">
          <mxGeometry x="215" y="1240" width="140" height="30" as="geometry" />
        </mxCell>
        <mxCell id="hZtsCGlgcbPB9vxBS3Bp-3" style="edgeStyle=orthogonalEdgeStyle;rounded=0;orthogonalLoop=1;jettySize=auto;html=1;exitX=0.5;exitY=1;exitDx=0;exitDy=0;entryX=0;entryY=0.5;entryDx=0;entryDy=0;" parent="1" source="zYdmQ36wMeJWl_JqHBU3-62" target="hZtsCGlgcbPB9vxBS3Bp-1" edge="1">
          <mxGeometry relative="1" as="geometry">
            <Array as="points">
              <mxPoint x="30" y="1270" />
              <mxPoint x="30" y="1575" />
            </Array>
          </mxGeometry>
        </mxCell>
        <mxCell id="zYdmQ36wMeJWl_JqHBU3-62" value="break" style="rounded=0;whiteSpace=wrap;html=1;" parent="1" vertex="1">
          <mxGeometry x="-10" y="1240" width="140" height="30" as="geometry" />
        </mxCell>
        <mxCell id="hZtsCGlgcbPB9vxBS3Bp-4" style="edgeStyle=orthogonalEdgeStyle;rounded=0;orthogonalLoop=1;jettySize=auto;html=1;exitX=0.5;exitY=1;exitDx=0;exitDy=0;entryX=0;entryY=0.5;entryDx=0;entryDy=0;" parent="1" source="zYdmQ36wMeJWl_JqHBU3-63" target="hZtsCGlgcbPB9vxBS3Bp-1" edge="1">
          <mxGeometry relative="1" as="geometry" />
        </mxCell>
        <mxCell id="zYdmQ36wMeJWl_JqHBU3-63" value="break" style="rounded=0;whiteSpace=wrap;html=1;" parent="1" vertex="1">
          <mxGeometry x="102.5" y="1400" width="140" height="30" as="geometry" />
        </mxCell>
        <mxCell id="hZtsCGlgcbPB9vxBS3Bp-10" style="edgeStyle=orthogonalEdgeStyle;rounded=0;orthogonalLoop=1;jettySize=auto;html=1;exitX=0.5;exitY=1;exitDx=0;exitDy=0;entryX=1;entryY=0.5;entryDx=0;entryDy=0;" parent="1" source="zYdmQ36wMeJWl_JqHBU3-64" target="hZtsCGlgcbPB9vxBS3Bp-1" edge="1">
          <mxGeometry relative="1" as="geometry" />
        </mxCell>
        <mxCell id="zYdmQ36wMeJWl_JqHBU3-64" value="break" style="rounded=0;whiteSpace=wrap;html=1;" parent="1" vertex="1">
          <mxGeometry x="910" y="1240" width="140" height="30" as="geometry" />
        </mxCell>
        <mxCell id="hZtsCGlgcbPB9vxBS3Bp-9" style="edgeStyle=orthogonalEdgeStyle;rounded=0;orthogonalLoop=1;jettySize=auto;html=1;exitX=0.75;exitY=1;exitDx=0;exitDy=0;entryX=1;entryY=0.5;entryDx=0;entryDy=0;" parent="1" source="zYdmQ36wMeJWl_JqHBU3-65" target="hZtsCGlgcbPB9vxBS3Bp-1" edge="1">
          <mxGeometry relative="1" as="geometry" />
        </mxCell>
        <mxCell id="zYdmQ36wMeJWl_JqHBU3-65" value="break" style="rounded=0;whiteSpace=wrap;html=1;" parent="1" vertex="1">
          <mxGeometry x="680" y="1240" width="140" height="30" as="geometry" />
        </mxCell>
        <mxCell id="hZtsCGlgcbPB9vxBS3Bp-8" style="edgeStyle=orthogonalEdgeStyle;rounded=0;orthogonalLoop=1;jettySize=auto;html=1;exitX=0.5;exitY=1;exitDx=0;exitDy=0;entryX=1;entryY=0.5;entryDx=0;entryDy=0;" parent="1" source="zYdmQ36wMeJWl_JqHBU3-66" target="hZtsCGlgcbPB9vxBS3Bp-1" edge="1">
          <mxGeometry relative="1" as="geometry" />
        </mxCell>
        <mxCell id="zYdmQ36wMeJWl_JqHBU3-66" value="break" style="rounded=0;whiteSpace=wrap;html=1;" parent="1" vertex="1">
          <mxGeometry x="600" y="1400" width="140" height="30" as="geometry" />
        </mxCell>
        <mxCell id="zYdmQ36wMeJWl_JqHBU3-68" value="1" style="text;html=1;align=center;verticalAlign=middle;resizable=0;points=[];autosize=1;strokeColor=none;fillColor=none;" parent="1" vertex="1">
          <mxGeometry x="-195" y="1120" width="30" height="30" as="geometry" />
        </mxCell>
        <mxCell id="zYdmQ36wMeJWl_JqHBU3-69" value="2" style="text;html=1;align=center;verticalAlign=middle;resizable=0;points=[];autosize=1;strokeColor=none;fillColor=none;" parent="1" vertex="1">
          <mxGeometry x="55" y="1108" width="30" height="30" as="geometry" />
        </mxCell>
        <mxCell id="zYdmQ36wMeJWl_JqHBU3-70" value="3" style="text;html=1;align=center;verticalAlign=middle;resizable=0;points=[];autosize=1;strokeColor=none;fillColor=none;" parent="1" vertex="1">
          <mxGeometry x="245" y="1108" width="30" height="30" as="geometry" />
        </mxCell>
        <mxCell id="zYdmQ36wMeJWl_JqHBU3-71" value="4" style="text;html=1;align=center;verticalAlign=middle;resizable=0;points=[];autosize=1;strokeColor=none;fillColor=none;" parent="1" vertex="1">
          <mxGeometry x="535" y="1108" width="30" height="30" as="geometry" />
        </mxCell>
        <mxCell id="zYdmQ36wMeJWl_JqHBU3-72" value="5" style="text;html=1;align=center;verticalAlign=middle;resizable=0;points=[];autosize=1;strokeColor=none;fillColor=none;" parent="1" vertex="1">
          <mxGeometry x="755" y="1108" width="30" height="30" as="geometry" />
        </mxCell>
        <mxCell id="zYdmQ36wMeJWl_JqHBU3-73" value="6" style="text;html=1;align=center;verticalAlign=middle;resizable=0;points=[];autosize=1;strokeColor=none;fillColor=none;" parent="1" vertex="1">
          <mxGeometry x="985" y="1118" width="30" height="30" as="geometry" />
        </mxCell>
        <mxCell id="zYdmQ36wMeJWl_JqHBU3-74" value="7" style="text;html=1;align=center;verticalAlign=middle;resizable=0;points=[];autosize=1;strokeColor=none;fillColor=none;" parent="1" vertex="1">
          <mxGeometry x="135" y="1288" width="30" height="30" as="geometry" />
        </mxCell>
        <mxCell id="zYdmQ36wMeJWl_JqHBU3-76" value="default" style="text;html=1;align=center;verticalAlign=middle;resizable=0;points=[];autosize=1;strokeColor=none;fillColor=none;" parent="1" vertex="1">
          <mxGeometry x="640" y="1290" width="60" height="30" as="geometry" />
        </mxCell>
        <mxCell id="zYdmQ36wMeJWl_JqHBU3-77" value="true" style="text;html=1;align=center;verticalAlign=middle;resizable=0;points=[];autosize=1;strokeColor=none;fillColor=none;" parent="1" vertex="1">
          <mxGeometry x="431.25" y="940" width="40" height="30" as="geometry" />
        </mxCell>
        <mxCell id="zYdmQ36wMeJWl_JqHBU3-78" style="edgeStyle=orthogonalEdgeStyle;rounded=0;orthogonalLoop=1;jettySize=auto;html=1;exitX=1;exitY=0.5;exitDx=0;exitDy=0;entryX=0;entryY=0.5;entryDx=0;entryDy=0;" parent="1" source="zYdmQ36wMeJWl_JqHBU3-80" edge="1">
          <mxGeometry relative="1" as="geometry">
            <mxPoint x="987.5" y="750" as="targetPoint" />
          </mxGeometry>
        </mxCell>
        <mxCell id="zYdmQ36wMeJWl_JqHBU3-79" style="edgeStyle=orthogonalEdgeStyle;rounded=0;orthogonalLoop=1;jettySize=auto;html=1;exitX=0.5;exitY=1;exitDx=0;exitDy=0;entryX=0.5;entryY=0;entryDx=0;entryDy=0;" parent="1" source="zYdmQ36wMeJWl_JqHBU3-80" edge="1">
          <mxGeometry relative="1" as="geometry">
            <mxPoint x="872.5" y="830" as="targetPoint" />
          </mxGeometry>
        </mxCell>
        <mxCell id="zYdmQ36wMeJWl_JqHBU3-80" value="ch&amp;gt;=&#39;q&#39; &amp;amp;&amp;amp; ch&amp;lt;= &#39;q&#39;" style="rhombus;whiteSpace=wrap;html=1;" parent="1" vertex="1">
          <mxGeometry x="807.5" y="710" width="130" height="80" as="geometry" />
        </mxCell>
        <mxCell id="zYdmQ36wMeJWl_JqHBU3-81" value="false" style="text;html=1;align=center;verticalAlign=middle;resizable=0;points=[];autosize=1;strokeColor=none;fillColor=none;" parent="1" vertex="1">
          <mxGeometry x="600" y="940" width="50" height="30" as="geometry" />
        </mxCell>
        <mxCell id="zYdmQ36wMeJWl_JqHBU3-84" value="break" style="rounded=0;whiteSpace=wrap;html=1;" parent="1" vertex="1">
          <mxGeometry x="1167.5" y="735" width="140" height="30" as="geometry" />
        </mxCell>
        <mxCell id="zYdmQ36wMeJWl_JqHBU3-85" value="true" style="text;html=1;align=center;verticalAlign=middle;resizable=0;points=[];autosize=1;strokeColor=none;fillColor=none;" parent="1" vertex="1">
          <mxGeometry x="927.5" y="718" width="40" height="30" as="geometry" />
        </mxCell>
        <mxCell id="zYdmQ36wMeJWl_JqHBU3-86" value="false" style="text;html=1;align=center;verticalAlign=middle;resizable=0;points=[];autosize=1;strokeColor=none;fillColor=none;" parent="1" vertex="1">
          <mxGeometry x="872.5" y="798" width="50" height="30" as="geometry" />
        </mxCell>
        <mxCell id="cYvbfbbgzTs432W0VQAB-1" value="/* cafe_r() */" style="text;html=1;align=center;verticalAlign=middle;resizable=0;points=[];autosize=1;strokeColor=none;fillColor=none;" parent="1" vertex="1">
          <mxGeometry x="195" y="68" width="90" height="30" as="geometry" />
        </mxCell>
        <mxCell id="TL5Q0x0LolVLvRgJrHvx-2" style="edgeStyle=orthogonalEdgeStyle;rounded=0;orthogonalLoop=1;jettySize=auto;html=1;exitX=0.5;exitY=1;exitDx=0;exitDy=0;entryX=0.5;entryY=0;entryDx=0;entryDy=0;" parent="1" source="TL5Q0x0LolVLvRgJrHvx-1" target="zYdmQ36wMeJWl_JqHBU3-9" edge="1">
          <mxGeometry relative="1" as="geometry" />
        </mxCell>
        <mxCell id="TL5Q0x0LolVLvRgJrHvx-1" value="PRINT&lt;div&gt;&quot;Cafe Details&quot;&lt;/div&gt;" style="shape=parallelogram;perimeter=parallelogramPerimeter;whiteSpace=wrap;html=1;fixedSize=1;" parent="1" vertex="1">
          <mxGeometry x="190" y="350" width="249" height="50" as="geometry" />
        </mxCell>
        <mxCell id="TL5Q0x0LolVLvRgJrHvx-4" style="edgeStyle=orthogonalEdgeStyle;rounded=0;orthogonalLoop=1;jettySize=auto;html=1;exitX=0.5;exitY=1;exitDx=0;exitDy=0;entryX=0.5;entryY=1;entryDx=0;entryDy=0;" parent="1" source="TL5Q0x0LolVLvRgJrHvx-3" target="zYdmQ36wMeJWl_JqHBU3-16" edge="1">
          <mxGeometry relative="1" as="geometry" />
        </mxCell>
        <mxCell id="TL5Q0x0LolVLvRgJrHvx-3" value="DISPLAY&lt;div&gt;i and line&lt;/div&gt;" style="shape=parallelogram;perimeter=parallelogramPerimeter;whiteSpace=wrap;html=1;fixedSize=1;" parent="1" vertex="1">
          <mxGeometry x="238" y="700" width="154" height="50" as="geometry" />
        </mxCell>
        <mxCell id="TL5Q0x0LolVLvRgJrHvx-6" style="edgeStyle=orthogonalEdgeStyle;rounded=0;orthogonalLoop=1;jettySize=auto;html=1;exitX=0.5;exitY=1;exitDx=0;exitDy=0;entryX=0.5;entryY=0;entryDx=0;entryDy=0;" parent="1" source="TL5Q0x0LolVLvRgJrHvx-5" edge="1">
          <mxGeometry relative="1" as="geometry">
            <mxPoint x="550" y="870" as="targetPoint" />
          </mxGeometry>
        </mxCell>
        <mxCell id="TL5Q0x0LolVLvRgJrHvx-5" value="PRINT&lt;div&gt;&quot;Enter Number of Cafe&amp;nbsp; &amp;lt;Q&amp;gt;uit&quot;&lt;/div&gt;" style="shape=parallelogram;perimeter=parallelogramPerimeter;whiteSpace=wrap;html=1;fixedSize=1;" parent="1" vertex="1">
          <mxGeometry x="425.5" y="790" width="249" height="50" as="geometry" />
        </mxCell>
        <mxCell id="TL5Q0x0LolVLvRgJrHvx-8" value="Read&amp;nbsp;&lt;div&gt;ch&lt;/div&gt;" style="shape=parallelogram;perimeter=parallelogramPerimeter;whiteSpace=wrap;html=1;fixedSize=1;" parent="1" vertex="1">
          <mxGeometry x="479" y="868" width="142" height="50" as="geometry" />
        </mxCell>
        <mxCell id="TL5Q0x0LolVLvRgJrHvx-9" value="PRINT&lt;div&gt;&quot;Invalid Input! Please try Again!&quot;&lt;/div&gt;" style="shape=parallelogram;perimeter=parallelogramPerimeter;whiteSpace=wrap;html=1;fixedSize=1;" parent="1" vertex="1">
          <mxGeometry x="777.5" y="828" width="210" height="50" as="geometry" />
        </mxCell>
        <mxCell id="TL5Q0x0LolVLvRgJrHvx-12" style="edgeStyle=orthogonalEdgeStyle;rounded=0;orthogonalLoop=1;jettySize=auto;html=1;exitX=1;exitY=0.5;exitDx=0;exitDy=0;entryX=0;entryY=0.5;entryDx=0;entryDy=0;" parent="1" source="TL5Q0x0LolVLvRgJrHvx-11" target="zYdmQ36wMeJWl_JqHBU3-84" edge="1">
          <mxGeometry relative="1" as="geometry" />
        </mxCell>
        <mxCell id="TL5Q0x0LolVLvRgJrHvx-11" value="PRINT&lt;div&gt;&quot;Successfully Quit&quot;&lt;/div&gt;" style="shape=parallelogram;perimeter=parallelogramPerimeter;whiteSpace=wrap;html=1;fixedSize=1;" parent="1" vertex="1">
          <mxGeometry x="977.5" y="725" width="150" height="50" as="geometry" />
        </mxCell>
        <mxCell id="TL5Q0x0LolVLvRgJrHvx-14" value="PRINT&lt;div&gt;&quot;Invalid Input! Please Try Again!&quot;&lt;/div&gt;" style="shape=parallelogram;perimeter=parallelogramPerimeter;whiteSpace=wrap;html=1;fixedSize=1;" parent="1" vertex="1">
          <mxGeometry x="550" y="1318" width="210" height="50" as="geometry" />
        </mxCell>
        <mxCell id="TL5Q0x0LolVLvRgJrHvx-15" style="edgeStyle=orthogonalEdgeStyle;rounded=0;orthogonalLoop=1;jettySize=auto;html=1;exitX=0.5;exitY=1;exitDx=0;exitDy=0;entryX=0.4;entryY=-0.021;entryDx=0;entryDy=0;entryPerimeter=0;" parent="1" source="TL5Q0x0LolVLvRgJrHvx-14" target="zYdmQ36wMeJWl_JqHBU3-66" edge="1">
          <mxGeometry relative="1" as="geometry" />
        </mxCell>
        <mxCell id="h4vBs8fQNBsW38mPwqKE-2" value="true" style="text;html=1;align=center;verticalAlign=middle;resizable=0;points=[];autosize=1;strokeColor=none;fillColor=none;" parent="1" vertex="1">
          <mxGeometry x="330" y="168" width="40" height="30" as="geometry" />
        </mxCell>
        <mxCell id="hZtsCGlgcbPB9vxBS3Bp-14" style="edgeStyle=orthogonalEdgeStyle;rounded=0;orthogonalLoop=1;jettySize=auto;html=1;exitX=1;exitY=0.5;exitDx=0;exitDy=0;entryX=1;entryY=0.5;entryDx=0;entryDy=0;" parent="1" source="PyiT6oTXV-3j3I7xoZK9-1" target="hZtsCGlgcbPB9vxBS3Bp-1" edge="1">
          <mxGeometry relative="1" as="geometry">
            <Array as="points">
              <mxPoint x="1150" y="955" />
              <mxPoint x="1150" y="1575" />
            </Array>
          </mxGeometry>
        </mxCell>
        <mxCell id="PyiT6oTXV-3j3I7xoZK9-1" value="cin.ignore(numeric_limits&amp;lt;streamsize&amp;gt;::max(), &#39;\n&#39;)&lt;div&gt;cin.get()&lt;/div&gt;" style="rounded=0;whiteSpace=wrap;html=1;" parent="1" vertex="1">
          <mxGeometry x="760" y="920" width="275" height="70" as="geometry" />
        </mxCell>
        <mxCell id="PyiT6oTXV-3j3I7xoZK9-3" style="edgeStyle=orthogonalEdgeStyle;rounded=0;orthogonalLoop=1;jettySize=auto;html=1;exitX=0.5;exitY=1;exitDx=0;exitDy=0;entryX=0.447;entryY=0.038;entryDx=0;entryDy=0;entryPerimeter=0;" parent="1" source="TL5Q0x0LolVLvRgJrHvx-9" target="PyiT6oTXV-3j3I7xoZK9-1" edge="1">
          <mxGeometry relative="1" as="geometry" />
        </mxCell>
        <mxCell id="dD2bhuuPcfpmtTwa5rBQ-3" style="edgeStyle=orthogonalEdgeStyle;rounded=0;orthogonalLoop=1;jettySize=auto;html=1;exitX=0.5;exitY=1;exitDx=0;exitDy=0;entryX=0.5;entryY=0;entryDx=0;entryDy=0;" parent="1" source="hZtsCGlgcbPB9vxBS3Bp-1" target="dD2bhuuPcfpmtTwa5rBQ-1" edge="1">
          <mxGeometry relative="1" as="geometry" />
        </mxCell>
        <mxCell id="hZtsCGlgcbPB9vxBS3Bp-1" value="" style="ellipse;whiteSpace=wrap;html=1;aspect=fixed;" parent="1" vertex="1">
          <mxGeometry x="406.25" y="1560" width="30" height="30" as="geometry" />
        </mxCell>
        <mxCell id="hZtsCGlgcbPB9vxBS3Bp-12" value="RETURN" style="rounded=1;whiteSpace=wrap;html=1;" parent="1" vertex="1">
          <mxGeometry x="361.25" y="1660" width="120" height="60" as="geometry" />
        </mxCell>
        <mxCell id="dD2bhuuPcfpmtTwa5rBQ-4" style="edgeStyle=orthogonalEdgeStyle;rounded=0;orthogonalLoop=1;jettySize=auto;html=1;exitX=0.5;exitY=1;exitDx=0;exitDy=0;entryX=0.5;entryY=0;entryDx=0;entryDy=0;" parent="1" source="dD2bhuuPcfpmtTwa5rBQ-1" target="hZtsCGlgcbPB9vxBS3Bp-12" edge="1">
          <mxGeometry relative="1" as="geometry" />
        </mxCell>
        <mxCell id="dD2bhuuPcfpmtTwa5rBQ-1" value="" style="ellipse;whiteSpace=wrap;html=1;aspect=fixed;" parent="1" vertex="1">
          <mxGeometry x="406.25" y="1610" width="30" height="30" as="geometry" />
        </mxCell>
        <mxCell id="dD2bhuuPcfpmtTwa5rBQ-6" value="false" style="text;html=1;align=center;verticalAlign=middle;resizable=0;points=[];autosize=1;strokeColor=none;fillColor=none;" parent="1" vertex="1">
          <mxGeometry x="485" y="168" width="50" height="30" as="geometry" />
        </mxCell>
        <mxCell id="yupAXUfJuJnZN_89iAxA-2" value="true" style="text;html=1;align=center;verticalAlign=middle;resizable=0;points=[];autosize=1;strokeColor=none;fillColor=none;" vertex="1" parent="1">
          <mxGeometry x="400" y="1108" width="40" height="30" as="geometry" />
        </mxCell>
      </root>
    </mxGraphModel>
  </diagram>
  <diagram id="S6V5-p8SlBipp9lhsQUJ" name="fast_food_r()">
    <mxGraphModel dx="2140" dy="717" grid="1" gridSize="10" guides="1" tooltips="1" connect="1" arrows="1" fold="1" page="1" pageScale="1" pageWidth="850" pageHeight="1100" math="0" shadow="0">
      <root>
        <mxCell id="0" />
        <mxCell id="1" parent="0" />
        <mxCell id="0DG_E7yoXiqU4BtEt_9j-1" style="edgeStyle=orthogonalEdgeStyle;rounded=0;orthogonalLoop=1;jettySize=auto;html=1;exitX=0.5;exitY=1;exitDx=0;exitDy=0;entryX=0.5;entryY=0;entryDx=0;entryDy=0;" parent="1" source="0DG_E7yoXiqU4BtEt_9j-2" target="0DG_E7yoXiqU4BtEt_9j-4" edge="1">
          <mxGeometry relative="1" as="geometry" />
        </mxCell>
        <mxCell id="0DG_E7yoXiqU4BtEt_9j-2" value="fast_food_r()" style="rounded=1;whiteSpace=wrap;html=1;" parent="1" vertex="1">
          <mxGeometry x="365" y="80" width="120" height="60" as="geometry" />
        </mxCell>
        <mxCell id="tuk2URgR8Qku8kVz5x8t-1" style="edgeStyle=orthogonalEdgeStyle;rounded=0;orthogonalLoop=1;jettySize=auto;html=1;exitX=0;exitY=0.5;exitDx=0;exitDy=0;entryX=0.5;entryY=0;entryDx=0;entryDy=0;" parent="1" source="0DG_E7yoXiqU4BtEt_9j-4" target="0DG_E7yoXiqU4BtEt_9j-6" edge="1">
          <mxGeometry relative="1" as="geometry" />
        </mxCell>
        <mxCell id="TNYMd-wqiGcsZGEqVAzT-4" style="edgeStyle=orthogonalEdgeStyle;rounded=0;orthogonalLoop=1;jettySize=auto;html=1;exitX=1;exitY=0.5;exitDx=0;exitDy=0;entryX=1;entryY=0.5;entryDx=0;entryDy=0;" parent="1" source="0DG_E7yoXiqU4BtEt_9j-4" target="TNYMd-wqiGcsZGEqVAzT-1" edge="1">
          <mxGeometry relative="1" as="geometry">
            <Array as="points">
              <mxPoint x="1170" y="200" />
              <mxPoint x="1170" y="1385" />
            </Array>
          </mxGeometry>
        </mxCell>
        <mxCell id="0DG_E7yoXiqU4BtEt_9j-4" value="true" style="rhombus;whiteSpace=wrap;html=1;" parent="1" vertex="1">
          <mxGeometry x="368" y="160" width="115" height="80" as="geometry" />
        </mxCell>
        <mxCell id="0DG_E7yoXiqU4BtEt_9j-5" style="edgeStyle=orthogonalEdgeStyle;rounded=0;orthogonalLoop=1;jettySize=auto;html=1;exitX=0.5;exitY=1;exitDx=0;exitDy=0;entryX=0.5;entryY=0;entryDx=0;entryDy=0;" parent="1" source="0DG_E7yoXiqU4BtEt_9j-6" edge="1">
          <mxGeometry relative="1" as="geometry">
            <mxPoint x="295.5" y="340" as="targetPoint" />
          </mxGeometry>
        </mxCell>
        <mxCell id="0DG_E7yoXiqU4BtEt_9j-6" value="clear_screen()" style="shape=process;whiteSpace=wrap;html=1;backgroundOutline=1;" parent="1" vertex="1">
          <mxGeometry x="235.5" y="260" width="120" height="60" as="geometry" />
        </mxCell>
        <mxCell id="0DG_E7yoXiqU4BtEt_9j-8" style="edgeStyle=orthogonalEdgeStyle;rounded=0;orthogonalLoop=1;jettySize=auto;html=1;exitX=0.5;exitY=1;exitDx=0;exitDy=0;entryX=0.5;entryY=0;entryDx=0;entryDy=0;" parent="1" source="0DG_E7yoXiqU4BtEt_9j-9" target="0DG_E7yoXiqU4BtEt_9j-19" edge="1">
          <mxGeometry relative="1" as="geometry" />
        </mxCell>
        <mxCell id="0DG_E7yoXiqU4BtEt_9j-9" value="ifstream in_file(&quot;fast_food_data.txt&quot;), ios::in)&lt;div&gt;string line&lt;/div&gt;&lt;div&gt;char ch&lt;/div&gt;" style="rounded=0;whiteSpace=wrap;html=1;" parent="1" vertex="1">
          <mxGeometry x="180" y="430" width="250" height="70" as="geometry" />
        </mxCell>
        <mxCell id="0DG_E7yoXiqU4BtEt_9j-10" style="edgeStyle=orthogonalEdgeStyle;rounded=0;orthogonalLoop=1;jettySize=auto;html=1;exitX=0.5;exitY=1;exitDx=0;exitDy=0;" parent="1" source="0DG_E7yoXiqU4BtEt_9j-12" edge="1">
          <mxGeometry relative="1" as="geometry">
            <mxPoint x="305.47368421052624" y="690" as="targetPoint" />
          </mxGeometry>
        </mxCell>
        <mxCell id="0DG_E7yoXiqU4BtEt_9j-11" style="edgeStyle=orthogonalEdgeStyle;rounded=0;orthogonalLoop=1;jettySize=auto;html=1;exitX=1;exitY=0.5;exitDx=0;exitDy=0;entryX=0.5;entryY=0;entryDx=0;entryDy=0;" parent="1" source="0DG_E7yoXiqU4BtEt_9j-12" target="0DG_E7yoXiqU4BtEt_9j-22" edge="1">
          <mxGeometry relative="1" as="geometry" />
        </mxCell>
        <mxCell id="0DG_E7yoXiqU4BtEt_9j-12" value="getline(in_file, line)" style="rhombus;whiteSpace=wrap;html=1;" parent="1" vertex="1">
          <mxGeometry x="229" y="590" width="152" height="80" as="geometry" />
        </mxCell>
        <mxCell id="0DG_E7yoXiqU4BtEt_9j-15" style="edgeStyle=orthogonalEdgeStyle;rounded=0;orthogonalLoop=1;jettySize=auto;html=1;exitX=0.5;exitY=0;exitDx=0;exitDy=0;entryX=0;entryY=0.5;entryDx=0;entryDy=0;" parent="1" source="0DG_E7yoXiqU4BtEt_9j-16" target="0DG_E7yoXiqU4BtEt_9j-19" edge="1">
          <mxGeometry relative="1" as="geometry" />
        </mxCell>
        <mxCell id="0DG_E7yoXiqU4BtEt_9j-16" value="i++" style="rounded=0;whiteSpace=wrap;html=1;" parent="1" vertex="1">
          <mxGeometry x="50" y="615" width="120" height="30" as="geometry" />
        </mxCell>
        <mxCell id="0DG_E7yoXiqU4BtEt_9j-17" style="edgeStyle=orthogonalEdgeStyle;rounded=0;orthogonalLoop=1;jettySize=auto;html=1;exitX=0.5;exitY=1;exitDx=0;exitDy=0;entryX=0.466;entryY=0.017;entryDx=0;entryDy=0;entryPerimeter=0;" parent="1" target="0DG_E7yoXiqU4BtEt_9j-9" edge="1">
          <mxGeometry relative="1" as="geometry">
            <mxPoint x="295.5" y="400" as="sourcePoint" />
          </mxGeometry>
        </mxCell>
        <mxCell id="0DG_E7yoXiqU4BtEt_9j-18" style="edgeStyle=orthogonalEdgeStyle;rounded=0;orthogonalLoop=1;jettySize=auto;html=1;exitX=0.5;exitY=1;exitDx=0;exitDy=0;entryX=0.5;entryY=0;entryDx=0;entryDy=0;" parent="1" source="0DG_E7yoXiqU4BtEt_9j-19" target="0DG_E7yoXiqU4BtEt_9j-12" edge="1">
          <mxGeometry relative="1" as="geometry" />
        </mxCell>
        <mxCell id="0DG_E7yoXiqU4BtEt_9j-19" value="int i=1" style="rounded=0;whiteSpace=wrap;html=1;" parent="1" vertex="1">
          <mxGeometry x="245" y="530" width="120" height="30" as="geometry" />
        </mxCell>
        <mxCell id="0DG_E7yoXiqU4BtEt_9j-20" value="true" style="text;html=1;align=center;verticalAlign=middle;resizable=0;points=[];autosize=1;strokeColor=none;fillColor=none;" parent="1" vertex="1">
          <mxGeometry x="310" y="658" width="40" height="30" as="geometry" />
        </mxCell>
        <mxCell id="0DG_E7yoXiqU4BtEt_9j-21" style="edgeStyle=orthogonalEdgeStyle;rounded=0;orthogonalLoop=1;jettySize=auto;html=1;exitX=0.5;exitY=1;exitDx=0;exitDy=0;entryX=0.5;entryY=0;entryDx=0;entryDy=0;" parent="1" source="0DG_E7yoXiqU4BtEt_9j-22" edge="1">
          <mxGeometry relative="1" as="geometry">
            <mxPoint x="540" y="780" as="targetPoint" />
          </mxGeometry>
        </mxCell>
        <mxCell id="0DG_E7yoXiqU4BtEt_9j-22" value="Close File&lt;div&gt;in_file.close()&lt;/div&gt;" style="rounded=0;whiteSpace=wrap;html=1;" parent="1" vertex="1">
          <mxGeometry x="480" y="690" width="120" height="60" as="geometry" />
        </mxCell>
        <mxCell id="0DG_E7yoXiqU4BtEt_9j-23" value="false" style="text;html=1;align=center;verticalAlign=middle;resizable=0;points=[];autosize=1;strokeColor=none;fillColor=none;" parent="1" vertex="1">
          <mxGeometry x="365" y="598" width="50" height="30" as="geometry" />
        </mxCell>
        <mxCell id="0DG_E7yoXiqU4BtEt_9j-24" style="edgeStyle=orthogonalEdgeStyle;rounded=0;orthogonalLoop=1;jettySize=auto;html=1;exitX=0.5;exitY=1;exitDx=0;exitDy=0;entryX=0.5;entryY=0;entryDx=0;entryDy=0;" parent="1" edge="1">
          <mxGeometry relative="1" as="geometry">
            <mxPoint x="540" y="840" as="sourcePoint" />
            <mxPoint x="540" y="860.0000000000002" as="targetPoint" />
          </mxGeometry>
        </mxCell>
        <mxCell id="0DG_E7yoXiqU4BtEt_9j-26" style="edgeStyle=orthogonalEdgeStyle;rounded=0;orthogonalLoop=1;jettySize=auto;html=1;exitX=0.5;exitY=1;exitDx=0;exitDy=0;entryX=0.5;entryY=0;entryDx=0;entryDy=0;" parent="1" target="0DG_E7yoXiqU4BtEt_9j-30" edge="1">
          <mxGeometry relative="1" as="geometry">
            <mxPoint x="540" y="900.0000000000002" as="sourcePoint" />
          </mxGeometry>
        </mxCell>
        <mxCell id="0DG_E7yoXiqU4BtEt_9j-29" style="edgeStyle=orthogonalEdgeStyle;rounded=0;orthogonalLoop=1;jettySize=auto;html=1;exitX=1;exitY=0.5;exitDx=0;exitDy=0;entryX=0;entryY=0.5;entryDx=0;entryDy=0;" parent="1" source="0DG_E7yoXiqU4BtEt_9j-30" target="0DG_E7yoXiqU4BtEt_9j-80" edge="1">
          <mxGeometry relative="1" as="geometry">
            <Array as="points">
              <mxPoint x="720" y="970" />
              <mxPoint x="720" y="748" />
            </Array>
          </mxGeometry>
        </mxCell>
        <mxCell id="yT7Xm6XmAXXAbjOwF5zn-2" style="edgeStyle=orthogonalEdgeStyle;rounded=0;orthogonalLoop=1;jettySize=auto;html=1;exitX=0;exitY=0.5;exitDx=0;exitDy=0;entryX=0.5;entryY=0;entryDx=0;entryDy=0;" parent="1" source="0DG_E7yoXiqU4BtEt_9j-30" target="0DG_E7yoXiqU4BtEt_9j-38" edge="1">
          <mxGeometry relative="1" as="geometry" />
        </mxCell>
        <mxCell id="0DG_E7yoXiqU4BtEt_9j-30" value="ch&amp;gt;=&#39;1&#39; &amp;amp;&amp;amp; ch&amp;lt;= &#39;4&#39;" style="rhombus;whiteSpace=wrap;html=1;" parent="1" vertex="1">
          <mxGeometry x="475" y="930" width="130" height="80" as="geometry" />
        </mxCell>
        <mxCell id="0DG_E7yoXiqU4BtEt_9j-31" style="edgeStyle=orthogonalEdgeStyle;rounded=0;orthogonalLoop=1;jettySize=auto;html=1;exitX=0.5;exitY=1;exitDx=0;exitDy=0;entryX=0.5;entryY=0;entryDx=0;entryDy=0;" parent="1" source="0DG_E7yoXiqU4BtEt_9j-38" target="0DG_E7yoXiqU4BtEt_9j-40" edge="1">
          <mxGeometry relative="1" as="geometry" />
        </mxCell>
        <mxCell id="0DG_E7yoXiqU4BtEt_9j-32" style="edgeStyle=orthogonalEdgeStyle;rounded=0;orthogonalLoop=1;jettySize=auto;html=1;exitX=0.5;exitY=1;exitDx=0;exitDy=0;" parent="1" source="0DG_E7yoXiqU4BtEt_9j-38" target="0DG_E7yoXiqU4BtEt_9j-44" edge="1">
          <mxGeometry relative="1" as="geometry" />
        </mxCell>
        <mxCell id="0DG_E7yoXiqU4BtEt_9j-36" style="edgeStyle=orthogonalEdgeStyle;rounded=0;orthogonalLoop=1;jettySize=auto;html=1;exitX=0.5;exitY=1;exitDx=0;exitDy=0;entryX=0.5;entryY=0;entryDx=0;entryDy=0;" parent="1" source="0DG_E7yoXiqU4BtEt_9j-38" edge="1">
          <mxGeometry relative="1" as="geometry">
            <Array as="points">
              <mxPoint x="422.5" y="1130" />
              <mxPoint x="792.5" y="1130" />
            </Array>
            <mxPoint x="792.5" y="1150" as="targetPoint" />
          </mxGeometry>
        </mxCell>
        <mxCell id="0DG_E7yoXiqU4BtEt_9j-38" value="switch(ch)" style="rhombus;whiteSpace=wrap;html=1;" parent="1" vertex="1">
          <mxGeometry x="357.5" y="1030" width="130" height="80" as="geometry" />
        </mxCell>
        <mxCell id="0DG_E7yoXiqU4BtEt_9j-39" style="edgeStyle=orthogonalEdgeStyle;rounded=0;orthogonalLoop=1;jettySize=auto;html=1;exitX=0.5;exitY=1;exitDx=0;exitDy=0;entryX=0.5;entryY=0;entryDx=0;entryDy=0;" parent="1" source="0DG_E7yoXiqU4BtEt_9j-40" target="0DG_E7yoXiqU4BtEt_9j-59" edge="1">
          <mxGeometry relative="1" as="geometry" />
        </mxCell>
        <mxCell id="0DG_E7yoXiqU4BtEt_9j-40" value="track(&quot;burger_review.txt&quot;)" style="shape=process;whiteSpace=wrap;html=1;backgroundOutline=1;" parent="1" vertex="1">
          <mxGeometry x="-227.5" y="1150" width="200" height="60" as="geometry" />
        </mxCell>
        <mxCell id="0DG_E7yoXiqU4BtEt_9j-41" style="edgeStyle=orthogonalEdgeStyle;rounded=0;orthogonalLoop=1;jettySize=auto;html=1;exitX=0.5;exitY=1;exitDx=0;exitDy=0;entryX=0.5;entryY=0;entryDx=0;entryDy=0;" parent="1" source="0DG_E7yoXiqU4BtEt_9j-42" target="0DG_E7yoXiqU4BtEt_9j-62" edge="1">
          <mxGeometry relative="1" as="geometry" />
        </mxCell>
        <mxCell id="0DG_E7yoXiqU4BtEt_9j-42" value="track(&quot;domino_review.txt&quot;)" style="shape=process;whiteSpace=wrap;html=1;backgroundOutline=1;" parent="1" vertex="1">
          <mxGeometry x="-7.5" y="1150" width="200" height="60" as="geometry" />
        </mxCell>
        <mxCell id="0DG_E7yoXiqU4BtEt_9j-43" style="edgeStyle=orthogonalEdgeStyle;rounded=0;orthogonalLoop=1;jettySize=auto;html=1;exitX=0.5;exitY=1;exitDx=0;exitDy=0;entryX=0.5;entryY=0;entryDx=0;entryDy=0;" parent="1" source="0DG_E7yoXiqU4BtEt_9j-44" target="0DG_E7yoXiqU4BtEt_9j-61" edge="1">
          <mxGeometry relative="1" as="geometry" />
        </mxCell>
        <mxCell id="0DG_E7yoXiqU4BtEt_9j-44" value="track(&quot;kfc_review.txt&quot;)" style="shape=process;whiteSpace=wrap;html=1;backgroundOutline=1;" parent="1" vertex="1">
          <mxGeometry x="212.5" y="1150" width="200" height="60" as="geometry" />
        </mxCell>
        <mxCell id="0DG_E7yoXiqU4BtEt_9j-45" style="edgeStyle=orthogonalEdgeStyle;rounded=0;orthogonalLoop=1;jettySize=auto;html=1;exitX=0.5;exitY=1;exitDx=0;exitDy=0;entryX=0.5;entryY=0;entryDx=0;entryDy=0;" parent="1" source="0DG_E7yoXiqU4BtEt_9j-46" target="0DG_E7yoXiqU4BtEt_9j-60" edge="1">
          <mxGeometry relative="1" as="geometry" />
        </mxCell>
        <mxCell id="0DG_E7yoXiqU4BtEt_9j-46" value="track(&quot;pizza_review.txt&quot;)" style="shape=process;whiteSpace=wrap;html=1;backgroundOutline=1;" parent="1" vertex="1">
          <mxGeometry x="432.5" y="1150" width="220" height="60" as="geometry" />
        </mxCell>
        <mxCell id="0DG_E7yoXiqU4BtEt_9j-55" style="edgeStyle=orthogonalEdgeStyle;rounded=0;orthogonalLoop=1;jettySize=auto;html=1;exitX=0.5;exitY=1;exitDx=0;exitDy=0;entryX=0.5;entryY=0;entryDx=0;entryDy=0;" parent="1" target="0DG_E7yoXiqU4BtEt_9j-66" edge="1">
          <mxGeometry relative="1" as="geometry">
            <mxPoint x="792.5" y="1210" as="sourcePoint" />
          </mxGeometry>
        </mxCell>
        <mxCell id="0DG_E7yoXiqU4BtEt_9j-57" style="edgeStyle=orthogonalEdgeStyle;rounded=0;orthogonalLoop=1;jettySize=auto;html=1;exitX=0.5;exitY=1;exitDx=0;exitDy=0;entryX=0.616;entryY=0.013;entryDx=0;entryDy=0;entryPerimeter=0;" parent="1" source="0DG_E7yoXiqU4BtEt_9j-38" target="0DG_E7yoXiqU4BtEt_9j-42" edge="1">
          <mxGeometry relative="1" as="geometry" />
        </mxCell>
        <mxCell id="0DG_E7yoXiqU4BtEt_9j-58" style="edgeStyle=orthogonalEdgeStyle;rounded=0;orthogonalLoop=1;jettySize=auto;html=1;exitX=0.5;exitY=1;exitDx=0;exitDy=0;entryX=0.54;entryY=0.079;entryDx=0;entryDy=0;entryPerimeter=0;" parent="1" source="0DG_E7yoXiqU4BtEt_9j-38" target="0DG_E7yoXiqU4BtEt_9j-46" edge="1">
          <mxGeometry relative="1" as="geometry" />
        </mxCell>
        <mxCell id="uy_TPldtoOpN6TY8F5_g-1" style="edgeStyle=orthogonalEdgeStyle;rounded=0;orthogonalLoop=1;jettySize=auto;html=1;exitX=0.5;exitY=1;exitDx=0;exitDy=0;entryX=0;entryY=0.5;entryDx=0;entryDy=0;" parent="1" source="0DG_E7yoXiqU4BtEt_9j-59" target="8Rfj05x5pPdHGGOPEWPk-1" edge="1">
          <mxGeometry relative="1" as="geometry" />
        </mxCell>
        <mxCell id="0DG_E7yoXiqU4BtEt_9j-59" value="break" style="rounded=0;whiteSpace=wrap;html=1;" parent="1" vertex="1">
          <mxGeometry x="-197.5" y="1230" width="140" height="30" as="geometry" />
        </mxCell>
        <mxCell id="uy_TPldtoOpN6TY8F5_g-4" style="edgeStyle=orthogonalEdgeStyle;rounded=0;orthogonalLoop=1;jettySize=auto;html=1;exitX=0.5;exitY=1;exitDx=0;exitDy=0;entryX=1;entryY=0.5;entryDx=0;entryDy=0;" parent="1" source="0DG_E7yoXiqU4BtEt_9j-60" target="8Rfj05x5pPdHGGOPEWPk-1" edge="1">
          <mxGeometry relative="1" as="geometry" />
        </mxCell>
        <mxCell id="0DG_E7yoXiqU4BtEt_9j-60" value="break" style="rounded=0;whiteSpace=wrap;html=1;" parent="1" vertex="1">
          <mxGeometry x="462.5" y="1230" width="140" height="30" as="geometry" />
        </mxCell>
        <mxCell id="uy_TPldtoOpN6TY8F5_g-3" style="edgeStyle=orthogonalEdgeStyle;rounded=0;orthogonalLoop=1;jettySize=auto;html=1;exitX=0.5;exitY=1;exitDx=0;exitDy=0;entryX=0.5;entryY=0;entryDx=0;entryDy=0;" parent="1" source="0DG_E7yoXiqU4BtEt_9j-61" target="8Rfj05x5pPdHGGOPEWPk-1" edge="1">
          <mxGeometry relative="1" as="geometry" />
        </mxCell>
        <mxCell id="0DG_E7yoXiqU4BtEt_9j-61" value="break" style="rounded=0;whiteSpace=wrap;html=1;" parent="1" vertex="1">
          <mxGeometry x="247.5" y="1230" width="140" height="30" as="geometry" />
        </mxCell>
        <mxCell id="uy_TPldtoOpN6TY8F5_g-2" style="edgeStyle=orthogonalEdgeStyle;rounded=0;orthogonalLoop=1;jettySize=auto;html=1;exitX=0.5;exitY=1;exitDx=0;exitDy=0;entryX=0;entryY=0.5;entryDx=0;entryDy=0;" parent="1" source="0DG_E7yoXiqU4BtEt_9j-62" target="8Rfj05x5pPdHGGOPEWPk-1" edge="1">
          <mxGeometry relative="1" as="geometry" />
        </mxCell>
        <mxCell id="0DG_E7yoXiqU4BtEt_9j-62" value="break" style="rounded=0;whiteSpace=wrap;html=1;" parent="1" vertex="1">
          <mxGeometry x="22.5" y="1230" width="140" height="30" as="geometry" />
        </mxCell>
        <mxCell id="uy_TPldtoOpN6TY8F5_g-5" style="edgeStyle=orthogonalEdgeStyle;rounded=0;orthogonalLoop=1;jettySize=auto;html=1;exitX=0.5;exitY=1;exitDx=0;exitDy=0;entryX=1;entryY=0.5;entryDx=0;entryDy=0;" parent="1" source="0DG_E7yoXiqU4BtEt_9j-66" target="8Rfj05x5pPdHGGOPEWPk-1" edge="1">
          <mxGeometry relative="1" as="geometry" />
        </mxCell>
        <mxCell id="0DG_E7yoXiqU4BtEt_9j-66" value="break" style="rounded=0;whiteSpace=wrap;html=1;" parent="1" vertex="1">
          <mxGeometry x="722.5" y="1230" width="140" height="30" as="geometry" />
        </mxCell>
        <mxCell id="0DG_E7yoXiqU4BtEt_9j-68" value="1" style="text;html=1;align=center;verticalAlign=middle;resizable=0;points=[];autosize=1;strokeColor=none;fillColor=none;" parent="1" vertex="1">
          <mxGeometry x="-162.5" y="1110" width="30" height="30" as="geometry" />
        </mxCell>
        <mxCell id="0DG_E7yoXiqU4BtEt_9j-69" value="2" style="text;html=1;align=center;verticalAlign=middle;resizable=0;points=[];autosize=1;strokeColor=none;fillColor=none;" parent="1" vertex="1">
          <mxGeometry x="87.5" y="1098" width="30" height="30" as="geometry" />
        </mxCell>
        <mxCell id="0DG_E7yoXiqU4BtEt_9j-70" value="3" style="text;html=1;align=center;verticalAlign=middle;resizable=0;points=[];autosize=1;strokeColor=none;fillColor=none;" parent="1" vertex="1">
          <mxGeometry x="277.5" y="1098" width="30" height="30" as="geometry" />
        </mxCell>
        <mxCell id="0DG_E7yoXiqU4BtEt_9j-71" value="4" style="text;html=1;align=center;verticalAlign=middle;resizable=0;points=[];autosize=1;strokeColor=none;fillColor=none;" parent="1" vertex="1">
          <mxGeometry x="567.5" y="1098" width="30" height="30" as="geometry" />
        </mxCell>
        <mxCell id="0DG_E7yoXiqU4BtEt_9j-76" value="default" style="text;html=1;align=center;verticalAlign=middle;resizable=0;points=[];autosize=1;strokeColor=none;fillColor=none;" parent="1" vertex="1">
          <mxGeometry x="802.5" y="1120" width="60" height="30" as="geometry" />
        </mxCell>
        <mxCell id="0DG_E7yoXiqU4BtEt_9j-77" value="true" style="text;html=1;align=center;verticalAlign=middle;resizable=0;points=[];autosize=1;strokeColor=none;fillColor=none;" parent="1" vertex="1">
          <mxGeometry x="430" y="930" width="40" height="30" as="geometry" />
        </mxCell>
        <mxCell id="0DG_E7yoXiqU4BtEt_9j-78" style="edgeStyle=orthogonalEdgeStyle;rounded=0;orthogonalLoop=1;jettySize=auto;html=1;exitX=1;exitY=0.5;exitDx=0;exitDy=0;entryX=0;entryY=0.5;entryDx=0;entryDy=0;" parent="1" source="0DG_E7yoXiqU4BtEt_9j-80" edge="1">
          <mxGeometry relative="1" as="geometry">
            <mxPoint x="955.5" y="748" as="targetPoint" />
          </mxGeometry>
        </mxCell>
        <mxCell id="0DG_E7yoXiqU4BtEt_9j-79" style="edgeStyle=orthogonalEdgeStyle;rounded=0;orthogonalLoop=1;jettySize=auto;html=1;exitX=0.5;exitY=1;exitDx=0;exitDy=0;entryX=0.5;entryY=0;entryDx=0;entryDy=0;" parent="1" source="0DG_E7yoXiqU4BtEt_9j-80" edge="1">
          <mxGeometry relative="1" as="geometry">
            <mxPoint x="840.5" y="828" as="targetPoint" />
          </mxGeometry>
        </mxCell>
        <mxCell id="0DG_E7yoXiqU4BtEt_9j-80" value="ch&amp;gt;=&#39;q&#39; &amp;amp;&amp;amp; ch&amp;lt;= &#39;q&#39;" style="rhombus;whiteSpace=wrap;html=1;" parent="1" vertex="1">
          <mxGeometry x="775.5" y="708" width="130" height="80" as="geometry" />
        </mxCell>
        <mxCell id="0DG_E7yoXiqU4BtEt_9j-81" value="false" style="text;html=1;align=center;verticalAlign=middle;resizable=0;points=[];autosize=1;strokeColor=none;fillColor=none;" parent="1" vertex="1">
          <mxGeometry x="605" y="938" width="50" height="30" as="geometry" />
        </mxCell>
        <mxCell id="0DG_E7yoXiqU4BtEt_9j-82" style="edgeStyle=orthogonalEdgeStyle;rounded=0;orthogonalLoop=1;jettySize=auto;html=1;exitX=1;exitY=0.5;exitDx=0;exitDy=0;entryX=0;entryY=0.5;entryDx=0;entryDy=0;" parent="1" target="0DG_E7yoXiqU4BtEt_9j-84" edge="1">
          <mxGeometry relative="1" as="geometry">
            <mxPoint x="1075.5" y="748" as="sourcePoint" />
          </mxGeometry>
        </mxCell>
        <mxCell id="0DG_E7yoXiqU4BtEt_9j-84" value="break" style="rounded=0;whiteSpace=wrap;html=1;" parent="1" vertex="1">
          <mxGeometry x="1135.5" y="733" width="140" height="30" as="geometry" />
        </mxCell>
        <mxCell id="0DG_E7yoXiqU4BtEt_9j-85" value="true" style="text;html=1;align=center;verticalAlign=middle;resizable=0;points=[];autosize=1;strokeColor=none;fillColor=none;" parent="1" vertex="1">
          <mxGeometry x="895.5" y="716" width="40" height="30" as="geometry" />
        </mxCell>
        <mxCell id="0DG_E7yoXiqU4BtEt_9j-86" value="false" style="text;html=1;align=center;verticalAlign=middle;resizable=0;points=[];autosize=1;strokeColor=none;fillColor=none;" parent="1" vertex="1">
          <mxGeometry x="840.5" y="796" width="50" height="30" as="geometry" />
        </mxCell>
        <mxCell id="NMOi1OCPOdYrW6sT7D6H-1" value="/* fast_food_r() */" style="text;html=1;align=center;verticalAlign=middle;resizable=0;points=[];autosize=1;strokeColor=none;fillColor=none;" parent="1" vertex="1">
          <mxGeometry x="245" y="68" width="110" height="30" as="geometry" />
        </mxCell>
        <mxCell id="odQiSVYxNMUIyXshYgiZ-1" value="PRINT&lt;div&gt;&quot;Fast Food Store Details&quot;&lt;/div&gt;" style="shape=parallelogram;perimeter=parallelogramPerimeter;whiteSpace=wrap;html=1;fixedSize=1;" parent="1" vertex="1">
          <mxGeometry x="193" y="340" width="205" height="60" as="geometry" />
        </mxCell>
        <mxCell id="odQiSVYxNMUIyXshYgiZ-3" style="edgeStyle=orthogonalEdgeStyle;rounded=0;orthogonalLoop=1;jettySize=auto;html=1;exitX=0.5;exitY=1;exitDx=0;exitDy=0;entryX=0.5;entryY=1;entryDx=0;entryDy=0;" parent="1" source="odQiSVYxNMUIyXshYgiZ-2" target="0DG_E7yoXiqU4BtEt_9j-16" edge="1">
          <mxGeometry relative="1" as="geometry" />
        </mxCell>
        <mxCell id="odQiSVYxNMUIyXshYgiZ-2" value="DISPLAY&lt;div&gt;i and line&lt;/div&gt;" style="shape=parallelogram;perimeter=parallelogramPerimeter;whiteSpace=wrap;html=1;fixedSize=1;" parent="1" vertex="1">
          <mxGeometry x="226.25" y="690" width="157.5" height="60" as="geometry" />
        </mxCell>
        <mxCell id="odQiSVYxNMUIyXshYgiZ-4" value="PRINT&lt;div&gt;&quot;Enter Number of Fast Food Store &amp;lt;Q&amp;gt;uit&quot;&lt;/div&gt;" style="shape=parallelogram;perimeter=parallelogramPerimeter;whiteSpace=wrap;html=1;fixedSize=1;" parent="1" vertex="1">
          <mxGeometry x="410" y="780" width="280" height="60" as="geometry" />
        </mxCell>
        <mxCell id="odQiSVYxNMUIyXshYgiZ-5" value="PRINT&lt;div&gt;&quot;Successfully Quit&quot;&lt;/div&gt;" style="shape=parallelogram;perimeter=parallelogramPerimeter;whiteSpace=wrap;html=1;fixedSize=1;" parent="1" vertex="1">
          <mxGeometry x="945.5" y="718" width="145" height="60" as="geometry" />
        </mxCell>
        <mxCell id="oUr7r3QnnBOIIM1q_bs5-2" style="edgeStyle=orthogonalEdgeStyle;rounded=0;orthogonalLoop=1;jettySize=auto;html=1;exitX=0.5;exitY=1;exitDx=0;exitDy=0;entryX=0.5;entryY=0;entryDx=0;entryDy=0;" parent="1" source="odQiSVYxNMUIyXshYgiZ-6" target="oUr7r3QnnBOIIM1q_bs5-1" edge="1">
          <mxGeometry relative="1" as="geometry" />
        </mxCell>
        <mxCell id="odQiSVYxNMUIyXshYgiZ-6" value="PRINT&lt;div&gt;&quot;Invalid Input! Please try Again!&quot;&lt;/div&gt;" style="shape=parallelogram;perimeter=parallelogramPerimeter;whiteSpace=wrap;html=1;fixedSize=1;" parent="1" vertex="1">
          <mxGeometry x="765.5" y="828" width="230" height="60" as="geometry" />
        </mxCell>
        <mxCell id="odQiSVYxNMUIyXshYgiZ-7" value="PRINT&lt;div&gt;&quot;Invalid Input! Please try Again!&quot;&lt;/div&gt;" style="shape=parallelogram;perimeter=parallelogramPerimeter;whiteSpace=wrap;html=1;fixedSize=1;" parent="1" vertex="1">
          <mxGeometry x="687.5" y="1150" width="230" height="60" as="geometry" />
        </mxCell>
        <mxCell id="odQiSVYxNMUIyXshYgiZ-8" value="Read&amp;nbsp;&lt;div&gt;ch&lt;/div&gt;" style="shape=parallelogram;perimeter=parallelogramPerimeter;whiteSpace=wrap;html=1;fixedSize=1;" parent="1" vertex="1">
          <mxGeometry x="461.25" y="860" width="157.5" height="40" as="geometry" />
        </mxCell>
        <mxCell id="tuk2URgR8Qku8kVz5x8t-2" value="true" style="text;html=1;align=center;verticalAlign=middle;resizable=0;points=[];autosize=1;strokeColor=none;fillColor=none;" parent="1" vertex="1">
          <mxGeometry x="325" y="160" width="40" height="30" as="geometry" />
        </mxCell>
        <mxCell id="uy_TPldtoOpN6TY8F5_g-8" style="edgeStyle=orthogonalEdgeStyle;rounded=0;orthogonalLoop=1;jettySize=auto;html=1;exitX=0.75;exitY=1;exitDx=0;exitDy=0;entryX=1;entryY=0.5;entryDx=0;entryDy=0;" parent="1" source="oUr7r3QnnBOIIM1q_bs5-1" target="8Rfj05x5pPdHGGOPEWPk-1" edge="1">
          <mxGeometry relative="1" as="geometry" />
        </mxCell>
        <mxCell id="oUr7r3QnnBOIIM1q_bs5-1" value="cin.ignore(numeric_limits&amp;lt;streamsize&amp;gt;::max(), &#39;\n&#39;)&lt;div&gt;cin.get()&lt;/div&gt;" style="rounded=0;whiteSpace=wrap;html=1;" parent="1" vertex="1">
          <mxGeometry x="743" y="920" width="275" height="66" as="geometry" />
        </mxCell>
        <mxCell id="TNYMd-wqiGcsZGEqVAzT-2" style="edgeStyle=orthogonalEdgeStyle;rounded=0;orthogonalLoop=1;jettySize=auto;html=1;exitX=0.5;exitY=1;exitDx=0;exitDy=0;entryX=0.5;entryY=0;entryDx=0;entryDy=0;" parent="1" source="8Rfj05x5pPdHGGOPEWPk-1" target="TNYMd-wqiGcsZGEqVAzT-1" edge="1">
          <mxGeometry relative="1" as="geometry" />
        </mxCell>
        <mxCell id="8Rfj05x5pPdHGGOPEWPk-1" value="" style="ellipse;whiteSpace=wrap;html=1;aspect=fixed;" parent="1" vertex="1">
          <mxGeometry x="302.5" y="1310" width="30" height="30" as="geometry" />
        </mxCell>
        <mxCell id="uy_TPldtoOpN6TY8F5_g-6" value="RETURN" style="rounded=1;whiteSpace=wrap;html=1;" parent="1" vertex="1">
          <mxGeometry x="257.5" y="1430" width="120" height="60" as="geometry" />
        </mxCell>
        <mxCell id="TNYMd-wqiGcsZGEqVAzT-3" style="edgeStyle=orthogonalEdgeStyle;rounded=0;orthogonalLoop=1;jettySize=auto;html=1;exitX=0.5;exitY=1;exitDx=0;exitDy=0;entryX=0.5;entryY=0;entryDx=0;entryDy=0;" parent="1" source="TNYMd-wqiGcsZGEqVAzT-1" target="uy_TPldtoOpN6TY8F5_g-6" edge="1">
          <mxGeometry relative="1" as="geometry" />
        </mxCell>
        <mxCell id="TNYMd-wqiGcsZGEqVAzT-1" value="" style="ellipse;whiteSpace=wrap;html=1;aspect=fixed;" parent="1" vertex="1">
          <mxGeometry x="302.5" y="1370" width="30" height="30" as="geometry" />
        </mxCell>
        <mxCell id="TNYMd-wqiGcsZGEqVAzT-5" value="false" style="text;html=1;align=center;verticalAlign=middle;resizable=0;points=[];autosize=1;strokeColor=none;fillColor=none;" parent="1" vertex="1">
          <mxGeometry x="475" y="158" width="50" height="30" as="geometry" />
        </mxCell>
        <mxCell id="DfmyPtmWpHLhSjhTRWqF-1" value="true" style="text;html=1;align=center;verticalAlign=middle;resizable=0;points=[];autosize=1;strokeColor=none;fillColor=none;" vertex="1" parent="1">
          <mxGeometry x="440" y="1098" width="40" height="30" as="geometry" />
        </mxCell>
      </root>
    </mxGraphModel>
  </diagram>
  <diagram id="k5OKw_PjWgV0jagxsyAj" name="track()">
    <mxGraphModel dx="1290" dy="717" grid="1" gridSize="10" guides="1" tooltips="1" connect="1" arrows="1" fold="1" page="1" pageScale="1" pageWidth="850" pageHeight="1100" math="0" shadow="0">
      <root>
        <mxCell id="0" />
        <mxCell id="1" parent="0" />
        <mxCell id="rVF23-8wo6zwNOKr3E-O-54" style="edgeStyle=orthogonalEdgeStyle;rounded=0;orthogonalLoop=1;jettySize=auto;html=1;exitX=0.5;exitY=1;exitDx=0;exitDy=0;entryX=0.5;entryY=0;entryDx=0;entryDy=0;" parent="1" source="n8hWdmTpJi6Q_Hg7CLgH-1" target="r-Rg5TCMpl-syQjBZ2mh-1" edge="1">
          <mxGeometry relative="1" as="geometry" />
        </mxCell>
        <mxCell id="n8hWdmTpJi6Q_Hg7CLgH-1" value="track(string text_file)" style="rounded=1;whiteSpace=wrap;html=1;" parent="1" vertex="1">
          <mxGeometry x="365" y="80" width="120" height="60" as="geometry" />
        </mxCell>
        <mxCell id="rVF23-8wo6zwNOKr3E-O-55" style="edgeStyle=orthogonalEdgeStyle;rounded=0;orthogonalLoop=1;jettySize=auto;html=1;exitX=0.5;exitY=1;exitDx=0;exitDy=0;entryX=0.5;entryY=0;entryDx=0;entryDy=0;" parent="1" source="r-Rg5TCMpl-syQjBZ2mh-1" target="r-Rg5TCMpl-syQjBZ2mh-2" edge="1">
          <mxGeometry relative="1" as="geometry" />
        </mxCell>
        <mxCell id="r-Rg5TCMpl-syQjBZ2mh-1" value="char select&lt;div&gt;string name, city, state, date, rate, main_reason, comments&lt;/div&gt;" style="rounded=0;whiteSpace=wrap;html=1;" parent="1" vertex="1">
          <mxGeometry x="323" y="170" width="205" height="60" as="geometry" />
        </mxCell>
        <mxCell id="fdO6PXFYXha_L3gUr6kb-2" style="edgeStyle=orthogonalEdgeStyle;rounded=0;orthogonalLoop=1;jettySize=auto;html=1;exitX=0;exitY=0.5;exitDx=0;exitDy=0;entryX=0.5;entryY=0;entryDx=0;entryDy=0;" parent="1" source="r-Rg5TCMpl-syQjBZ2mh-2" target="rVF23-8wo6zwNOKr3E-O-1" edge="1">
          <mxGeometry relative="1" as="geometry" />
        </mxCell>
        <mxCell id="fdO6PXFYXha_L3gUr6kb-7" style="edgeStyle=orthogonalEdgeStyle;rounded=0;orthogonalLoop=1;jettySize=auto;html=1;exitX=1;exitY=0.5;exitDx=0;exitDy=0;entryX=1;entryY=0.5;entryDx=0;entryDy=0;" parent="1" source="r-Rg5TCMpl-syQjBZ2mh-2" target="fdO6PXFYXha_L3gUr6kb-4" edge="1">
          <mxGeometry relative="1" as="geometry">
            <Array as="points">
              <mxPoint x="1060" y="300" />
              <mxPoint x="1060" y="1195" />
            </Array>
          </mxGeometry>
        </mxCell>
        <mxCell id="r-Rg5TCMpl-syQjBZ2mh-2" value="true" style="rhombus;whiteSpace=wrap;html=1;" parent="1" vertex="1">
          <mxGeometry x="375.5" y="260" width="100" height="80" as="geometry" />
        </mxCell>
        <mxCell id="rVF23-8wo6zwNOKr3E-O-6" style="edgeStyle=orthogonalEdgeStyle;rounded=0;orthogonalLoop=1;jettySize=auto;html=1;exitX=0.5;exitY=1;exitDx=0;exitDy=0;entryX=0.5;entryY=0;entryDx=0;entryDy=0;" parent="1" source="rVF23-8wo6zwNOKr3E-O-1" edge="1">
          <mxGeometry relative="1" as="geometry">
            <mxPoint x="271.63" y="449.9999999999998" as="targetPoint" />
          </mxGeometry>
        </mxCell>
        <mxCell id="rVF23-8wo6zwNOKr3E-O-1" value="clear_screen()" style="shape=process;whiteSpace=wrap;html=1;backgroundOutline=1;" parent="1" vertex="1">
          <mxGeometry x="211.63" y="360" width="120" height="60" as="geometry" />
        </mxCell>
        <mxCell id="rVF23-8wo6zwNOKr3E-O-3" value="true" style="text;html=1;align=center;verticalAlign=middle;resizable=0;points=[];autosize=1;strokeColor=none;fillColor=none;" parent="1" vertex="1">
          <mxGeometry x="335.5" y="260" width="40" height="30" as="geometry" />
        </mxCell>
        <mxCell id="rVF23-8wo6zwNOKr3E-O-11" style="edgeStyle=orthogonalEdgeStyle;rounded=0;orthogonalLoop=1;jettySize=auto;html=1;exitX=0.5;exitY=1;exitDx=0;exitDy=0;entryX=0.5;entryY=0;entryDx=0;entryDy=0;" parent="1" source="rVF23-8wo6zwNOKr3E-O-5" target="rVF23-8wo6zwNOKr3E-O-8" edge="1">
          <mxGeometry relative="1" as="geometry" />
        </mxCell>
        <mxCell id="rVF23-8wo6zwNOKr3E-O-5" value="READ select" style="shape=parallelogram;perimeter=parallelogramPerimeter;whiteSpace=wrap;html=1;fixedSize=1;" parent="1" vertex="1">
          <mxGeometry x="206.13" y="540" width="120" height="50" as="geometry" />
        </mxCell>
        <mxCell id="rVF23-8wo6zwNOKr3E-O-13" style="edgeStyle=orthogonalEdgeStyle;rounded=0;orthogonalLoop=1;jettySize=auto;html=1;exitX=0;exitY=0.5;exitDx=0;exitDy=0;entryX=0.5;entryY=0;entryDx=0;entryDy=0;" parent="1" source="rVF23-8wo6zwNOKr3E-O-8" target="rVF23-8wo6zwNOKr3E-O-9" edge="1">
          <mxGeometry relative="1" as="geometry" />
        </mxCell>
        <mxCell id="rVF23-8wo6zwNOKr3E-O-27" style="edgeStyle=orthogonalEdgeStyle;rounded=0;orthogonalLoop=1;jettySize=auto;html=1;exitX=1;exitY=0.5;exitDx=0;exitDy=0;entryX=0.5;entryY=0;entryDx=0;entryDy=0;" parent="1" source="rVF23-8wo6zwNOKr3E-O-8" target="rVF23-8wo6zwNOKr3E-O-26" edge="1">
          <mxGeometry relative="1" as="geometry" />
        </mxCell>
        <mxCell id="rVF23-8wo6zwNOKr3E-O-8" value="select == &#39;1&#39;" style="rhombus;whiteSpace=wrap;html=1;" parent="1" vertex="1">
          <mxGeometry x="214.13" y="610" width="114.5" height="80" as="geometry" />
        </mxCell>
        <mxCell id="rVF23-8wo6zwNOKr3E-O-17" style="edgeStyle=orthogonalEdgeStyle;rounded=0;orthogonalLoop=1;jettySize=auto;html=1;exitX=0.5;exitY=1;exitDx=0;exitDy=0;entryX=0.5;entryY=0;entryDx=0;entryDy=0;" parent="1" source="rVF23-8wo6zwNOKr3E-O-9" target="rVF23-8wo6zwNOKr3E-O-15" edge="1">
          <mxGeometry relative="1" as="geometry" />
        </mxCell>
        <mxCell id="rVF23-8wo6zwNOKr3E-O-9" value="clear_screen()" style="shape=process;whiteSpace=wrap;html=1;backgroundOutline=1;" parent="1" vertex="1">
          <mxGeometry x="101.63" y="700" width="120" height="60" as="geometry" />
        </mxCell>
        <mxCell id="rVF23-8wo6zwNOKr3E-O-14" value="true" style="text;html=1;align=center;verticalAlign=middle;resizable=0;points=[];autosize=1;strokeColor=none;fillColor=none;" parent="1" vertex="1">
          <mxGeometry x="176.13" y="618" width="40" height="30" as="geometry" />
        </mxCell>
        <mxCell id="rVF23-8wo6zwNOKr3E-O-18" style="edgeStyle=orthogonalEdgeStyle;rounded=0;orthogonalLoop=1;jettySize=auto;html=1;exitX=0.5;exitY=1;exitDx=0;exitDy=0;entryX=0.5;entryY=0;entryDx=0;entryDy=0;" parent="1" source="rVF23-8wo6zwNOKr3E-O-15" target="rVF23-8wo6zwNOKr3E-O-16" edge="1">
          <mxGeometry relative="1" as="geometry" />
        </mxCell>
        <mxCell id="rVF23-8wo6zwNOKr3E-O-15" value="give_comment(text_file)" style="shape=process;whiteSpace=wrap;html=1;backgroundOutline=1;" parent="1" vertex="1">
          <mxGeometry x="73.88" y="780" width="175.5" height="50" as="geometry" />
        </mxCell>
        <mxCell id="rVF23-8wo6zwNOKr3E-O-52" style="edgeStyle=orthogonalEdgeStyle;rounded=0;orthogonalLoop=1;jettySize=auto;html=1;exitX=0.5;exitY=1;exitDx=0;exitDy=0;entryX=0;entryY=0.5;entryDx=0;entryDy=0;" parent="1" source="rVF23-8wo6zwNOKr3E-O-16" target="rVF23-8wo6zwNOKr3E-O-51" edge="1">
          <mxGeometry relative="1" as="geometry" />
        </mxCell>
        <mxCell id="rVF23-8wo6zwNOKr3E-O-16" value="break" style="rounded=0;whiteSpace=wrap;html=1;" parent="1" vertex="1">
          <mxGeometry x="101.63" y="860" width="120" height="40" as="geometry" />
        </mxCell>
        <mxCell id="rVF23-8wo6zwNOKr3E-O-22" value="false" style="text;html=1;align=center;verticalAlign=middle;resizable=0;points=[];autosize=1;strokeColor=none;fillColor=none;" parent="1" vertex="1">
          <mxGeometry x="311.13" y="618" width="50" height="30" as="geometry" />
        </mxCell>
        <mxCell id="rVF23-8wo6zwNOKr3E-O-30" style="edgeStyle=orthogonalEdgeStyle;rounded=0;orthogonalLoop=1;jettySize=auto;html=1;exitX=0.5;exitY=1;exitDx=0;exitDy=0;entryX=0.5;entryY=0;entryDx=0;entryDy=0;" parent="1" source="rVF23-8wo6zwNOKr3E-O-24" target="rVF23-8wo6zwNOKr3E-O-25" edge="1">
          <mxGeometry relative="1" as="geometry" />
        </mxCell>
        <mxCell id="rVF23-8wo6zwNOKr3E-O-24" value="clear_screen()" style="shape=process;whiteSpace=wrap;html=1;backgroundOutline=1;" parent="1" vertex="1">
          <mxGeometry x="311.13" y="775" width="120" height="60" as="geometry" />
        </mxCell>
        <mxCell id="rVF23-8wo6zwNOKr3E-O-49" style="edgeStyle=orthogonalEdgeStyle;rounded=0;orthogonalLoop=1;jettySize=auto;html=1;exitX=0.5;exitY=1;exitDx=0;exitDy=0;entryX=0;entryY=0.5;entryDx=0;entryDy=0;" parent="1" source="rVF23-8wo6zwNOKr3E-O-25" target="rVF23-8wo6zwNOKr3E-O-47" edge="1">
          <mxGeometry relative="1" as="geometry" />
        </mxCell>
        <mxCell id="rVF23-8wo6zwNOKr3E-O-25" value="display_review(text_file)" style="shape=process;whiteSpace=wrap;html=1;backgroundOutline=1;" parent="1" vertex="1">
          <mxGeometry x="281.63" y="855" width="175.5" height="50" as="geometry" />
        </mxCell>
        <mxCell id="rVF23-8wo6zwNOKr3E-O-28" style="edgeStyle=orthogonalEdgeStyle;rounded=0;orthogonalLoop=1;jettySize=auto;html=1;exitX=0;exitY=0.5;exitDx=0;exitDy=0;entryX=0.5;entryY=0;entryDx=0;entryDy=0;" parent="1" source="rVF23-8wo6zwNOKr3E-O-26" target="rVF23-8wo6zwNOKr3E-O-24" edge="1">
          <mxGeometry relative="1" as="geometry" />
        </mxCell>
        <mxCell id="rVF23-8wo6zwNOKr3E-O-32" style="edgeStyle=orthogonalEdgeStyle;rounded=0;orthogonalLoop=1;jettySize=auto;html=1;exitX=1;exitY=0.5;exitDx=0;exitDy=0;entryX=0.5;entryY=0;entryDx=0;entryDy=0;" parent="1" source="rVF23-8wo6zwNOKr3E-O-26" target="rVF23-8wo6zwNOKr3E-O-31" edge="1">
          <mxGeometry relative="1" as="geometry" />
        </mxCell>
        <mxCell id="rVF23-8wo6zwNOKr3E-O-26" value="select == &#39;2&#39;" style="rhombus;whiteSpace=wrap;html=1;" parent="1" vertex="1">
          <mxGeometry x="446.13" y="670" width="114.5" height="80" as="geometry" />
        </mxCell>
        <mxCell id="rVF23-8wo6zwNOKr3E-O-29" value="true" style="text;html=1;align=center;verticalAlign=middle;resizable=0;points=[];autosize=1;strokeColor=none;fillColor=none;" parent="1" vertex="1">
          <mxGeometry x="396.13" y="678" width="40" height="30" as="geometry" />
        </mxCell>
        <mxCell id="rVF23-8wo6zwNOKr3E-O-38" style="edgeStyle=orthogonalEdgeStyle;rounded=0;orthogonalLoop=1;jettySize=auto;html=1;exitX=0;exitY=0.5;exitDx=0;exitDy=0;" parent="1" source="rVF23-8wo6zwNOKr3E-O-31" edge="1">
          <mxGeometry relative="1" as="geometry">
            <mxPoint x="576.13" y="849.9999999999998" as="targetPoint" />
          </mxGeometry>
        </mxCell>
        <mxCell id="rVF23-8wo6zwNOKr3E-O-42" style="edgeStyle=orthogonalEdgeStyle;rounded=0;orthogonalLoop=1;jettySize=auto;html=1;exitX=1;exitY=0.5;exitDx=0;exitDy=0;entryX=0.5;entryY=0;entryDx=0;entryDy=0;" parent="1" source="rVF23-8wo6zwNOKr3E-O-31" edge="1">
          <mxGeometry relative="1" as="geometry">
            <mxPoint x="868.6299999999995" y="849.9999999999998" as="targetPoint" />
          </mxGeometry>
        </mxCell>
        <mxCell id="rVF23-8wo6zwNOKr3E-O-31" value="select == &#39;1&#39; || select == &#39;Q&#39;" style="rhombus;whiteSpace=wrap;html=1;" parent="1" vertex="1">
          <mxGeometry x="606.13" y="760" width="200" height="80" as="geometry" />
        </mxCell>
        <mxCell id="rVF23-8wo6zwNOKr3E-O-33" value="false" style="text;html=1;align=center;verticalAlign=middle;resizable=0;points=[];autosize=1;strokeColor=none;fillColor=none;" parent="1" vertex="1">
          <mxGeometry x="551.13" y="678" width="50" height="30" as="geometry" />
        </mxCell>
        <mxCell id="rVF23-8wo6zwNOKr3E-O-37" style="edgeStyle=orthogonalEdgeStyle;rounded=0;orthogonalLoop=1;jettySize=auto;html=1;exitX=0.5;exitY=1;exitDx=0;exitDy=0;entryX=0.5;entryY=0;entryDx=0;entryDy=0;" parent="1" target="rVF23-8wo6zwNOKr3E-O-35" edge="1">
          <mxGeometry relative="1" as="geometry">
            <mxPoint x="576.13" y="894.9999999999998" as="sourcePoint" />
          </mxGeometry>
        </mxCell>
        <mxCell id="rVF23-8wo6zwNOKr3E-O-45" style="edgeStyle=orthogonalEdgeStyle;rounded=0;orthogonalLoop=1;jettySize=auto;html=1;exitX=0.5;exitY=1;exitDx=0;exitDy=0;entryX=0;entryY=0.5;entryDx=0;entryDy=0;" parent="1" source="rVF23-8wo6zwNOKr3E-O-35" target="rVF23-8wo6zwNOKr3E-O-44" edge="1">
          <mxGeometry relative="1" as="geometry" />
        </mxCell>
        <mxCell id="rVF23-8wo6zwNOKr3E-O-35" value="break" style="rounded=0;whiteSpace=wrap;html=1;" parent="1" vertex="1">
          <mxGeometry x="516.13" y="920" width="120" height="40" as="geometry" />
        </mxCell>
        <mxCell id="rVF23-8wo6zwNOKr3E-O-39" value="true" style="text;html=1;align=center;verticalAlign=middle;resizable=0;points=[];autosize=1;strokeColor=none;fillColor=none;" parent="1" vertex="1">
          <mxGeometry x="576.13" y="768" width="40" height="30" as="geometry" />
        </mxCell>
        <mxCell id="rVF23-8wo6zwNOKr3E-O-43" value="false" style="text;html=1;align=center;verticalAlign=middle;resizable=0;points=[];autosize=1;strokeColor=none;fillColor=none;" parent="1" vertex="1">
          <mxGeometry x="781.13" y="768" width="50" height="30" as="geometry" />
        </mxCell>
        <mxCell id="rVF23-8wo6zwNOKr3E-O-50" style="edgeStyle=orthogonalEdgeStyle;rounded=0;orthogonalLoop=1;jettySize=auto;html=1;exitX=0.5;exitY=1;exitDx=0;exitDy=0;entryX=1;entryY=0.5;entryDx=0;entryDy=0;" parent="1" source="rVF23-8wo6zwNOKr3E-O-44" target="rVF23-8wo6zwNOKr3E-O-47" edge="1">
          <mxGeometry relative="1" as="geometry" />
        </mxCell>
        <mxCell id="rVF23-8wo6zwNOKr3E-O-44" value="" style="ellipse;whiteSpace=wrap;html=1;aspect=fixed;" parent="1" vertex="1">
          <mxGeometry x="691.13" y="1000" width="30" height="30" as="geometry" />
        </mxCell>
        <mxCell id="rVF23-8wo6zwNOKr3E-O-53" style="edgeStyle=orthogonalEdgeStyle;rounded=0;orthogonalLoop=1;jettySize=auto;html=1;exitX=0.5;exitY=1;exitDx=0;exitDy=0;entryX=1;entryY=0.5;entryDx=0;entryDy=0;" parent="1" source="rVF23-8wo6zwNOKr3E-O-47" target="rVF23-8wo6zwNOKr3E-O-51" edge="1">
          <mxGeometry relative="1" as="geometry" />
        </mxCell>
        <mxCell id="rVF23-8wo6zwNOKr3E-O-47" value="" style="ellipse;whiteSpace=wrap;html=1;aspect=fixed;" parent="1" vertex="1">
          <mxGeometry x="495" y="1040" width="30" height="30" as="geometry" />
        </mxCell>
        <mxCell id="fdO6PXFYXha_L3gUr6kb-5" style="edgeStyle=orthogonalEdgeStyle;rounded=0;orthogonalLoop=1;jettySize=auto;html=1;exitX=0.5;exitY=1;exitDx=0;exitDy=0;entryX=0.5;entryY=0;entryDx=0;entryDy=0;" parent="1" source="rVF23-8wo6zwNOKr3E-O-51" target="fdO6PXFYXha_L3gUr6kb-4" edge="1">
          <mxGeometry relative="1" as="geometry" />
        </mxCell>
        <mxCell id="rVF23-8wo6zwNOKr3E-O-51" value="" style="ellipse;whiteSpace=wrap;html=1;aspect=fixed;" parent="1" vertex="1">
          <mxGeometry x="271.13" y="1100" width="30" height="30" as="geometry" />
        </mxCell>
        <mxCell id="rVF23-8wo6zwNOKr3E-O-56" value="RETURN" style="rounded=1;whiteSpace=wrap;html=1;" parent="1" vertex="1">
          <mxGeometry x="226.13" y="1250" width="120" height="60" as="geometry" />
        </mxCell>
        <mxCell id="W2hojuuGNoK4c9BJhHzT-2" value="PRINT&lt;div&gt;&quot;Invalid Option, Pls Try Again&quot;&lt;/div&gt;" style="shape=parallelogram;perimeter=parallelogramPerimeter;whiteSpace=wrap;html=1;fixedSize=1;" parent="1" vertex="1">
          <mxGeometry x="776.13" y="850" width="200" height="50" as="geometry" />
        </mxCell>
        <mxCell id="W2hojuuGNoK4c9BJhHzT-4" value="PRINT&lt;div&gt;&quot;Successfully Quit&quot;&lt;/div&gt;" style="shape=parallelogram;perimeter=parallelogramPerimeter;whiteSpace=wrap;html=1;fixedSize=1;" parent="1" vertex="1">
          <mxGeometry x="476.13" y="850" width="200" height="50" as="geometry" />
        </mxCell>
        <mxCell id="W2hojuuGNoK4c9BJhHzT-7" style="edgeStyle=orthogonalEdgeStyle;rounded=0;orthogonalLoop=1;jettySize=auto;html=1;exitX=0.5;exitY=1;exitDx=0;exitDy=0;entryX=0.5;entryY=0;entryDx=0;entryDy=0;" parent="1" source="W2hojuuGNoK4c9BJhHzT-6" target="rVF23-8wo6zwNOKr3E-O-5" edge="1">
          <mxGeometry relative="1" as="geometry" />
        </mxCell>
        <mxCell id="W2hojuuGNoK4c9BJhHzT-6" value="PRINT&lt;div&gt;&quot;Select Option&quot; and &quot;Enter Option&quot;&lt;/div&gt;" style="shape=parallelogram;perimeter=parallelogramPerimeter;whiteSpace=wrap;html=1;fixedSize=1;" parent="1" vertex="1">
          <mxGeometry x="141.63" y="450" width="249" height="50" as="geometry" />
        </mxCell>
        <mxCell id="LEv9RQtEI2JkPJtecGB5-1" value="/* track() */" style="text;html=1;align=center;verticalAlign=middle;resizable=0;points=[];autosize=1;strokeColor=none;fillColor=none;" parent="1" vertex="1">
          <mxGeometry x="220" y="78" width="80" height="30" as="geometry" />
        </mxCell>
        <mxCell id="fdO6PXFYXha_L3gUr6kb-6" style="edgeStyle=orthogonalEdgeStyle;rounded=0;orthogonalLoop=1;jettySize=auto;html=1;exitX=0.5;exitY=1;exitDx=0;exitDy=0;entryX=0.5;entryY=0;entryDx=0;entryDy=0;" parent="1" source="fdO6PXFYXha_L3gUr6kb-4" target="rVF23-8wo6zwNOKr3E-O-56" edge="1">
          <mxGeometry relative="1" as="geometry" />
        </mxCell>
        <mxCell id="fdO6PXFYXha_L3gUr6kb-4" value="" style="ellipse;whiteSpace=wrap;html=1;aspect=fixed;" parent="1" vertex="1">
          <mxGeometry x="271.13" y="1180" width="30" height="30" as="geometry" />
        </mxCell>
        <mxCell id="fdO6PXFYXha_L3gUr6kb-8" value="false" style="text;html=1;align=center;verticalAlign=middle;resizable=0;points=[];autosize=1;strokeColor=none;fillColor=none;" parent="1" vertex="1">
          <mxGeometry x="475" y="258" width="50" height="30" as="geometry" />
        </mxCell>
        <mxCell id="BKZR__2frNECwS5f86rP-3" style="edgeStyle=orthogonalEdgeStyle;rounded=0;orthogonalLoop=1;jettySize=auto;html=1;exitX=0.5;exitY=1;exitDx=0;exitDy=0;entryX=1;entryY=0.5;entryDx=0;entryDy=0;" parent="1" source="BKZR__2frNECwS5f86rP-1" target="rVF23-8wo6zwNOKr3E-O-44" edge="1">
          <mxGeometry relative="1" as="geometry" />
        </mxCell>
        <mxCell id="BKZR__2frNECwS5f86rP-1" value="cin.ignore(numeric_limits&amp;lt;streamsize&amp;gt;::max(), &#39;\n&#39;)&lt;div&gt;cin.get()&lt;/div&gt;" style="rounded=0;whiteSpace=wrap;html=1;" parent="1" vertex="1">
          <mxGeometry x="760" y="920" width="275" height="66" as="geometry" />
        </mxCell>
        <mxCell id="BKZR__2frNECwS5f86rP-2" style="edgeStyle=orthogonalEdgeStyle;rounded=0;orthogonalLoop=1;jettySize=auto;html=1;exitX=0.5;exitY=1;exitDx=0;exitDy=0;entryX=0.417;entryY=0.018;entryDx=0;entryDy=0;entryPerimeter=0;" parent="1" source="W2hojuuGNoK4c9BJhHzT-2" target="BKZR__2frNECwS5f86rP-1" edge="1">
          <mxGeometry relative="1" as="geometry" />
        </mxCell>
      </root>
    </mxGraphModel>
  </diagram>
  <diagram id="yTwgVQqD5fr_iqQrS3eS" name="give_comment()">
    <mxGraphModel dx="2140" dy="717" grid="1" gridSize="10" guides="1" tooltips="1" connect="1" arrows="1" fold="1" page="1" pageScale="1" pageWidth="850" pageHeight="1100" math="0" shadow="0">
      <root>
        <mxCell id="0" />
        <mxCell id="1" parent="0" />
        <mxCell id="-K9lrBy235HV-KwF1ewE-1" style="edgeStyle=orthogonalEdgeStyle;rounded=0;orthogonalLoop=1;jettySize=auto;html=1;exitX=0.5;exitY=1;exitDx=0;exitDy=0;entryX=0.5;entryY=0;entryDx=0;entryDy=0;" parent="1" source="-K9lrBy235HV-KwF1ewE-2" target="-K9lrBy235HV-KwF1ewE-3" edge="1">
          <mxGeometry relative="1" as="geometry" />
        </mxCell>
        <mxCell id="-K9lrBy235HV-KwF1ewE-2" value="give_comment(text_file)" style="rounded=1;whiteSpace=wrap;html=1;" parent="1" vertex="1">
          <mxGeometry x="340" y="40" width="170" height="60" as="geometry" />
        </mxCell>
        <mxCell id="DfYsz4GRf0E0IOGtgq23-1" style="edgeStyle=orthogonalEdgeStyle;rounded=0;orthogonalLoop=1;jettySize=auto;html=1;exitX=0.5;exitY=1;exitDx=0;exitDy=0;entryX=0.5;entryY=0;entryDx=0;entryDy=0;" parent="1" source="-K9lrBy235HV-KwF1ewE-3" target="pkCmTMcUgsy2WNaegTpt-2" edge="1">
          <mxGeometry relative="1" as="geometry" />
        </mxCell>
        <mxCell id="-K9lrBy235HV-KwF1ewE-3" value="char select&lt;div&gt;string name, city, state, date, rate, main_reason, comments&lt;/div&gt;" style="rounded=0;whiteSpace=wrap;html=1;" parent="1" vertex="1">
          <mxGeometry x="323" y="130" width="205" height="60" as="geometry" />
        </mxCell>
        <mxCell id="QZ2gvnHrvy9vC9PzmSqh-1" style="edgeStyle=orthogonalEdgeStyle;rounded=0;orthogonalLoop=1;jettySize=auto;html=1;exitX=0.5;exitY=1;exitDx=0;exitDy=0;entryX=0.5;entryY=0;entryDx=0;entryDy=0;" parent="1" source="pkCmTMcUgsy2WNaegTpt-1" target="DfYsz4GRf0E0IOGtgq23-6" edge="1">
          <mxGeometry relative="1" as="geometry" />
        </mxCell>
        <mxCell id="pkCmTMcUgsy2WNaegTpt-1" value="clear_screen()" style="shape=process;whiteSpace=wrap;html=1;backgroundOutline=1;" parent="1" vertex="1">
          <mxGeometry x="165.5" y="490" width="120" height="60" as="geometry" />
        </mxCell>
        <mxCell id="DfYsz4GRf0E0IOGtgq23-2" style="edgeStyle=orthogonalEdgeStyle;rounded=0;orthogonalLoop=1;jettySize=auto;html=1;exitX=0.5;exitY=1;exitDx=0;exitDy=0;entryX=0.5;entryY=0;entryDx=0;entryDy=0;" parent="1" source="pkCmTMcUgsy2WNaegTpt-2" target="pkCmTMcUgsy2WNaegTpt-3" edge="1">
          <mxGeometry relative="1" as="geometry" />
        </mxCell>
        <mxCell id="pkCmTMcUgsy2WNaegTpt-2" value="user_info(name, city, state, date)" style="shape=process;whiteSpace=wrap;html=1;backgroundOutline=1;" parent="1" vertex="1">
          <mxGeometry x="320" y="220" width="210" height="60" as="geometry" />
        </mxCell>
        <mxCell id="DfYsz4GRf0E0IOGtgq23-4" style="edgeStyle=orthogonalEdgeStyle;rounded=0;orthogonalLoop=1;jettySize=auto;html=1;exitX=0.5;exitY=1;exitDx=0;exitDy=0;entryX=0.5;entryY=0;entryDx=0;entryDy=0;" parent="1" source="pkCmTMcUgsy2WNaegTpt-3" target="DfYsz4GRf0E0IOGtgq23-3" edge="1">
          <mxGeometry relative="1" as="geometry" />
        </mxCell>
        <mxCell id="pkCmTMcUgsy2WNaegTpt-3" value="user_review(name, city, state, date, rate, main_reason, comments)" style="shape=process;whiteSpace=wrap;html=1;backgroundOutline=1;" parent="1" vertex="1">
          <mxGeometry x="320" y="310" width="210" height="60" as="geometry" />
        </mxCell>
        <mxCell id="HB6Rg4xDXQjjfuTOhLlQ-1" style="edgeStyle=orthogonalEdgeStyle;rounded=0;orthogonalLoop=1;jettySize=auto;html=1;exitX=0;exitY=0.5;exitDx=0;exitDy=0;entryX=0.5;entryY=0;entryDx=0;entryDy=0;" parent="1" source="DfYsz4GRf0E0IOGtgq23-3" target="pkCmTMcUgsy2WNaegTpt-1" edge="1">
          <mxGeometry relative="1" as="geometry" />
        </mxCell>
        <mxCell id="HB6Rg4xDXQjjfuTOhLlQ-4" style="edgeStyle=orthogonalEdgeStyle;rounded=0;orthogonalLoop=1;jettySize=auto;html=1;exitX=1;exitY=0.5;exitDx=0;exitDy=0;entryX=1;entryY=0.5;entryDx=0;entryDy=0;" parent="1" source="DfYsz4GRf0E0IOGtgq23-3" target="HB6Rg4xDXQjjfuTOhLlQ-2" edge="1">
          <mxGeometry relative="1" as="geometry">
            <Array as="points">
              <mxPoint x="1190" y="440" />
              <mxPoint x="1190" y="1405" />
            </Array>
          </mxGeometry>
        </mxCell>
        <mxCell id="DfYsz4GRf0E0IOGtgq23-3" value="true" style="rhombus;whiteSpace=wrap;html=1;" parent="1" vertex="1">
          <mxGeometry x="370.5" y="400" width="110" height="80" as="geometry" />
        </mxCell>
        <mxCell id="QZ2gvnHrvy9vC9PzmSqh-3" style="edgeStyle=orthogonalEdgeStyle;rounded=0;orthogonalLoop=1;jettySize=auto;html=1;exitX=0.5;exitY=1;exitDx=0;exitDy=0;entryX=0.5;entryY=0;entryDx=0;entryDy=0;" parent="1" source="DfYsz4GRf0E0IOGtgq23-6" edge="1">
          <mxGeometry relative="1" as="geometry">
            <mxPoint x="225.5" y="660" as="targetPoint" />
          </mxGeometry>
        </mxCell>
        <mxCell id="DfYsz4GRf0E0IOGtgq23-6" value="temp_review()" style="shape=process;whiteSpace=wrap;html=1;backgroundOutline=1;" parent="1" vertex="1">
          <mxGeometry x="165" y="570" width="120" height="60" as="geometry" />
        </mxCell>
        <mxCell id="QZ2gvnHrvy9vC9PzmSqh-5" style="edgeStyle=orthogonalEdgeStyle;rounded=0;orthogonalLoop=1;jettySize=auto;html=1;exitX=0.5;exitY=1;exitDx=0;exitDy=0;entryX=0.5;entryY=0;entryDx=0;entryDy=0;" parent="1" target="QZ2gvnHrvy9vC9PzmSqh-4" edge="1">
          <mxGeometry relative="1" as="geometry">
            <mxPoint x="225.5" y="720" as="sourcePoint" />
          </mxGeometry>
        </mxCell>
        <mxCell id="QZ2gvnHrvy9vC9PzmSqh-9" style="edgeStyle=orthogonalEdgeStyle;rounded=0;orthogonalLoop=1;jettySize=auto;html=1;exitX=0.5;exitY=1;exitDx=0;exitDy=0;entryX=0.5;entryY=0;entryDx=0;entryDy=0;" parent="1" source="QZ2gvnHrvy9vC9PzmSqh-4" target="QZ2gvnHrvy9vC9PzmSqh-7" edge="1">
          <mxGeometry relative="1" as="geometry" />
        </mxCell>
        <mxCell id="QZ2gvnHrvy9vC9PzmSqh-4" value="READ&amp;nbsp;&lt;div&gt;select&lt;/div&gt;" style="shape=parallelogram;perimeter=parallelogramPerimeter;whiteSpace=wrap;html=1;fixedSize=1;" parent="1" vertex="1">
          <mxGeometry x="150" y="740" width="150" height="60" as="geometry" />
        </mxCell>
        <mxCell id="QZ2gvnHrvy9vC9PzmSqh-6" value="PRINT&lt;div&gt;&quot;&amp;lt;C&amp;gt;onfirm &amp;lt;M&amp;gt;odify &amp;lt;D&amp;gt;elete&amp;nbsp; &amp;nbsp; &amp;lt;Q&amp;gt;uit&quot; and&amp;nbsp;&lt;/div&gt;&lt;div&gt;&quot;Enter Option&quot;&lt;/div&gt;" style="shape=parallelogram;perimeter=parallelogramPerimeter;whiteSpace=wrap;html=1;fixedSize=1;" parent="1" vertex="1">
          <mxGeometry x="80" y="660" width="280" height="60" as="geometry" />
        </mxCell>
        <mxCell id="QZ2gvnHrvy9vC9PzmSqh-12" style="edgeStyle=orthogonalEdgeStyle;rounded=0;orthogonalLoop=1;jettySize=auto;html=1;exitX=0;exitY=0.5;exitDx=0;exitDy=0;" parent="1" source="QZ2gvnHrvy9vC9PzmSqh-7" target="QZ2gvnHrvy9vC9PzmSqh-10" edge="1">
          <mxGeometry relative="1" as="geometry" />
        </mxCell>
        <mxCell id="gTihp7Q70EZ28coQyJSn-4" style="edgeStyle=orthogonalEdgeStyle;rounded=0;orthogonalLoop=1;jettySize=auto;html=1;exitX=1;exitY=0.5;exitDx=0;exitDy=0;entryX=0.5;entryY=0;entryDx=0;entryDy=0;" parent="1" source="QZ2gvnHrvy9vC9PzmSqh-7" target="gTihp7Q70EZ28coQyJSn-3" edge="1">
          <mxGeometry relative="1" as="geometry" />
        </mxCell>
        <mxCell id="QZ2gvnHrvy9vC9PzmSqh-7" value="select == &#39;c&#39; || select == &#39;C&#39;" style="rhombus;whiteSpace=wrap;html=1;" parent="1" vertex="1">
          <mxGeometry x="120" y="830" width="200" height="80" as="geometry" />
        </mxCell>
        <mxCell id="gTihp7Q70EZ28coQyJSn-2" style="edgeStyle=orthogonalEdgeStyle;rounded=0;orthogonalLoop=1;jettySize=auto;html=1;exitX=0.5;exitY=1;exitDx=0;exitDy=0;entryX=0.5;entryY=0;entryDx=0;entryDy=0;" parent="1" source="QZ2gvnHrvy9vC9PzmSqh-10" target="gTihp7Q70EZ28coQyJSn-1" edge="1">
          <mxGeometry relative="1" as="geometry" />
        </mxCell>
        <mxCell id="QZ2gvnHrvy9vC9PzmSqh-10" value="confirmation(text_file, name, city, state, date, rate, main_reason, comments)" style="shape=process;whiteSpace=wrap;html=1;backgroundOutline=1;" parent="1" vertex="1">
          <mxGeometry x="-70" y="920" width="270" height="60" as="geometry" />
        </mxCell>
        <mxCell id="QZ2gvnHrvy9vC9PzmSqh-13" value="true" style="text;html=1;align=center;verticalAlign=middle;resizable=0;points=[];autosize=1;strokeColor=none;fillColor=none;" parent="1" vertex="1">
          <mxGeometry x="90" y="838" width="40" height="30" as="geometry" />
        </mxCell>
        <mxCell id="_eG9a4ry9f-KnAhlT4FC-12" style="edgeStyle=orthogonalEdgeStyle;rounded=0;orthogonalLoop=1;jettySize=auto;html=1;exitX=0.5;exitY=1;exitDx=0;exitDy=0;entryX=0;entryY=0.5;entryDx=0;entryDy=0;" parent="1" source="gTihp7Q70EZ28coQyJSn-1" target="_eG9a4ry9f-KnAhlT4FC-11" edge="1">
          <mxGeometry relative="1" as="geometry" />
        </mxCell>
        <mxCell id="gTihp7Q70EZ28coQyJSn-1" value="break" style="rounded=0;whiteSpace=wrap;html=1;" parent="1" vertex="1">
          <mxGeometry y="1010" width="120" height="40" as="geometry" />
        </mxCell>
        <mxCell id="gTihp7Q70EZ28coQyJSn-7" style="edgeStyle=orthogonalEdgeStyle;rounded=0;orthogonalLoop=1;jettySize=auto;html=1;exitX=0;exitY=0.5;exitDx=0;exitDy=0;" parent="1" source="gTihp7Q70EZ28coQyJSn-3" target="gTihp7Q70EZ28coQyJSn-6" edge="1">
          <mxGeometry relative="1" as="geometry" />
        </mxCell>
        <mxCell id="gTihp7Q70EZ28coQyJSn-17" style="edgeStyle=orthogonalEdgeStyle;rounded=0;orthogonalLoop=1;jettySize=auto;html=1;exitX=1;exitY=0.5;exitDx=0;exitDy=0;entryX=0.5;entryY=0;entryDx=0;entryDy=0;" parent="1" source="gTihp7Q70EZ28coQyJSn-3" target="gTihp7Q70EZ28coQyJSn-11" edge="1">
          <mxGeometry relative="1" as="geometry" />
        </mxCell>
        <mxCell id="gTihp7Q70EZ28coQyJSn-3" value="select == &#39;m&#39; || select == &#39;M&#39;" style="rhombus;whiteSpace=wrap;html=1;" parent="1" vertex="1">
          <mxGeometry x="430" y="900" width="200" height="80" as="geometry" />
        </mxCell>
        <mxCell id="gTihp7Q70EZ28coQyJSn-5" value="false" style="text;html=1;align=center;verticalAlign=middle;resizable=0;points=[];autosize=1;strokeColor=none;fillColor=none;" parent="1" vertex="1">
          <mxGeometry x="295" y="838" width="50" height="30" as="geometry" />
        </mxCell>
        <mxCell id="gTihp7Q70EZ28coQyJSn-10" style="edgeStyle=orthogonalEdgeStyle;rounded=0;orthogonalLoop=1;jettySize=auto;html=1;exitX=0.5;exitY=1;exitDx=0;exitDy=0;entryX=0.5;entryY=0;entryDx=0;entryDy=0;" parent="1" source="gTihp7Q70EZ28coQyJSn-6" target="gTihp7Q70EZ28coQyJSn-9" edge="1">
          <mxGeometry relative="1" as="geometry" />
        </mxCell>
        <mxCell id="gTihp7Q70EZ28coQyJSn-6" value="modify_review(text_file, name, city, state, date, rate, main_reason, comments)" style="shape=process;whiteSpace=wrap;html=1;backgroundOutline=1;" parent="1" vertex="1">
          <mxGeometry x="240" y="1000" width="270" height="60" as="geometry" />
        </mxCell>
        <mxCell id="gTihp7Q70EZ28coQyJSn-8" value="true" style="text;html=1;align=center;verticalAlign=middle;resizable=0;points=[];autosize=1;strokeColor=none;fillColor=none;" parent="1" vertex="1">
          <mxGeometry x="390" y="910" width="40" height="30" as="geometry" />
        </mxCell>
        <mxCell id="_eG9a4ry9f-KnAhlT4FC-9" style="edgeStyle=orthogonalEdgeStyle;rounded=0;orthogonalLoop=1;jettySize=auto;html=1;exitX=0.5;exitY=1;exitDx=0;exitDy=0;entryX=0;entryY=0.5;entryDx=0;entryDy=0;" parent="1" source="gTihp7Q70EZ28coQyJSn-9" target="_eG9a4ry9f-KnAhlT4FC-8" edge="1">
          <mxGeometry relative="1" as="geometry" />
        </mxCell>
        <mxCell id="gTihp7Q70EZ28coQyJSn-9" value="break" style="rounded=0;whiteSpace=wrap;html=1;" parent="1" vertex="1">
          <mxGeometry x="315" y="1100" width="120" height="40" as="geometry" />
        </mxCell>
        <mxCell id="gTihp7Q70EZ28coQyJSn-18" style="edgeStyle=orthogonalEdgeStyle;rounded=0;orthogonalLoop=1;jettySize=auto;html=1;exitX=0;exitY=0.5;exitDx=0;exitDy=0;" parent="1" source="gTihp7Q70EZ28coQyJSn-11" target="gTihp7Q70EZ28coQyJSn-15" edge="1">
          <mxGeometry relative="1" as="geometry" />
        </mxCell>
        <mxCell id="MpBS36p2VX42o6DGWtRX-4" style="edgeStyle=orthogonalEdgeStyle;rounded=0;orthogonalLoop=1;jettySize=auto;html=1;exitX=1;exitY=0.5;exitDx=0;exitDy=0;entryX=0.5;entryY=0;entryDx=0;entryDy=0;" parent="1" source="gTihp7Q70EZ28coQyJSn-11" target="_oRzmYyY2m6tN_tAfn0S-1" edge="1">
          <mxGeometry relative="1" as="geometry" />
        </mxCell>
        <mxCell id="gTihp7Q70EZ28coQyJSn-11" value="select == &#39;d&#39; || select == &#39;D&#39;" style="rhombus;whiteSpace=wrap;html=1;" parent="1" vertex="1">
          <mxGeometry x="750" y="990" width="200" height="80" as="geometry" />
        </mxCell>
        <mxCell id="gTihp7Q70EZ28coQyJSn-13" value="false" style="text;html=1;align=center;verticalAlign=middle;resizable=0;points=[];autosize=1;strokeColor=none;fillColor=none;" parent="1" vertex="1">
          <mxGeometry x="630" y="910" width="50" height="30" as="geometry" />
        </mxCell>
        <mxCell id="gTihp7Q70EZ28coQyJSn-14" style="edgeStyle=orthogonalEdgeStyle;rounded=0;orthogonalLoop=1;jettySize=auto;html=1;exitX=0.5;exitY=1;exitDx=0;exitDy=0;entryX=0.5;entryY=0;entryDx=0;entryDy=0;" parent="1" source="gTihp7Q70EZ28coQyJSn-15" target="gTihp7Q70EZ28coQyJSn-16" edge="1">
          <mxGeometry relative="1" as="geometry" />
        </mxCell>
        <mxCell id="gTihp7Q70EZ28coQyJSn-15" value="delete_review(text_file, name, city, state, date, rate, main_reason, comments)" style="shape=process;whiteSpace=wrap;html=1;backgroundOutline=1;" parent="1" vertex="1">
          <mxGeometry x="520" y="1090" width="270" height="60" as="geometry" />
        </mxCell>
        <mxCell id="_eG9a4ry9f-KnAhlT4FC-6" style="edgeStyle=orthogonalEdgeStyle;rounded=0;orthogonalLoop=1;jettySize=auto;html=1;exitX=0.5;exitY=1;exitDx=0;exitDy=0;entryX=0;entryY=0.5;entryDx=0;entryDy=0;" parent="1" source="gTihp7Q70EZ28coQyJSn-16" target="_eG9a4ry9f-KnAhlT4FC-5" edge="1">
          <mxGeometry relative="1" as="geometry" />
        </mxCell>
        <mxCell id="gTihp7Q70EZ28coQyJSn-16" value="break" style="rounded=0;whiteSpace=wrap;html=1;" parent="1" vertex="1">
          <mxGeometry x="595" y="1190" width="120" height="40" as="geometry" />
        </mxCell>
        <mxCell id="gTihp7Q70EZ28coQyJSn-19" value="true" style="text;html=1;align=center;verticalAlign=middle;resizable=0;points=[];autosize=1;strokeColor=none;fillColor=none;" parent="1" vertex="1">
          <mxGeometry x="710" y="998" width="40" height="30" as="geometry" />
        </mxCell>
        <mxCell id="_eG9a4ry9f-KnAhlT4FC-4" value="false" style="text;html=1;align=center;verticalAlign=middle;resizable=0;points=[];autosize=1;strokeColor=none;fillColor=none;" parent="1" vertex="1">
          <mxGeometry x="940" y="1000" width="50" height="30" as="geometry" />
        </mxCell>
        <mxCell id="_eG9a4ry9f-KnAhlT4FC-10" style="edgeStyle=orthogonalEdgeStyle;rounded=0;orthogonalLoop=1;jettySize=auto;html=1;exitX=0.5;exitY=1;exitDx=0;exitDy=0;entryX=1;entryY=0.5;entryDx=0;entryDy=0;" parent="1" source="_eG9a4ry9f-KnAhlT4FC-5" target="_eG9a4ry9f-KnAhlT4FC-8" edge="1">
          <mxGeometry relative="1" as="geometry" />
        </mxCell>
        <mxCell id="_eG9a4ry9f-KnAhlT4FC-5" value="" style="ellipse;whiteSpace=wrap;html=1;aspect=fixed;" parent="1" vertex="1">
          <mxGeometry x="835" y="1250" width="30" height="30" as="geometry" />
        </mxCell>
        <mxCell id="_eG9a4ry9f-KnAhlT4FC-13" style="edgeStyle=orthogonalEdgeStyle;rounded=0;orthogonalLoop=1;jettySize=auto;html=1;exitX=0.5;exitY=1;exitDx=0;exitDy=0;entryX=1;entryY=0.5;entryDx=0;entryDy=0;" parent="1" source="_eG9a4ry9f-KnAhlT4FC-8" target="_eG9a4ry9f-KnAhlT4FC-11" edge="1">
          <mxGeometry relative="1" as="geometry" />
        </mxCell>
        <mxCell id="_eG9a4ry9f-KnAhlT4FC-8" value="" style="ellipse;whiteSpace=wrap;html=1;aspect=fixed;" parent="1" vertex="1">
          <mxGeometry x="515" y="1290" width="30" height="30" as="geometry" />
        </mxCell>
        <mxCell id="HB6Rg4xDXQjjfuTOhLlQ-3" style="edgeStyle=orthogonalEdgeStyle;rounded=0;orthogonalLoop=1;jettySize=auto;html=1;exitX=0.5;exitY=1;exitDx=0;exitDy=0;entryX=0.5;entryY=0;entryDx=0;entryDy=0;" parent="1" source="_eG9a4ry9f-KnAhlT4FC-11" target="HB6Rg4xDXQjjfuTOhLlQ-2" edge="1">
          <mxGeometry relative="1" as="geometry" />
        </mxCell>
        <mxCell id="_eG9a4ry9f-KnAhlT4FC-11" value="" style="ellipse;whiteSpace=wrap;html=1;aspect=fixed;" parent="1" vertex="1">
          <mxGeometry x="230" y="1330" width="30" height="30" as="geometry" />
        </mxCell>
        <mxCell id="BbKaky6xZyMPKSNoiKaN-1" value="RETURN" style="rounded=1;whiteSpace=wrap;html=1;" parent="1" vertex="1">
          <mxGeometry x="185" y="1450" width="120" height="60" as="geometry" />
        </mxCell>
        <mxCell id="MpBS36p2VX42o6DGWtRX-3" style="edgeStyle=orthogonalEdgeStyle;rounded=0;orthogonalLoop=1;jettySize=auto;html=1;exitX=0.5;exitY=1;exitDx=0;exitDy=0;entryX=0.5;entryY=0;entryDx=0;entryDy=0;" parent="1" source="_oRzmYyY2m6tN_tAfn0S-1" target="MpBS36p2VX42o6DGWtRX-1" edge="1">
          <mxGeometry relative="1" as="geometry" />
        </mxCell>
        <mxCell id="_oRzmYyY2m6tN_tAfn0S-1" value="PRINT&lt;div&gt;&quot;Invalid Option, Pls Try Again&quot;&lt;/div&gt;" style="shape=parallelogram;perimeter=parallelogramPerimeter;whiteSpace=wrap;html=1;fixedSize=1;" parent="1" vertex="1">
          <mxGeometry x="910" y="1070" width="250" height="60" as="geometry" />
        </mxCell>
        <mxCell id="4_5w6sVOERGBcT5eIc4m-1" value="/* give_comment */" style="text;html=1;align=center;verticalAlign=middle;resizable=0;points=[];autosize=1;strokeColor=none;fillColor=none;" parent="1" vertex="1">
          <mxGeometry x="190" y="38" width="120" height="30" as="geometry" />
        </mxCell>
        <mxCell id="HB6Rg4xDXQjjfuTOhLlQ-7" style="edgeStyle=orthogonalEdgeStyle;rounded=0;orthogonalLoop=1;jettySize=auto;html=1;exitX=0.5;exitY=1;exitDx=0;exitDy=0;entryX=0.5;entryY=0;entryDx=0;entryDy=0;" parent="1" source="HB6Rg4xDXQjjfuTOhLlQ-2" target="BbKaky6xZyMPKSNoiKaN-1" edge="1">
          <mxGeometry relative="1" as="geometry" />
        </mxCell>
        <mxCell id="HB6Rg4xDXQjjfuTOhLlQ-2" value="" style="ellipse;whiteSpace=wrap;html=1;aspect=fixed;" parent="1" vertex="1">
          <mxGeometry x="230" y="1390" width="30" height="30" as="geometry" />
        </mxCell>
        <mxCell id="HB6Rg4xDXQjjfuTOhLlQ-5" value="false" style="text;html=1;align=center;verticalAlign=middle;resizable=0;points=[];autosize=1;strokeColor=none;fillColor=none;" parent="1" vertex="1">
          <mxGeometry x="475" y="398" width="50" height="30" as="geometry" />
        </mxCell>
        <mxCell id="HB6Rg4xDXQjjfuTOhLlQ-6" value="true" style="text;html=1;align=center;verticalAlign=middle;resizable=0;points=[];autosize=1;strokeColor=none;fillColor=none;" parent="1" vertex="1">
          <mxGeometry x="320" y="398" width="40" height="30" as="geometry" />
        </mxCell>
        <mxCell id="MpBS36p2VX42o6DGWtRX-5" style="edgeStyle=orthogonalEdgeStyle;rounded=0;orthogonalLoop=1;jettySize=auto;html=1;exitX=0.5;exitY=1;exitDx=0;exitDy=0;entryX=1;entryY=0.5;entryDx=0;entryDy=0;" parent="1" source="MpBS36p2VX42o6DGWtRX-1" target="_eG9a4ry9f-KnAhlT4FC-5" edge="1">
          <mxGeometry relative="1" as="geometry" />
        </mxCell>
        <mxCell id="MpBS36p2VX42o6DGWtRX-1" value="cin.ignore(numeric_limits&amp;lt;streamsize&amp;gt;::max(), &#39;\n&#39;)&lt;div&gt;cin.get()&lt;/div&gt;" style="rounded=0;whiteSpace=wrap;html=1;" parent="1" vertex="1">
          <mxGeometry x="890" y="1164" width="275" height="66" as="geometry" />
        </mxCell>
      </root>
    </mxGraphModel>
  </diagram>
  <diagram id="aPwJeIn8naVmrZySEdk_" name="comfirmation()">
    <mxGraphModel dx="1843" dy="1024" grid="1" gridSize="10" guides="1" tooltips="1" connect="1" arrows="1" fold="1" page="1" pageScale="1" pageWidth="850" pageHeight="1100" math="0" shadow="0">
      <root>
        <mxCell id="0" />
        <mxCell id="1" parent="0" />
        <mxCell id="P0m0aLkAAQuqtbTCNZ9h-3" style="edgeStyle=orthogonalEdgeStyle;rounded=0;orthogonalLoop=1;jettySize=auto;html=1;exitX=0.5;exitY=1;exitDx=0;exitDy=0;entryX=0.5;entryY=0;entryDx=0;entryDy=0;" edge="1" parent="1" source="P0m0aLkAAQuqtbTCNZ9h-1" target="P0m0aLkAAQuqtbTCNZ9h-2">
          <mxGeometry relative="1" as="geometry" />
        </mxCell>
        <mxCell id="P0m0aLkAAQuqtbTCNZ9h-1" value="confirmation(text_file, name, city, state, date, rate, main_reason, comments)" style="rounded=1;whiteSpace=wrap;html=1;" vertex="1" parent="1">
          <mxGeometry x="300" y="40" width="260" height="60" as="geometry" />
        </mxCell>
        <mxCell id="P0m0aLkAAQuqtbTCNZ9h-6" style="edgeStyle=orthogonalEdgeStyle;rounded=0;orthogonalLoop=1;jettySize=auto;html=1;exitX=0.5;exitY=1;exitDx=0;exitDy=0;entryX=0.5;entryY=0;entryDx=0;entryDy=0;" edge="1" parent="1" source="P0m0aLkAAQuqtbTCNZ9h-2" target="P0m0aLkAAQuqtbTCNZ9h-4">
          <mxGeometry relative="1" as="geometry" />
        </mxCell>
        <mxCell id="P0m0aLkAAQuqtbTCNZ9h-2" value="ifstream temp_file(&quot;temp.txt&quot;)&lt;div&gt;ofstream out_file(text_file, ios::app)&lt;/div&gt;&lt;div&gt;string line&lt;span style=&quot;white-space: pre;&quot;&gt;&#x9;&lt;/span&gt;&lt;/div&gt;&lt;div&gt;bool found = true&lt;/div&gt;" style="rounded=0;whiteSpace=wrap;html=1;" vertex="1" parent="1">
          <mxGeometry x="315" y="130" width="220" height="60" as="geometry" />
        </mxCell>
        <mxCell id="TvNYNuH4B3eKYfrAaVJr-5" style="edgeStyle=orthogonalEdgeStyle;rounded=0;orthogonalLoop=1;jettySize=auto;html=1;exitX=1;exitY=0.5;exitDx=0;exitDy=0;entryX=1;entryY=0.5;entryDx=0;entryDy=0;" edge="1" parent="1" source="P0m0aLkAAQuqtbTCNZ9h-4" target="TvNYNuH4B3eKYfrAaVJr-4">
          <mxGeometry relative="1" as="geometry">
            <Array as="points">
              <mxPoint x="610" y="260" />
              <mxPoint x="610" y="550" />
            </Array>
          </mxGeometry>
        </mxCell>
        <mxCell id="TvNYNuH4B3eKYfrAaVJr-10" style="edgeStyle=orthogonalEdgeStyle;rounded=0;orthogonalLoop=1;jettySize=auto;html=1;exitX=0;exitY=0.5;exitDx=0;exitDy=0;entryX=0.5;entryY=0;entryDx=0;entryDy=0;" edge="1" parent="1" source="P0m0aLkAAQuqtbTCNZ9h-4" target="P0m0aLkAAQuqtbTCNZ9h-5">
          <mxGeometry relative="1" as="geometry" />
        </mxCell>
        <mxCell id="P0m0aLkAAQuqtbTCNZ9h-4" value="getline(temp_file, line)" style="rhombus;whiteSpace=wrap;html=1;" vertex="1" parent="1">
          <mxGeometry x="343" y="220" width="165" height="80" as="geometry" />
        </mxCell>
        <mxCell id="P0m0aLkAAQuqtbTCNZ9h-19" style="edgeStyle=orthogonalEdgeStyle;rounded=0;orthogonalLoop=1;jettySize=auto;html=1;exitX=0;exitY=0.5;exitDx=0;exitDy=0;entryX=0.5;entryY=0;entryDx=0;entryDy=0;" edge="1" parent="1" source="P0m0aLkAAQuqtbTCNZ9h-5" target="P0m0aLkAAQuqtbTCNZ9h-18">
          <mxGeometry relative="1" as="geometry" />
        </mxCell>
        <mxCell id="TvNYNuH4B3eKYfrAaVJr-14" style="edgeStyle=orthogonalEdgeStyle;rounded=0;orthogonalLoop=1;jettySize=auto;html=1;exitX=1;exitY=0.5;exitDx=0;exitDy=0;entryX=0.5;entryY=0;entryDx=0;entryDy=0;" edge="1" parent="1" source="P0m0aLkAAQuqtbTCNZ9h-5" target="TvNYNuH4B3eKYfrAaVJr-13">
          <mxGeometry relative="1" as="geometry" />
        </mxCell>
        <mxCell id="P0m0aLkAAQuqtbTCNZ9h-5" value="found" style="rhombus;whiteSpace=wrap;html=1;" vertex="1" parent="1">
          <mxGeometry x="180.37" y="310" width="124.5" height="80" as="geometry" />
        </mxCell>
        <mxCell id="P0m0aLkAAQuqtbTCNZ9h-8" value="true" style="text;html=1;align=center;verticalAlign=middle;resizable=0;points=[];autosize=1;strokeColor=none;fillColor=none;" vertex="1" parent="1">
          <mxGeometry x="300" y="220" width="40" height="30" as="geometry" />
        </mxCell>
        <mxCell id="P0m0aLkAAQuqtbTCNZ9h-16" style="edgeStyle=orthogonalEdgeStyle;rounded=0;orthogonalLoop=1;jettySize=auto;html=1;exitX=0.5;exitY=1;exitDx=0;exitDy=0;entryX=0;entryY=0.5;entryDx=0;entryDy=0;" edge="1" parent="1" source="P0m0aLkAAQuqtbTCNZ9h-9" target="P0m0aLkAAQuqtbTCNZ9h-15">
          <mxGeometry relative="1" as="geometry" />
        </mxCell>
        <mxCell id="P0m0aLkAAQuqtbTCNZ9h-9" value="&lt;div&gt;found = false&lt;/div&gt;" style="rounded=0;whiteSpace=wrap;html=1;" vertex="1" parent="1">
          <mxGeometry x="40.120000000000005" y="440" width="120" height="30" as="geometry" />
        </mxCell>
        <mxCell id="P0m0aLkAAQuqtbTCNZ9h-11" value="true" style="text;html=1;align=center;verticalAlign=middle;resizable=0;points=[];autosize=1;strokeColor=none;fillColor=none;" vertex="1" parent="1">
          <mxGeometry x="132.12" y="318" width="40" height="30" as="geometry" />
        </mxCell>
        <mxCell id="P0m0aLkAAQuqtbTCNZ9h-14" value="false" style="text;html=1;align=center;verticalAlign=middle;resizable=0;points=[];autosize=1;strokeColor=none;fillColor=none;" vertex="1" parent="1">
          <mxGeometry x="282.25" y="288" width="50" height="30" as="geometry" />
        </mxCell>
        <mxCell id="TvNYNuH4B3eKYfrAaVJr-12" style="edgeStyle=orthogonalEdgeStyle;rounded=0;orthogonalLoop=1;jettySize=auto;html=1;exitX=0.5;exitY=1;exitDx=0;exitDy=0;entryX=0;entryY=0.5;entryDx=0;entryDy=0;" edge="1" parent="1" source="P0m0aLkAAQuqtbTCNZ9h-15" target="TvNYNuH4B3eKYfrAaVJr-4">
          <mxGeometry relative="1" as="geometry" />
        </mxCell>
        <mxCell id="P0m0aLkAAQuqtbTCNZ9h-15" value="" style="ellipse;whiteSpace=wrap;html=1;aspect=fixed;" vertex="1" parent="1">
          <mxGeometry x="227.12" y="480" width="20" height="20" as="geometry" />
        </mxCell>
        <mxCell id="P0m0aLkAAQuqtbTCNZ9h-20" style="edgeStyle=orthogonalEdgeStyle;rounded=0;orthogonalLoop=1;jettySize=auto;html=1;exitX=0.5;exitY=1;exitDx=0;exitDy=0;entryX=0.5;entryY=0;entryDx=0;entryDy=0;" edge="1" parent="1" source="P0m0aLkAAQuqtbTCNZ9h-18" target="P0m0aLkAAQuqtbTCNZ9h-9">
          <mxGeometry relative="1" as="geometry" />
        </mxCell>
        <mxCell id="P0m0aLkAAQuqtbTCNZ9h-18" value="PRINT&lt;div&gt;out_file &amp;lt;&amp;lt; endl&lt;/div&gt;" style="shape=parallelogram;perimeter=parallelogramPerimeter;whiteSpace=wrap;html=1;fixedSize=1;" vertex="1" parent="1">
          <mxGeometry x="40.120000000000005" y="380" width="120" height="40" as="geometry" />
        </mxCell>
        <mxCell id="D5A1MFDm9EqiPA72eMQy-2" style="edgeStyle=orthogonalEdgeStyle;rounded=0;orthogonalLoop=1;jettySize=auto;html=1;exitX=0.5;exitY=1;exitDx=0;exitDy=0;entryX=0.5;entryY=0;entryDx=0;entryDy=0;" edge="1" parent="1" source="P0m0aLkAAQuqtbTCNZ9h-21" target="D5A1MFDm9EqiPA72eMQy-1">
          <mxGeometry relative="1" as="geometry" />
        </mxCell>
        <mxCell id="P0m0aLkAAQuqtbTCNZ9h-21" value="temp_file.close()&lt;div&gt;out_file.close()&lt;/div&gt;" style="rounded=0;whiteSpace=wrap;html=1;" vertex="1" parent="1">
          <mxGeometry x="360" y="610" width="120" height="60" as="geometry" />
        </mxCell>
        <mxCell id="z8ht3Z7zyqrkWYLtzAxH-2" style="edgeStyle=orthogonalEdgeStyle;rounded=0;orthogonalLoop=1;jettySize=auto;html=1;exitX=0.5;exitY=1;exitDx=0;exitDy=0;entryX=0.5;entryY=0;entryDx=0;entryDy=0;" edge="1" parent="1" source="D5A1MFDm9EqiPA72eMQy-1" target="z8ht3Z7zyqrkWYLtzAxH-1">
          <mxGeometry relative="1" as="geometry" />
        </mxCell>
        <mxCell id="D5A1MFDm9EqiPA72eMQy-1" value="clear_screen()" style="shape=process;whiteSpace=wrap;html=1;backgroundOutline=1;" vertex="1" parent="1">
          <mxGeometry x="360" y="690" width="120" height="60" as="geometry" />
        </mxCell>
        <mxCell id="z8ht3Z7zyqrkWYLtzAxH-4" style="edgeStyle=orthogonalEdgeStyle;rounded=0;orthogonalLoop=1;jettySize=auto;html=1;exitX=0.5;exitY=1;exitDx=0;exitDy=0;entryX=0.5;entryY=0;entryDx=0;entryDy=0;" edge="1" parent="1" source="z8ht3Z7zyqrkWYLtzAxH-1" target="z8ht3Z7zyqrkWYLtzAxH-3">
          <mxGeometry relative="1" as="geometry" />
        </mxCell>
        <mxCell id="z8ht3Z7zyqrkWYLtzAxH-1" value="display_review(text_file)" style="shape=process;whiteSpace=wrap;html=1;backgroundOutline=1;" vertex="1" parent="1">
          <mxGeometry x="332.25" y="780" width="175.5" height="50" as="geometry" />
        </mxCell>
        <mxCell id="TvNYNuH4B3eKYfrAaVJr-2" style="edgeStyle=orthogonalEdgeStyle;rounded=0;orthogonalLoop=1;jettySize=auto;html=1;exitX=0.5;exitY=1;exitDx=0;exitDy=0;entryX=0.5;entryY=0;entryDx=0;entryDy=0;" edge="1" parent="1" source="z8ht3Z7zyqrkWYLtzAxH-3" target="TvNYNuH4B3eKYfrAaVJr-1">
          <mxGeometry relative="1" as="geometry" />
        </mxCell>
        <mxCell id="z8ht3Z7zyqrkWYLtzAxH-3" value="PRINT&lt;div&gt;&quot;Review Confimed and Saved&quot;&lt;/div&gt;" style="shape=parallelogram;perimeter=parallelogramPerimeter;whiteSpace=wrap;html=1;fixedSize=1;" vertex="1" parent="1">
          <mxGeometry x="320" y="860" width="200" height="60" as="geometry" />
        </mxCell>
        <mxCell id="TvNYNuH4B3eKYfrAaVJr-1" value="RETURN" style="rounded=1;whiteSpace=wrap;html=1;" vertex="1" parent="1">
          <mxGeometry x="360" y="950" width="120" height="60" as="geometry" />
        </mxCell>
        <mxCell id="TvNYNuH4B3eKYfrAaVJr-3" value="/* confirmation() */" style="text;html=1;align=center;verticalAlign=middle;resizable=0;points=[];autosize=1;strokeColor=none;fillColor=none;" vertex="1" parent="1">
          <mxGeometry x="180" y="38" width="120" height="30" as="geometry" />
        </mxCell>
        <mxCell id="TvNYNuH4B3eKYfrAaVJr-9" style="edgeStyle=orthogonalEdgeStyle;rounded=0;orthogonalLoop=1;jettySize=auto;html=1;exitX=0.5;exitY=1;exitDx=0;exitDy=0;entryX=0.5;entryY=0;entryDx=0;entryDy=0;" edge="1" parent="1" source="TvNYNuH4B3eKYfrAaVJr-4" target="P0m0aLkAAQuqtbTCNZ9h-21">
          <mxGeometry relative="1" as="geometry" />
        </mxCell>
        <mxCell id="TvNYNuH4B3eKYfrAaVJr-4" value="" style="ellipse;whiteSpace=wrap;html=1;aspect=fixed;" vertex="1" parent="1">
          <mxGeometry x="410" y="540" width="20" height="20" as="geometry" />
        </mxCell>
        <mxCell id="TvNYNuH4B3eKYfrAaVJr-7" value="false" style="text;html=1;align=center;verticalAlign=middle;resizable=0;points=[];autosize=1;strokeColor=none;fillColor=none;" vertex="1" parent="1">
          <mxGeometry x="505" y="218" width="50" height="30" as="geometry" />
        </mxCell>
        <mxCell id="TvNYNuH4B3eKYfrAaVJr-15" style="edgeStyle=orthogonalEdgeStyle;rounded=0;orthogonalLoop=1;jettySize=auto;html=1;exitX=0.5;exitY=1;exitDx=0;exitDy=0;entryX=1;entryY=0.5;entryDx=0;entryDy=0;" edge="1" parent="1" source="TvNYNuH4B3eKYfrAaVJr-13" target="P0m0aLkAAQuqtbTCNZ9h-15">
          <mxGeometry relative="1" as="geometry" />
        </mxCell>
        <mxCell id="TvNYNuH4B3eKYfrAaVJr-13" value="PRINT&lt;div&gt;out_file &amp;lt;&amp;lt; line &amp;lt;&amp;lt; endl&lt;/div&gt;" style="shape=parallelogram;perimeter=parallelogramPerimeter;whiteSpace=wrap;html=1;fixedSize=1;" vertex="1" parent="1">
          <mxGeometry x="280" y="380" width="190" height="40" as="geometry" />
        </mxCell>
      </root>
    </mxGraphModel>
  </diagram>
  <diagram id="oijcLnYSbnSTmoHo94GB" name="delete_review()">
    <mxGraphModel dx="1518" dy="844" grid="1" gridSize="10" guides="1" tooltips="1" connect="1" arrows="1" fold="1" page="1" pageScale="1" pageWidth="850" pageHeight="1100" math="0" shadow="0">
      <root>
        <mxCell id="0" />
        <mxCell id="1" parent="0" />
        <mxCell id="I65VHtf8cmok-p_XxyI--2" style="edgeStyle=orthogonalEdgeStyle;rounded=0;orthogonalLoop=1;jettySize=auto;html=1;exitX=0.5;exitY=1;exitDx=0;exitDy=0;entryX=0.5;entryY=0;entryDx=0;entryDy=0;" edge="1" parent="1" source="1f26ksf848NyQs9XdzzJ-1" target="I65VHtf8cmok-p_XxyI--1">
          <mxGeometry relative="1" as="geometry" />
        </mxCell>
        <mxCell id="1f26ksf848NyQs9XdzzJ-1" value="delete_review(text_file, name, city, state, date, rate, main_reason, comments)" style="rounded=1;whiteSpace=wrap;html=1;" vertex="1" parent="1">
          <mxGeometry x="300" y="40" width="270" height="60" as="geometry" />
        </mxCell>
        <mxCell id="Zw86I2iiwAI2W877-W69-1" value="/* delete_review() */" style="text;html=1;align=center;verticalAlign=middle;resizable=0;points=[];autosize=1;strokeColor=none;fillColor=none;" vertex="1" parent="1">
          <mxGeometry x="140" y="30" width="130" height="30" as="geometry" />
        </mxCell>
        <mxCell id="IUlTzZ3IIFJkJ-IFFTdO-2" style="edgeStyle=orthogonalEdgeStyle;rounded=0;orthogonalLoop=1;jettySize=auto;html=1;exitX=0.5;exitY=1;exitDx=0;exitDy=0;entryX=0.5;entryY=0;entryDx=0;entryDy=0;" edge="1" parent="1" source="I65VHtf8cmok-p_XxyI--1" target="IUlTzZ3IIFJkJ-IFFTdO-1">
          <mxGeometry relative="1" as="geometry" />
        </mxCell>
        <mxCell id="I65VHtf8cmok-p_XxyI--1" value="ofstream out_file(&quot;temp.txt&quot;, ios::trunc)&lt;div&gt;out_file.close()&lt;/div&gt;" style="rounded=0;whiteSpace=wrap;html=1;" vertex="1" parent="1">
          <mxGeometry x="340" y="130" width="190" height="60" as="geometry" />
        </mxCell>
        <mxCell id="IUlTzZ3IIFJkJ-IFFTdO-4" style="edgeStyle=orthogonalEdgeStyle;rounded=0;orthogonalLoop=1;jettySize=auto;html=1;exitX=0.5;exitY=1;exitDx=0;exitDy=0;entryX=0.5;entryY=0;entryDx=0;entryDy=0;" edge="1" parent="1" source="IUlTzZ3IIFJkJ-IFFTdO-1" target="IUlTzZ3IIFJkJ-IFFTdO-3">
          <mxGeometry relative="1" as="geometry" />
        </mxCell>
        <mxCell id="IUlTzZ3IIFJkJ-IFFTdO-1" value="PRINT&lt;div&gt;&quot;Review Deleted&quot;&lt;/div&gt;" style="shape=parallelogram;perimeter=parallelogramPerimeter;whiteSpace=wrap;html=1;fixedSize=1;" vertex="1" parent="1">
          <mxGeometry x="345" y="220" width="180" height="60" as="geometry" />
        </mxCell>
        <mxCell id="IUlTzZ3IIFJkJ-IFFTdO-3" value="RETURN" style="rounded=1;whiteSpace=wrap;html=1;" vertex="1" parent="1">
          <mxGeometry x="375" y="310" width="120" height="60" as="geometry" />
        </mxCell>
      </root>
    </mxGraphModel>
  </diagram>
  <diagram id="ocbyCP4yCJV0RX013-jo" name="modify_review()">
    <mxGraphModel dx="1843" dy="1024" grid="1" gridSize="10" guides="1" tooltips="1" connect="1" arrows="1" fold="1" page="1" pageScale="1" pageWidth="850" pageHeight="1100" math="0" shadow="0">
      <root>
        <mxCell id="0" />
        <mxCell id="1" parent="0" />
        <mxCell id="tpuWEvX3NWNRbOXGmQbe-2" style="edgeStyle=orthogonalEdgeStyle;rounded=0;orthogonalLoop=1;jettySize=auto;html=1;exitX=0.5;exitY=1;exitDx=0;exitDy=0;entryX=0.5;entryY=0;entryDx=0;entryDy=0;" edge="1" parent="1" source="aYYRJmB--is28DZPYQGU-1" target="tpuWEvX3NWNRbOXGmQbe-1">
          <mxGeometry relative="1" as="geometry" />
        </mxCell>
        <mxCell id="aYYRJmB--is28DZPYQGU-1" value="modify_review(text_file, name, city, state, date, rate, main_reason, comments)" style="rounded=1;whiteSpace=wrap;html=1;" vertex="1" parent="1">
          <mxGeometry x="305" y="120" width="240" height="60" as="geometry" />
        </mxCell>
        <mxCell id="aYYRJmB--is28DZPYQGU-2" value="/* modify_review() */" style="text;html=1;align=center;verticalAlign=middle;resizable=0;points=[];autosize=1;strokeColor=none;fillColor=none;" vertex="1" parent="1">
          <mxGeometry x="140" y="100" width="130" height="30" as="geometry" />
        </mxCell>
        <mxCell id="tpuWEvX3NWNRbOXGmQbe-1" value="clear_screen()" style="shape=process;whiteSpace=wrap;html=1;backgroundOutline=1;" vertex="1" parent="1">
          <mxGeometry x="365" y="210" width="120" height="60" as="geometry" />
        </mxCell>
        <mxCell id="vXUraw4Q4mht0knSDqHN-4" style="edgeStyle=orthogonalEdgeStyle;rounded=0;orthogonalLoop=1;jettySize=auto;html=1;exitX=0.5;exitY=1;exitDx=0;exitDy=0;" edge="1" parent="1" source="tpuWEvX3NWNRbOXGmQbe-3" target="vXUraw4Q4mht0knSDqHN-2">
          <mxGeometry relative="1" as="geometry" />
        </mxCell>
        <mxCell id="tpuWEvX3NWNRbOXGmQbe-3" value="temp_review()" style="shape=process;whiteSpace=wrap;html=1;backgroundOutline=1;" vertex="1" parent="1">
          <mxGeometry x="365" y="290" width="120" height="60" as="geometry" />
        </mxCell>
        <mxCell id="vXUraw4Q4mht0knSDqHN-1" style="edgeStyle=orthogonalEdgeStyle;rounded=0;orthogonalLoop=1;jettySize=auto;html=1;exitX=0.5;exitY=1;exitDx=0;exitDy=0;entryX=0.5;entryY=0;entryDx=0;entryDy=0;" edge="1" parent="1" source="vXUraw4Q4mht0knSDqHN-2" target="vXUraw4Q4mht0knSDqHN-3">
          <mxGeometry relative="1" as="geometry" />
        </mxCell>
        <mxCell id="vXUraw4Q4mht0knSDqHN-2" value="user_info(name, city, state, date)" style="shape=process;whiteSpace=wrap;html=1;backgroundOutline=1;" vertex="1" parent="1">
          <mxGeometry x="320" y="380" width="210" height="60" as="geometry" />
        </mxCell>
        <mxCell id="3gAFrxeXOihNCm3WfS_v-2" style="edgeStyle=orthogonalEdgeStyle;rounded=0;orthogonalLoop=1;jettySize=auto;html=1;exitX=0.5;exitY=1;exitDx=0;exitDy=0;entryX=0.5;entryY=0;entryDx=0;entryDy=0;" edge="1" parent="1" source="vXUraw4Q4mht0knSDqHN-3" target="3gAFrxeXOihNCm3WfS_v-1">
          <mxGeometry relative="1" as="geometry" />
        </mxCell>
        <mxCell id="vXUraw4Q4mht0knSDqHN-3" value="user_review(name, city, state, date, rate, main_reason, comments)" style="shape=process;whiteSpace=wrap;html=1;backgroundOutline=1;" vertex="1" parent="1">
          <mxGeometry x="320" y="470" width="210" height="60" as="geometry" />
        </mxCell>
        <mxCell id="R2RfI7Ke9e-A0L_MjaYo-2" style="edgeStyle=orthogonalEdgeStyle;rounded=0;orthogonalLoop=1;jettySize=auto;html=1;exitX=0.5;exitY=1;exitDx=0;exitDy=0;entryX=0.5;entryY=0;entryDx=0;entryDy=0;" edge="1" parent="1" source="3gAFrxeXOihNCm3WfS_v-1" target="R2RfI7Ke9e-A0L_MjaYo-1">
          <mxGeometry relative="1" as="geometry" />
        </mxCell>
        <mxCell id="3gAFrxeXOihNCm3WfS_v-1" value="confirmation(text_file, name, city, state, date, rate, main_reason, comments)" style="shape=process;whiteSpace=wrap;html=1;backgroundOutline=1;" vertex="1" parent="1">
          <mxGeometry x="290" y="560" width="270" height="60" as="geometry" />
        </mxCell>
        <mxCell id="R2RfI7Ke9e-A0L_MjaYo-1" value="RETURN" style="rounded=1;whiteSpace=wrap;html=1;" vertex="1" parent="1">
          <mxGeometry x="365" y="650" width="120" height="60" as="geometry" />
        </mxCell>
      </root>
    </mxGraphModel>
  </diagram>
  <diagram id="pi95xQk2DUzo5zE8iLFV" name="temp_review()">
    <mxGraphModel dx="1290" dy="717" grid="1" gridSize="10" guides="1" tooltips="1" connect="1" arrows="1" fold="1" page="1" pageScale="1" pageWidth="850" pageHeight="1100" math="0" shadow="0">
      <root>
        <mxCell id="0" />
        <mxCell id="1" parent="0" />
        <mxCell id="N10_jhl47C2lsllKUJSm-3" style="edgeStyle=orthogonalEdgeStyle;rounded=0;orthogonalLoop=1;jettySize=auto;html=1;exitX=0.5;exitY=1;exitDx=0;exitDy=0;entryX=0.5;entryY=0;entryDx=0;entryDy=0;" edge="1" parent="1" source="sXJ-eNgAbHtOv84-19PZ-1" target="N10_jhl47C2lsllKUJSm-1">
          <mxGeometry relative="1" as="geometry" />
        </mxCell>
        <mxCell id="sXJ-eNgAbHtOv84-19PZ-1" value="temp_review()" style="rounded=1;whiteSpace=wrap;html=1;" vertex="1" parent="1">
          <mxGeometry x="363" y="90" width="125" height="60" as="geometry" />
        </mxCell>
        <mxCell id="sXJ-eNgAbHtOv84-19PZ-2" value="/* temp_review */" style="text;html=1;align=center;verticalAlign=middle;resizable=0;points=[];autosize=1;strokeColor=none;fillColor=none;" vertex="1" parent="1">
          <mxGeometry x="195" y="58" width="110" height="30" as="geometry" />
        </mxCell>
        <mxCell id="N10_jhl47C2lsllKUJSm-4" style="edgeStyle=orthogonalEdgeStyle;rounded=0;orthogonalLoop=1;jettySize=auto;html=1;exitX=0.5;exitY=1;exitDx=0;exitDy=0;entryX=0.5;entryY=0;entryDx=0;entryDy=0;" edge="1" parent="1" source="N10_jhl47C2lsllKUJSm-1" target="N10_jhl47C2lsllKUJSm-2">
          <mxGeometry relative="1" as="geometry" />
        </mxCell>
        <mxCell id="N10_jhl47C2lsllKUJSm-1" value="ifstream in_file(&quot;temp_review.txt&quot;)&lt;div&gt;string line&lt;/div&gt;" style="rounded=0;whiteSpace=wrap;html=1;" vertex="1" parent="1">
          <mxGeometry x="315.5" y="170" width="220" height="60" as="geometry" />
        </mxCell>
        <mxCell id="N10_jhl47C2lsllKUJSm-7" style="edgeStyle=orthogonalEdgeStyle;rounded=0;orthogonalLoop=1;jettySize=auto;html=1;exitX=0.5;exitY=1;exitDx=0;exitDy=0;entryX=0.5;entryY=0;entryDx=0;entryDy=0;" edge="1" parent="1" source="N10_jhl47C2lsllKUJSm-2" target="N10_jhl47C2lsllKUJSm-6">
          <mxGeometry relative="1" as="geometry" />
        </mxCell>
        <mxCell id="N10_jhl47C2lsllKUJSm-2" value="PRINT&lt;div&gt;&quot;Preview&quot;&lt;/div&gt;" style="shape=parallelogram;perimeter=parallelogramPerimeter;whiteSpace=wrap;html=1;fixedSize=1;" vertex="1" parent="1">
          <mxGeometry x="365.5" y="250" width="120" height="50" as="geometry" />
        </mxCell>
        <mxCell id="N10_jhl47C2lsllKUJSm-9" style="edgeStyle=orthogonalEdgeStyle;rounded=0;orthogonalLoop=1;jettySize=auto;html=1;exitX=0;exitY=0.5;exitDx=0;exitDy=0;entryX=0.5;entryY=0;entryDx=0;entryDy=0;" edge="1" parent="1" source="N10_jhl47C2lsllKUJSm-6" target="N10_jhl47C2lsllKUJSm-8">
          <mxGeometry relative="1" as="geometry" />
        </mxCell>
        <mxCell id="N10_jhl47C2lsllKUJSm-13" style="edgeStyle=orthogonalEdgeStyle;rounded=0;orthogonalLoop=1;jettySize=auto;html=1;exitX=1;exitY=0.5;exitDx=0;exitDy=0;entryX=1;entryY=0.5;entryDx=0;entryDy=0;" edge="1" parent="1" source="N10_jhl47C2lsllKUJSm-6" target="N10_jhl47C2lsllKUJSm-11">
          <mxGeometry relative="1" as="geometry">
            <Array as="points">
              <mxPoint x="550" y="370" />
              <mxPoint x="550" y="515" />
            </Array>
          </mxGeometry>
        </mxCell>
        <mxCell id="N10_jhl47C2lsllKUJSm-6" value="getline(in_file, line)" style="rhombus;whiteSpace=wrap;html=1;" vertex="1" parent="1">
          <mxGeometry x="345.5" y="330" width="160" height="80" as="geometry" />
        </mxCell>
        <mxCell id="N10_jhl47C2lsllKUJSm-12" style="edgeStyle=orthogonalEdgeStyle;rounded=0;orthogonalLoop=1;jettySize=auto;html=1;exitX=0.5;exitY=1;exitDx=0;exitDy=0;entryX=0;entryY=0.5;entryDx=0;entryDy=0;" edge="1" parent="1" source="N10_jhl47C2lsllKUJSm-8" target="N10_jhl47C2lsllKUJSm-11">
          <mxGeometry relative="1" as="geometry" />
        </mxCell>
        <mxCell id="N10_jhl47C2lsllKUJSm-8" value="PRINT&lt;div&gt;line&lt;/div&gt;" style="shape=parallelogram;perimeter=parallelogramPerimeter;whiteSpace=wrap;html=1;fixedSize=1;" vertex="1" parent="1">
          <mxGeometry x="220" y="410" width="120" height="60" as="geometry" />
        </mxCell>
        <mxCell id="N10_jhl47C2lsllKUJSm-10" value="true" style="text;html=1;align=center;verticalAlign=middle;resizable=0;points=[];autosize=1;strokeColor=none;fillColor=none;" vertex="1" parent="1">
          <mxGeometry x="300" y="338" width="40" height="30" as="geometry" />
        </mxCell>
        <mxCell id="N10_jhl47C2lsllKUJSm-16" style="edgeStyle=orthogonalEdgeStyle;rounded=0;orthogonalLoop=1;jettySize=auto;html=1;exitX=0.5;exitY=1;exitDx=0;exitDy=0;entryX=0.5;entryY=0;entryDx=0;entryDy=0;" edge="1" parent="1" source="N10_jhl47C2lsllKUJSm-11" target="N10_jhl47C2lsllKUJSm-15">
          <mxGeometry relative="1" as="geometry" />
        </mxCell>
        <mxCell id="N10_jhl47C2lsllKUJSm-11" value="" style="ellipse;whiteSpace=wrap;html=1;aspect=fixed;" vertex="1" parent="1">
          <mxGeometry x="410" y="500" width="30" height="30" as="geometry" />
        </mxCell>
        <mxCell id="N10_jhl47C2lsllKUJSm-14" value="false" style="text;html=1;align=center;verticalAlign=middle;resizable=0;points=[];autosize=1;strokeColor=none;fillColor=none;" vertex="1" parent="1">
          <mxGeometry x="485" y="338" width="50" height="30" as="geometry" />
        </mxCell>
        <mxCell id="Ftwp9pcSqh2ZG96baQOI-2" style="edgeStyle=orthogonalEdgeStyle;rounded=0;orthogonalLoop=1;jettySize=auto;html=1;exitX=0.5;exitY=1;exitDx=0;exitDy=0;entryX=0.5;entryY=0;entryDx=0;entryDy=0;" edge="1" parent="1" source="N10_jhl47C2lsllKUJSm-15" target="Ftwp9pcSqh2ZG96baQOI-1">
          <mxGeometry relative="1" as="geometry" />
        </mxCell>
        <mxCell id="N10_jhl47C2lsllKUJSm-15" value="in_file.close()" style="rounded=0;whiteSpace=wrap;html=1;" vertex="1" parent="1">
          <mxGeometry x="315.5" y="550" width="220" height="60" as="geometry" />
        </mxCell>
        <mxCell id="Ftwp9pcSqh2ZG96baQOI-1" value="RETURN" style="rounded=1;whiteSpace=wrap;html=1;" vertex="1" parent="1">
          <mxGeometry x="363" y="630" width="120" height="60" as="geometry" />
        </mxCell>
      </root>
    </mxGraphModel>
  </diagram>
  <diagram id="VeryxC5_Ctf3IJ7_mpaB" name="display_review()">
    <mxGraphModel dx="1518" dy="844" grid="1" gridSize="10" guides="1" tooltips="1" connect="1" arrows="1" fold="1" page="1" pageScale="1" pageWidth="850" pageHeight="1100" math="0" shadow="0">
      <root>
        <mxCell id="0" />
        <mxCell id="1" parent="0" />
        <mxCell id="oIGN5a6Ms2Rj846bTY8B-1" style="edgeStyle=orthogonalEdgeStyle;rounded=0;orthogonalLoop=1;jettySize=auto;html=1;exitX=0.5;exitY=1;exitDx=0;exitDy=0;entryX=0.5;entryY=0;entryDx=0;entryDy=0;" edge="1" parent="1" source="oIGN5a6Ms2Rj846bTY8B-2" target="oIGN5a6Ms2Rj846bTY8B-4">
          <mxGeometry relative="1" as="geometry" />
        </mxCell>
        <mxCell id="oIGN5a6Ms2Rj846bTY8B-2" value="display_review(text_file)" style="rounded=1;whiteSpace=wrap;html=1;" vertex="1" parent="1">
          <mxGeometry x="350" y="40" width="170" height="60" as="geometry" />
        </mxCell>
        <mxCell id="oIGN5a6Ms2Rj846bTY8B-3" style="edgeStyle=orthogonalEdgeStyle;rounded=0;orthogonalLoop=1;jettySize=auto;html=1;exitX=0.5;exitY=1;exitDx=0;exitDy=0;entryX=0.5;entryY=0;entryDx=0;entryDy=0;" edge="1" parent="1" source="oIGN5a6Ms2Rj846bTY8B-4" target="oIGN5a6Ms2Rj846bTY8B-6">
          <mxGeometry relative="1" as="geometry" />
        </mxCell>
        <mxCell id="oIGN5a6Ms2Rj846bTY8B-4" value="ifstream in_file(text_file)" style="rounded=0;whiteSpace=wrap;html=1;" vertex="1" parent="1">
          <mxGeometry x="340" y="130" width="190" height="60" as="geometry" />
        </mxCell>
        <mxCell id="oIGN5a6Ms2Rj846bTY8B-5" style="edgeStyle=orthogonalEdgeStyle;rounded=0;orthogonalLoop=1;jettySize=auto;html=1;exitX=0.5;exitY=1;exitDx=0;exitDy=0;entryX=0.5;entryY=0;entryDx=0;entryDy=0;" edge="1" parent="1" source="oIGN5a6Ms2Rj846bTY8B-6" target="oIGN5a6Ms2Rj846bTY8B-8">
          <mxGeometry relative="1" as="geometry" />
        </mxCell>
        <mxCell id="oIGN5a6Ms2Rj846bTY8B-6" value="PRINT&lt;div&gt;&quot;Feedbacks from users&quot;&lt;/div&gt;" style="shape=parallelogram;perimeter=parallelogramPerimeter;whiteSpace=wrap;html=1;fixedSize=1;" vertex="1" parent="1">
          <mxGeometry x="350" y="210" width="170" height="60" as="geometry" />
        </mxCell>
        <mxCell id="oIGN5a6Ms2Rj846bTY8B-7" style="edgeStyle=orthogonalEdgeStyle;rounded=0;orthogonalLoop=1;jettySize=auto;html=1;exitX=0.5;exitY=1;exitDx=0;exitDy=0;entryX=0.5;entryY=0;entryDx=0;entryDy=0;" edge="1" parent="1" source="oIGN5a6Ms2Rj846bTY8B-8" target="oIGN5a6Ms2Rj846bTY8B-11">
          <mxGeometry relative="1" as="geometry" />
        </mxCell>
        <mxCell id="oIGN5a6Ms2Rj846bTY8B-8" value="string line" style="rounded=0;whiteSpace=wrap;html=1;" vertex="1" parent="1">
          <mxGeometry x="375" y="300" width="120" height="30" as="geometry" />
        </mxCell>
        <mxCell id="oIGN5a6Ms2Rj846bTY8B-9" style="edgeStyle=orthogonalEdgeStyle;rounded=0;orthogonalLoop=1;jettySize=auto;html=1;exitX=0;exitY=0.5;exitDx=0;exitDy=0;entryX=0.5;entryY=0;entryDx=0;entryDy=0;" edge="1" parent="1" source="oIGN5a6Ms2Rj846bTY8B-11" target="oIGN5a6Ms2Rj846bTY8B-13">
          <mxGeometry relative="1" as="geometry" />
        </mxCell>
        <mxCell id="oIGN5a6Ms2Rj846bTY8B-10" style="edgeStyle=orthogonalEdgeStyle;rounded=0;orthogonalLoop=1;jettySize=auto;html=1;exitX=1;exitY=0.5;exitDx=0;exitDy=0;entryX=1;entryY=0.5;entryDx=0;entryDy=0;" edge="1" parent="1" source="oIGN5a6Ms2Rj846bTY8B-11" target="oIGN5a6Ms2Rj846bTY8B-16">
          <mxGeometry relative="1" as="geometry">
            <Array as="points">
              <mxPoint x="560" y="400" />
              <mxPoint x="560" y="545" />
            </Array>
          </mxGeometry>
        </mxCell>
        <mxCell id="oIGN5a6Ms2Rj846bTY8B-11" value="getline(in_file, line)" style="rhombus;whiteSpace=wrap;html=1;" vertex="1" parent="1">
          <mxGeometry x="360" y="360" width="150" height="80" as="geometry" />
        </mxCell>
        <mxCell id="oIGN5a6Ms2Rj846bTY8B-12" style="edgeStyle=orthogonalEdgeStyle;rounded=0;orthogonalLoop=1;jettySize=auto;html=1;exitX=0.5;exitY=1;exitDx=0;exitDy=0;entryX=0;entryY=0.5;entryDx=0;entryDy=0;" edge="1" parent="1" source="oIGN5a6Ms2Rj846bTY8B-13" target="oIGN5a6Ms2Rj846bTY8B-16">
          <mxGeometry relative="1" as="geometry" />
        </mxCell>
        <mxCell id="oIGN5a6Ms2Rj846bTY8B-13" value="PRINT&lt;div&gt;line&lt;/div&gt;" style="shape=parallelogram;perimeter=parallelogramPerimeter;whiteSpace=wrap;html=1;fixedSize=1;" vertex="1" parent="1">
          <mxGeometry x="240" y="440" width="120" height="60" as="geometry" />
        </mxCell>
        <mxCell id="oIGN5a6Ms2Rj846bTY8B-14" value="true" style="text;html=1;align=center;verticalAlign=middle;resizable=0;points=[];autosize=1;strokeColor=none;fillColor=none;" vertex="1" parent="1">
          <mxGeometry x="320" y="368" width="40" height="30" as="geometry" />
        </mxCell>
        <mxCell id="oIGN5a6Ms2Rj846bTY8B-15" style="edgeStyle=orthogonalEdgeStyle;rounded=0;orthogonalLoop=1;jettySize=auto;html=1;exitX=0.5;exitY=1;exitDx=0;exitDy=0;entryX=0.5;entryY=0;entryDx=0;entryDy=0;" edge="1" parent="1" source="oIGN5a6Ms2Rj846bTY8B-16" target="oIGN5a6Ms2Rj846bTY8B-19">
          <mxGeometry relative="1" as="geometry" />
        </mxCell>
        <mxCell id="oIGN5a6Ms2Rj846bTY8B-16" value="" style="ellipse;whiteSpace=wrap;html=1;aspect=fixed;" vertex="1" parent="1">
          <mxGeometry x="420" y="530" width="30" height="30" as="geometry" />
        </mxCell>
        <mxCell id="oIGN5a6Ms2Rj846bTY8B-17" value="false" style="text;html=1;align=center;verticalAlign=middle;resizable=0;points=[];autosize=1;strokeColor=none;fillColor=none;" vertex="1" parent="1">
          <mxGeometry x="495" y="368" width="50" height="30" as="geometry" />
        </mxCell>
        <mxCell id="oIGN5a6Ms2Rj846bTY8B-18" style="edgeStyle=orthogonalEdgeStyle;rounded=0;orthogonalLoop=1;jettySize=auto;html=1;exitX=0.5;exitY=1;exitDx=0;exitDy=0;entryX=0.5;entryY=0;entryDx=0;entryDy=0;" edge="1" parent="1" source="oIGN5a6Ms2Rj846bTY8B-19" target="oIGN5a6Ms2Rj846bTY8B-20">
          <mxGeometry relative="1" as="geometry" />
        </mxCell>
        <mxCell id="oIGN5a6Ms2Rj846bTY8B-19" value="in_file.close()" style="rounded=0;whiteSpace=wrap;html=1;" vertex="1" parent="1">
          <mxGeometry x="375" y="590" width="120" height="40" as="geometry" />
        </mxCell>
        <mxCell id="oIGN5a6Ms2Rj846bTY8B-20" value="RETURN" style="rounded=1;whiteSpace=wrap;html=1;" vertex="1" parent="1">
          <mxGeometry x="375" y="660" width="120" height="60" as="geometry" />
        </mxCell>
        <mxCell id="oIGN5a6Ms2Rj846bTY8B-21" value="/* display_review() */" style="text;html=1;align=center;verticalAlign=middle;resizable=0;points=[];autosize=1;strokeColor=none;fillColor=none;" vertex="1" parent="1">
          <mxGeometry x="165" y="28" width="130" height="30" as="geometry" />
        </mxCell>
      </root>
    </mxGraphModel>
  </diagram>
  <diagram id="r1RhiXLDriHpqrE13-PD" name="user_review()">
    <mxGraphModel dx="1290" dy="717" grid="1" gridSize="10" guides="1" tooltips="1" connect="1" arrows="1" fold="1" page="1" pageScale="1" pageWidth="850" pageHeight="1100" math="0" shadow="0">
      <root>
        <mxCell id="0" />
        <mxCell id="1" parent="0" />
        <mxCell id="3gkTWUBwvIQIqwHpJZUk-3" style="edgeStyle=orthogonalEdgeStyle;rounded=0;orthogonalLoop=1;jettySize=auto;html=1;exitX=0.5;exitY=1;exitDx=0;exitDy=0;entryX=0.5;entryY=0;entryDx=0;entryDy=0;" parent="1" source="cAiUp80ZjzL4WFxarRVW-1" target="3gkTWUBwvIQIqwHpJZUk-1" edge="1">
          <mxGeometry relative="1" as="geometry" />
        </mxCell>
        <mxCell id="cAiUp80ZjzL4WFxarRVW-1" value="user_review(name, city, state, date, rate, main_reason, comments)" style="rounded=1;whiteSpace=wrap;html=1;" parent="1" vertex="1">
          <mxGeometry x="305" y="70" width="240" height="60" as="geometry" />
        </mxCell>
        <mxCell id="Dzh_3HUACeOORLOJnkFQ-2" style="edgeStyle=orthogonalEdgeStyle;rounded=0;orthogonalLoop=1;jettySize=auto;html=1;exitX=0.5;exitY=1;exitDx=0;exitDy=0;entryX=0.5;entryY=0;entryDx=0;entryDy=0;" parent="1" source="3gkTWUBwvIQIqwHpJZUk-1" target="Dzh_3HUACeOORLOJnkFQ-1" edge="1">
          <mxGeometry relative="1" as="geometry" />
        </mxCell>
        <mxCell id="3gkTWUBwvIQIqwHpJZUk-1" value="ofstream out_file(&quot;temp_review.txt&quot;, ios::trunc)" style="rounded=0;whiteSpace=wrap;html=1;" parent="1" vertex="1">
          <mxGeometry x="310" y="160" width="230" height="60" as="geometry" />
        </mxCell>
        <mxCell id="Dzh_3HUACeOORLOJnkFQ-7" style="edgeStyle=orthogonalEdgeStyle;rounded=0;orthogonalLoop=1;jettySize=auto;html=1;exitX=0.5;exitY=1;exitDx=0;exitDy=0;entryX=0.5;entryY=0;entryDx=0;entryDy=0;" parent="1" source="Dzh_3HUACeOORLOJnkFQ-1" target="Dzh_3HUACeOORLOJnkFQ-3" edge="1">
          <mxGeometry relative="1" as="geometry" />
        </mxCell>
        <mxCell id="Dzh_3HUACeOORLOJnkFQ-1" value="PRINT&lt;div&gt;&quot;Please rate your overall experience&quot;&lt;/div&gt;" style="shape=parallelogram;perimeter=parallelogramPerimeter;whiteSpace=wrap;html=1;fixedSize=1;" parent="1" vertex="1">
          <mxGeometry x="310" y="250" width="230" height="60" as="geometry" />
        </mxCell>
        <mxCell id="Dzh_3HUACeOORLOJnkFQ-8" style="edgeStyle=orthogonalEdgeStyle;rounded=0;orthogonalLoop=1;jettySize=auto;html=1;exitX=0.5;exitY=1;exitDx=0;exitDy=0;entryX=0.5;entryY=0;entryDx=0;entryDy=0;" parent="1" source="Dzh_3HUACeOORLOJnkFQ-3" target="Dzh_3HUACeOORLOJnkFQ-5" edge="1">
          <mxGeometry relative="1" as="geometry" />
        </mxCell>
        <mxCell id="Dzh_3HUACeOORLOJnkFQ-3" value="READ&amp;nbsp;&lt;div&gt;rate, main_reason, comments&lt;/div&gt;" style="shape=parallelogram;perimeter=parallelogramPerimeter;whiteSpace=wrap;html=1;fixedSize=1;" parent="1" vertex="1">
          <mxGeometry x="310" y="340" width="230" height="60" as="geometry" />
        </mxCell>
        <mxCell id="Dzh_3HUACeOORLOJnkFQ-9" style="edgeStyle=orthogonalEdgeStyle;rounded=0;orthogonalLoop=1;jettySize=auto;html=1;exitX=0.5;exitY=1;exitDx=0;exitDy=0;entryX=0.5;entryY=0;entryDx=0;entryDy=0;" parent="1" source="Dzh_3HUACeOORLOJnkFQ-5" target="Dzh_3HUACeOORLOJnkFQ-6" edge="1">
          <mxGeometry relative="1" as="geometry" />
        </mxCell>
        <mxCell id="Dzh_3HUACeOORLOJnkFQ-5" value="PRINT&lt;div&gt;name, city, state, rate, main_reason, comments as texts in temp_review&lt;/div&gt;" style="shape=parallelogram;perimeter=parallelogramPerimeter;whiteSpace=wrap;html=1;fixedSize=1;" parent="1" vertex="1">
          <mxGeometry x="305" y="430" width="230" height="60" as="geometry" />
        </mxCell>
        <mxCell id="GYy9n3Wawzp6PQ2ASsLk-2" style="edgeStyle=orthogonalEdgeStyle;rounded=0;orthogonalLoop=1;jettySize=auto;html=1;exitX=0.5;exitY=1;exitDx=0;exitDy=0;entryX=0.5;entryY=0;entryDx=0;entryDy=0;" parent="1" source="Dzh_3HUACeOORLOJnkFQ-6" target="GYy9n3Wawzp6PQ2ASsLk-1" edge="1">
          <mxGeometry relative="1" as="geometry" />
        </mxCell>
        <mxCell id="Dzh_3HUACeOORLOJnkFQ-6" value="out_file.close()" style="rounded=0;whiteSpace=wrap;html=1;" parent="1" vertex="1">
          <mxGeometry x="305" y="520" width="230" height="40" as="geometry" />
        </mxCell>
        <mxCell id="GYy9n3Wawzp6PQ2ASsLk-1" value="RETURN" style="rounded=1;whiteSpace=wrap;html=1;" parent="1" vertex="1">
          <mxGeometry x="365" y="590" width="120" height="60" as="geometry" />
        </mxCell>
        <mxCell id="GYy9n3Wawzp6PQ2ASsLk-3" value="/* user_review */" style="text;html=1;align=center;verticalAlign=middle;resizable=0;points=[];autosize=1;strokeColor=none;fillColor=none;" parent="1" vertex="1">
          <mxGeometry x="125" y="58" width="110" height="30" as="geometry" />
        </mxCell>
      </root>
    </mxGraphModel>
  </diagram>
  <diagram id="K--cs8RPugYEHANsKznq" name="user_info()">
    <mxGraphModel dx="1290" dy="717" grid="1" gridSize="10" guides="1" tooltips="1" connect="1" arrows="1" fold="1" page="1" pageScale="1" pageWidth="850" pageHeight="1100" math="0" shadow="0">
      <root>
        <mxCell id="0" />
        <mxCell id="1" parent="0" />
        <mxCell id="jSmoQYmz0EVNbqwvL1bM-2" style="edgeStyle=orthogonalEdgeStyle;rounded=0;orthogonalLoop=1;jettySize=auto;html=1;exitX=0.5;exitY=1;exitDx=0;exitDy=0;entryX=0.5;entryY=0;entryDx=0;entryDy=0;" edge="1" parent="1" source="VRW9dsjnFP1kRKerZrsI-1" target="VRW9dsjnFP1kRKerZrsI-4">
          <mxGeometry relative="1" as="geometry" />
        </mxCell>
        <mxCell id="VRW9dsjnFP1kRKerZrsI-1" value="user_info(name, city, state, date)" style="rounded=1;whiteSpace=wrap;html=1;" vertex="1" parent="1">
          <mxGeometry x="365" y="80" width="120" height="60" as="geometry" />
        </mxCell>
        <mxCell id="VRW9dsjnFP1kRKerZrsI-3" value="Read&lt;div&gt;name, city, state, date&amp;nbsp;&lt;/div&gt;" style="shape=parallelogram;perimeter=parallelogramPerimeter;whiteSpace=wrap;html=1;fixedSize=1;" vertex="1" parent="1">
          <mxGeometry x="320" y="350" width="185" height="60" as="geometry" />
        </mxCell>
        <mxCell id="LQk7TCilzPLlK_x72QzW-3" style="edgeStyle=orthogonalEdgeStyle;rounded=0;orthogonalLoop=1;jettySize=auto;html=1;exitX=0.5;exitY=1;exitDx=0;exitDy=0;entryX=0.5;entryY=0;entryDx=0;entryDy=0;" edge="1" parent="1" source="VRW9dsjnFP1kRKerZrsI-4" target="LQk7TCilzPLlK_x72QzW-1">
          <mxGeometry relative="1" as="geometry" />
        </mxCell>
        <mxCell id="VRW9dsjnFP1kRKerZrsI-4" value="PRINT&lt;div&gt;&quot;Enter Personal Info&quot;&lt;/div&gt;" style="rounded=0;whiteSpace=wrap;html=1;" vertex="1" parent="1">
          <mxGeometry x="353" y="180" width="145" height="60" as="geometry" />
        </mxCell>
        <mxCell id="jSmoQYmz0EVNbqwvL1bM-4" style="edgeStyle=orthogonalEdgeStyle;rounded=0;orthogonalLoop=1;jettySize=auto;html=1;exitX=0.5;exitY=1;exitDx=0;exitDy=0;entryX=0.454;entryY=0.02;entryDx=0;entryDy=0;entryPerimeter=0;" edge="1" parent="1" source="VRW9dsjnFP1kRKerZrsI-3">
          <mxGeometry relative="1" as="geometry">
            <mxPoint x="416.99" y="441.20000000000005" as="targetPoint" />
          </mxGeometry>
        </mxCell>
        <mxCell id="FMfU2zG-02MQsravGJIo-1" value="RETURN&lt;span style=&quot;background-color: transparent; color: light-dark(rgb(0, 0, 0), rgb(255, 255, 255));&quot;&gt;&amp;nbsp;&lt;/span&gt;" style="rounded=1;whiteSpace=wrap;html=1;" vertex="1" parent="1">
          <mxGeometry x="320" y="440" width="200" height="60" as="geometry" />
        </mxCell>
        <mxCell id="dHEcrVLDF0MSFOhqtY9p-1" value="/* user_info */" style="text;html=1;align=center;verticalAlign=middle;resizable=0;points=[];autosize=1;strokeColor=none;fillColor=none;" vertex="1" parent="1">
          <mxGeometry x="180" y="58" width="100" height="30" as="geometry" />
        </mxCell>
        <mxCell id="LQk7TCilzPLlK_x72QzW-1" value="cin.ignore(numeric_limits&amp;lt;streamsize&amp;gt;::max(), &#39;\n&#39;)" style="rounded=0;whiteSpace=wrap;html=1;" vertex="1" parent="1">
          <mxGeometry x="288" y="260" width="275" height="66" as="geometry" />
        </mxCell>
        <mxCell id="LQk7TCilzPLlK_x72QzW-4" style="edgeStyle=orthogonalEdgeStyle;rounded=0;orthogonalLoop=1;jettySize=auto;html=1;exitX=0.5;exitY=1;exitDx=0;exitDy=0;entryX=0.56;entryY=-0.033;entryDx=0;entryDy=0;entryPerimeter=0;" edge="1" parent="1" source="LQk7TCilzPLlK_x72QzW-1" target="VRW9dsjnFP1kRKerZrsI-3">
          <mxGeometry relative="1" as="geometry" />
        </mxCell>
      </root>
    </mxGraphModel>
  </diagram>
  <diagram name="clear_screen()" id="HuuE3YXer0EoQu_zbdYO">
    <mxGraphModel dx="1290" dy="717" grid="1" gridSize="10" guides="1" tooltips="1" connect="1" arrows="1" fold="1" page="1" pageScale="1" pageWidth="850" pageHeight="1100" math="0" shadow="0">
      <root>
        <mxCell id="0" />
        <mxCell id="1" parent="0" />
        <mxCell id="tL4p19v8St_FjTzoC8Jo-4" style="edgeStyle=orthogonalEdgeStyle;rounded=0;orthogonalLoop=1;jettySize=auto;html=1;exitX=0.5;exitY=1;exitDx=0;exitDy=0;entryX=0.5;entryY=0;entryDx=0;entryDy=0;" edge="1" parent="1" target="tL4p19v8St_FjTzoC8Jo-3">
          <mxGeometry relative="1" as="geometry">
            <mxPoint x="425" y="140" as="sourcePoint" />
          </mxGeometry>
        </mxCell>
        <mxCell id="tL4p19v8St_FjTzoC8Jo-7" style="edgeStyle=orthogonalEdgeStyle;rounded=0;orthogonalLoop=1;jettySize=auto;html=1;exitX=0;exitY=0.5;exitDx=0;exitDy=0;entryX=0.5;entryY=0;entryDx=0;entryDy=0;" edge="1" parent="1" source="tL4p19v8St_FjTzoC8Jo-3" target="tL4p19v8St_FjTzoC8Jo-5">
          <mxGeometry relative="1" as="geometry" />
        </mxCell>
        <mxCell id="tL4p19v8St_FjTzoC8Jo-3" value="Check _WIN32" style="rhombus;whiteSpace=wrap;html=1;" vertex="1" parent="1">
          <mxGeometry x="343" y="160" width="165" height="80" as="geometry" />
        </mxCell>
        <mxCell id="tL4p19v8St_FjTzoC8Jo-12" style="edgeStyle=orthogonalEdgeStyle;rounded=0;orthogonalLoop=1;jettySize=auto;html=1;exitX=0.5;exitY=1;exitDx=0;exitDy=0;entryX=0;entryY=0.5;entryDx=0;entryDy=0;" edge="1" parent="1" source="tL4p19v8St_FjTzoC8Jo-5" target="tL4p19v8St_FjTzoC8Jo-11">
          <mxGeometry relative="1" as="geometry" />
        </mxCell>
        <mxCell id="tL4p19v8St_FjTzoC8Jo-5" value="system(&quot;cls&quot;)" style="rounded=0;whiteSpace=wrap;html=1;" vertex="1" parent="1">
          <mxGeometry x="240" y="260" width="120" height="60" as="geometry" />
        </mxCell>
        <mxCell id="tL4p19v8St_FjTzoC8Jo-13" style="edgeStyle=orthogonalEdgeStyle;rounded=0;orthogonalLoop=1;jettySize=auto;html=1;exitX=0.5;exitY=1;exitDx=0;exitDy=0;entryX=1;entryY=0.5;entryDx=0;entryDy=0;" edge="1" parent="1" source="tL4p19v8St_FjTzoC8Jo-6" target="tL4p19v8St_FjTzoC8Jo-11">
          <mxGeometry relative="1" as="geometry" />
        </mxCell>
        <mxCell id="tL4p19v8St_FjTzoC8Jo-6" value="system(&quot;clear&quot;)" style="rounded=0;whiteSpace=wrap;html=1;" vertex="1" parent="1">
          <mxGeometry x="500" y="260" width="120" height="60" as="geometry" />
        </mxCell>
        <mxCell id="tL4p19v8St_FjTzoC8Jo-8" style="edgeStyle=orthogonalEdgeStyle;rounded=0;orthogonalLoop=1;jettySize=auto;html=1;exitX=1;exitY=0.5;exitDx=0;exitDy=0;entryX=0.5;entryY=0;entryDx=0;entryDy=0;" edge="1" parent="1" source="tL4p19v8St_FjTzoC8Jo-3" target="tL4p19v8St_FjTzoC8Jo-6">
          <mxGeometry relative="1" as="geometry" />
        </mxCell>
        <mxCell id="tL4p19v8St_FjTzoC8Jo-9" value="true" style="text;html=1;align=center;verticalAlign=middle;resizable=0;points=[];autosize=1;strokeColor=none;fillColor=none;" vertex="1" parent="1">
          <mxGeometry x="310" y="168" width="40" height="30" as="geometry" />
        </mxCell>
        <mxCell id="tL4p19v8St_FjTzoC8Jo-10" value="false" style="text;html=1;align=center;verticalAlign=middle;resizable=0;points=[];autosize=1;strokeColor=none;fillColor=none;" vertex="1" parent="1">
          <mxGeometry x="485" y="168" width="50" height="30" as="geometry" />
        </mxCell>
        <mxCell id="tL4p19v8St_FjTzoC8Jo-15" style="edgeStyle=orthogonalEdgeStyle;rounded=0;orthogonalLoop=1;jettySize=auto;html=1;exitX=0.5;exitY=1;exitDx=0;exitDy=0;entryX=0.5;entryY=0;entryDx=0;entryDy=0;" edge="1" parent="1" source="tL4p19v8St_FjTzoC8Jo-11" target="tL4p19v8St_FjTzoC8Jo-14">
          <mxGeometry relative="1" as="geometry" />
        </mxCell>
        <mxCell id="tL4p19v8St_FjTzoC8Jo-11" value="" style="ellipse;whiteSpace=wrap;html=1;aspect=fixed;" vertex="1" parent="1">
          <mxGeometry x="415.5" y="370" width="20" height="20" as="geometry" />
        </mxCell>
        <mxCell id="tL4p19v8St_FjTzoC8Jo-14" value="RETURN" style="rounded=1;whiteSpace=wrap;html=1;" vertex="1" parent="1">
          <mxGeometry x="365" y="420" width="120" height="60" as="geometry" />
        </mxCell>
        <mxCell id="Pa8ckTdRjAnESUqZDMG6-1" value="clear_screen()" style="rounded=1;whiteSpace=wrap;html=1;" vertex="1" parent="1">
          <mxGeometry x="365" y="80" width="120" height="60" as="geometry" />
        </mxCell>
        <mxCell id="f0aOTbd2r4_wlBJ_1BD_-1" value="/* clear_screen() */" style="text;html=1;align=center;verticalAlign=middle;resizable=0;points=[];autosize=1;strokeColor=none;fillColor=none;" vertex="1" parent="1">
          <mxGeometry x="220" y="68" width="120" height="30" as="geometry" />
        </mxCell>
      </root>
    </mxGraphModel>
  </diagram>
</mxfile>
